<svg width="350" height="216" viewBox="0 0 350 216" fill="none" xmlns="http://www.w3.org/2000/svg">
<path d="M147.2 169C141.9 178.6 120.2 215.7 74.4 215.7C21 215.7 0 174.8 0 133.4C0 59.8 71.8 0 128.7 0C150.3 0 167.2 11.4 179.5 11.4C185.6 11.4 189.4 7.6 191.8 2.9L196.2 3.8L176 60.1H172.2C173 53.5 173.4 46.9 173.3 40.3C173.3 15.5 147.6 4.1 128.1 4.1C64.2 4.1 34.4 121.7 34.4 167.9C34.4 199.1 44.6 211.7 75.6 211.7C109.7 211.7 132.2 186.4 142 169.1L147.2 169Z" fill="black"/>
<path d="M110.4 100.301H110.7C115.1 94.5008 124.1 91.3008 131.7 91.3008C148.1 91.3008 158 102.201 158 118.201V161.601H143.8V117.201C143.8 108.101 139.7 103.101 130.2 103.101C116.3 103.101 110.5 112.601 110.5 125.601V161.601H96.2998V92.5008H110.5V100.301H110.4Z" fill="black"/>
<path d="M186.1 106.399H214.2V119.399H186.1V161.699H171.9V68.1992H221V81.1992H186.1V106.399Z" fill="black"/>
<path d="M273.9 154.499C268.6 159.599 261.6 162.599 254.2 162.899C233.5 162.899 223.5 146.199 223.5 127.299C223.5 108.699 232.6 91.2992 253.3 91.2992C260.9 91.2992 269.2 93.7992 273.7 99.8992H274V61.1992H288.2V161.599H274L273.9 154.499ZM273.9 126.299C273.9 113.999 268.7 103.299 254.9 103.299C242.2 103.299 237.7 115.599 237.7 126.299C237.7 137.899 242.2 151.099 255.9 151.099C269.2 151.099 273.9 137.799 273.9 126.299Z" fill="black"/>
<path d="M332.5 148.699H349.3V161.699H301.5V148.699H318.3V81.1992H304.2V68.1992H346.4V81.1992H332.5V148.699Z" fill="black"/>
<path d="M154.5 168.699H168.9L168.7 169.299H164.7L158.1 187.699C157.2 189.999 156.7 192.299 156.7 194.799C156.7 198.999 159.2 201.199 163.3 201.199C170.3 201.199 173.9 195.399 175.5 190.299L182 169.299H177.6L177.8 168.699H186.9L186.7 169.299H182.7L175.9 190.899C173.5 198.499 168.9 201.999 161.9 201.999C155.2 201.999 151.4 198.099 151.4 192.899C151.4 190.199 152 187.599 152.9 185.099L158.6 169.199H154.2L154.5 168.699Z" fill="#1D1D1B"/>
<path d="M195.7 169.299H191.2L191.4 168.699H205.8L205.6 169.299H201.6L190.3 200.799H199.2C204.7 200.799 208.5 194.299 209.6 192.399H210.2L207 201.399H180.1L180.3 200.799H184.3L195.7 169.299Z" fill="#1D1D1B"/>
<path d="M230.7 169.3H227.4C222.2 169.3 218.2 175.9 217.1 177.7H216.5L219.7 168.6H248.2L245 177.7H244.3C244.6 176.3 244.7 174.9 244.7 173.5C244.7 171.1 243.2 169.3 239.5 169.3H236.7L225.4 200.8H229.8L229.6 201.4H215.2L215.4 200.8H219.4L230.7 169.3Z" fill="#1D1D1B"/>
<path d="M252.4 168.699H266.8L266.6 169.299H262.6L256 187.699C255.1 189.999 254.6 192.299 254.6 194.799C254.6 198.999 257.1 201.199 261.2 201.199C268.2 201.199 271.8 195.399 273.4 190.299L279.9 169.299H275.5L275.7 168.699H284.8L284.6 169.299H280.6L273.8 190.899C271.4 198.499 266.8 201.999 259.8 201.999C253.1 201.999 249.3 198.099 249.3 192.899C249.3 190.199 249.9 187.599 250.8 185.099L256.5 169.199H252.1L252.4 168.699Z" fill="#1D1D1B"/>
<path d="M293.6 169.299H289.1L289.4 168.699H301.2C305.7 168.699 311.8 170.399 311.8 175.799C311.8 181.899 304.6 183.399 298.7 183.699L298.6 183.799C302.4 184.099 307.2 184.899 307.2 189.499C307.2 192.599 306.1 195.099 306.1 198.099C306.1 199.799 306.8 200.899 308.5 200.899C308.9 200.899 309.3 200.799 309.6 200.699L309.8 201.299C309 201.499 308.2 201.599 307.4 201.499C301.6 201.499 300.1 200.199 300.1 196.499C300.2 195.099 300.4 193.699 300.7 192.399C301 190.899 301.1 189.399 301.2 187.899C301.2 185.599 300.1 183.799 294.9 183.799H294.4L288.4 200.499H292.9L292.7 201.099H278.4L278.6 200.499H282.5L293.6 169.299ZM294.6 183.399H296.3C298.2 183.599 300.2 183.199 301.9 182.299C303.6 181.199 305.7 178.999 305.7 174.499C305.7 171.099 303.6 169.399 300.5 169.399H299.6L294.6 183.399Z" fill="#1D1D1B"/>
<path d="M328 169.299H323.5L323.7 168.699H349.4L346.6 176.499H346C346.3 175.399 346.5 174.299 346.6 173.199C346.6 170.899 345.5 169.299 342.1 169.299H334L328.9 183.499H331.4C335.8 183.499 338.3 178.799 338.9 177.699H339.5L334.7 191.099H334C334.4 189.999 334.6 188.899 334.6 187.699C334.6 185.399 332.6 184.199 329.9 184.199H328.6L322.7 200.799H331.6C337.1 200.799 341 194.199 342 192.399H342.6L339.4 201.399H312.5L312.7 200.799H316.7L328 169.299Z" fill="#1D1D1B"/>
</svg>
