<?xml version="1.0" encoding="utf-8"?>
<!-- Generator: Adobe Illustrator 25.3.1, SVG Export Plug-In . SVG Version: 6.00 Build 0)  -->
<svg version="1.1" xmlns="http://www.w3.org/2000/svg" xmlns:xlink="http://www.w3.org/1999/xlink" x="0px" y="0px" width="300px"
	 height="49px" viewBox="0 0 300 49" style="enable-background:new 0 0 300 49;" xml:space="preserve">
<style type="text/css">
	.st0{fill:#555555;}
	.st1{display:none;}
	.st2{display:inline;}
</style>
<g id="Ebene_1">
	<g transform="translate(-28.896 77)">
		<g transform="translate(62.507 -27.983)">
			<path class="st0" d="M0,0h-2.3C-3,0-3.7-0.3-4.2-0.9C-4.6-1.4-4.8-2-4.8-2.7v-43.8c0-0.6,0.3-1.3,0.7-1.7C-3.7-48.7-3-49-2.3-49
				H0c0.8,0,1.5,0.3,2,0.9c0.4,0.5,0.6,1.1,0.6,1.7v43.8C2.6-2,2.4-1.4,2-0.9C1.5-0.3,0.8,0,0,0"/>
		</g>
		<g transform="translate(42.91 -27.983)">
			<path class="st0" d="M0,0h-2.3C-3,0-3.7-0.3-4.2-0.9C-4.6-1.4-4.8-2-4.8-2.7v-38.9h-6.6c-0.6,0-1.3-0.3-1.7-0.7
				c-0.6-0.5-0.9-1.2-0.9-1.9v-2.3c0-0.8,0.3-1.5,0.9-2c0.5-0.4,1.1-0.6,1.7-0.6H9c0.6,0,1.3,0.2,1.8,0.6c0.6,0.5,0.9,1.2,0.9,2v2.3
				c0,0.7-0.3,1.4-0.9,1.9c-0.5,0.4-1.1,0.7-1.8,0.7H2.6v38.9C2.6-2,2.4-1.4,2-0.9C1.5-0.3,0.8,0,0,0"/>
		</g>
		<g transform="translate(83.083 -27.983)">
			<path class="st0" d="M0,0h-9.6c-0.7,0-1.4-0.3-1.9-0.9c-0.4-0.5-0.7-1.1-0.7-1.8v-43.8c0-0.8,0.3-1.5,0.9-2
				c0.5-0.4,1.1-0.6,1.7-0.6h7.5c1.7,0,3.3,0.1,5,0.3c1.3,0.1,2.7,0.6,3.8,1.2c1.8,1,3.2,2.6,4,4.5c0.8,2,1.3,4.1,1.2,6.3
				c0,3.6-0.4,6.2-1.2,7.9c-0.4,0.9-1,1.7-1.7,2.4c-0.1,0.1-0.2,0.2-0.4,0.3c1.3,0.8,2.3,1.9,2.9,3.3c1,2.4,1.4,4.9,1.3,7.5
				c0,1.8-0.1,3.5-0.3,5.3c-0.2,1.8-0.8,3.5-1.7,5c-1,1.6-2.4,2.9-4,3.7C4.8-0.4,2.4,0.1,0,0 M-4.8-7.4h4.4c0.9,0,1.8-0.1,2.7-0.3
				C3-7.9,3.5-8.3,4-8.8c0.6-0.7,0.9-1.5,1.1-2.3c0.3-1.5,0.5-3,0.4-4.4c0-1.2-0.1-2.3-0.5-3.4c-0.2-0.7-0.7-1.3-1.2-1.8
				c-0.7-0.5-1.4-0.8-2.2-0.9C0.5-21.9-0.6-22-1.8-22h-3L-4.8-7.4z M-4.8-29.4h3.1c0.9,0,1.8-0.1,2.8-0.2c0.7-0.1,1.3-0.3,1.8-0.7
				c0.6-0.5,1-1.2,1.2-1.9c0.4-1.4,0.6-2.8,0.5-4.3c0.1-1-0.1-2-0.5-3C3.9-40,3.5-40.5,3-40.8c-0.6-0.4-1.3-0.6-2-0.6
				c-0.9-0.1-2-0.1-3.1-0.1h-2.6V-29.4z"/>
		</g>
		<g transform="translate(113.857 -66.133)">
			<path class="st0" d="M0,0c0,0.1,0,0.2-0.1,0.3c-0.1,0.1-0.2,0.1-0.3,0.1h-3.9c-0.1,0-0.2,0-0.3-0.1C-4.6,0.2-4.6,0.1-4.6,0v-10.3
				c0-0.1,0-0.2,0.1-0.2c0.1-0.1,0.2-0.1,0.3-0.1h0.5c0.1,0,0.2,0,0.3,0.1c0.1,0.1,0.1,0.2,0.1,0.2v9.5h3c0.1,0,0.2,0,0.3,0.1
				C0-0.7,0-0.6,0-0.5V0z"/>
		</g>
		<g transform="translate(120.599 -66.133)">
			<path class="st0" d="M0,0c0,0.1,0,0.2-0.1,0.3c-0.1,0.1-0.2,0.1-0.3,0.1h-4.1c-0.1,0-0.2,0-0.3-0.1C-4.8,0.2-4.9,0.1-4.9,0v-10.3
				c0-0.1,0-0.2,0.1-0.2c0.1-0.1,0.2-0.1,0.3-0.1h4c0.1,0,0.2,0,0.3,0.1c0.1,0.1,0.1,0.2,0.1,0.3v0.5c0,0.1,0,0.2-0.1,0.3
				c-0.1,0.1-0.2,0.1-0.3,0.1h-3.1V-6h2.7c0.1,0,0.2,0,0.3,0.1c0.1,0.1,0.1,0.2,0.1,0.3v0.5c0,0.1,0,0.2-0.1,0.3
				c-0.1,0.1-0.2,0.1-0.3,0.1h-2.7v3.8h3.2c0.1,0,0.2,0,0.3,0.1C0-0.7,0-0.6,0-0.5V0z"/>
		</g>
		<g transform="translate(123.391 -65.773)">
			<path class="st0" d="M0,0c-0.1,0-0.2,0-0.3-0.1c-0.1-0.1-0.1-0.2-0.1-0.3v-10.3c0-0.1,0-0.2,0.1-0.2c0.1-0.1,0.2-0.1,0.3-0.1h0.5
				c0.1,0,0.2,0,0.3,0.1c0.1,0.1,0.1,0.2,0.1,0.2v10.3c0,0.1,0,0.2-0.1,0.3C0.7,0,0.6,0,0.5,0H0z"/>
		</g>
		<g transform="translate(129.507 -76.843)">
			<path class="st0" d="M0,0c0.4,0,0.8,0,1.1,0.1c0.3,0,0.6,0.1,0.8,0.3c0.4,0.2,0.7,0.5,0.8,0.9C3,1.7,3.1,2.2,3.1,2.7
				c0,0.6-0.1,1.2-0.3,1.8C2.7,4.6,2.6,4.8,2.5,4.9C2.3,5,2.2,5.1,2,5.2C2.5,5.3,2.8,5.6,3,6c0.2,0.5,0.3,1.1,0.3,1.7
				c0,0.4,0,0.8-0.1,1.2c0,0.4-0.2,0.8-0.4,1.1c-0.2,0.3-0.5,0.6-0.8,0.8c-0.5,0.2-1,0.3-1.5,0.3h-2.3C-1.9,11.1-2,11-2,11
				c-0.1-0.1-0.1-0.2-0.1-0.3V0.4c0-0.1,0-0.2,0.1-0.3C-1.9,0-1.9,0-1.8,0H0z M-0.9,4.6h1c0.2,0,0.5,0,0.7,0c0.2,0,0.4-0.1,0.6-0.2
				C1.5,4.2,1.7,4,1.7,3.8c0.1-0.4,0.1-0.7,0.1-1.1c0-0.3,0-0.6-0.1-0.8C1.6,1.7,1.5,1.6,1.3,1.5C1.1,1.4,0.9,1.3,0.7,1.3
				c-0.2,0-0.5,0-0.8,0h-0.9V4.6z M-0.9,5.9v3.9h1.3c0.2,0,0.5,0,0.7-0.1c0.2-0.1,0.4-0.2,0.5-0.3C1.8,9.2,1.9,9,1.9,8.8
				C2,8.4,2.1,8,2.1,7.6c0-0.3,0-0.6-0.1-0.9C1.9,6.5,1.7,6.3,1.6,6.2C1.4,6.1,1.2,6,0.9,6C0.7,5.9,0.4,5.9,0.1,5.9H-0.9z"/>
		</g>
		<g transform="translate(136.342 -74.898)">
			<path class="st0" d="M0,0l0.3,3.3v5.4c0,0.1,0,0.2-0.1,0.3C0.1,9.1,0,9.1-0.1,9.1h-0.5c-0.1,0-0.2,0-0.3-0.1C-1,8.9-1,8.8-1,8.7
				V-1.6c0-0.1,0-0.2,0.1-0.3c0.1-0.1,0.2-0.1,0.3-0.1h0.9c0.1,0,0.2,0,0.2,0.1c0,0.1,0.1,0.2,0.1,0.2l2.9,8.8L3.4,4v-5.6
				c0-0.1,0-0.2,0.1-0.3C3.5-1.9,3.6-2,3.7-1.9h0.5c0.1,0,0.2,0,0.3,0.1c0.1,0.1,0.1,0.2,0.1,0.3V8.8c0,0.1,0,0.2-0.1,0.3
				C4.5,9.1,4.4,9.1,4.3,9.1H3.3c-0.1,0-0.2,0-0.3-0.1C3,8.9,3,8.9,3,8.8L0,0z"/>
		</g>
		<g transform="translate(144.417 -65.773)">
			<path class="st0" d="M0,0c-0.1,0-0.2,0-0.3-0.1c-0.1-0.1-0.1-0.2-0.1-0.3v-10.3c0-0.1,0-0.2,0.1-0.2c0.1-0.1,0.2-0.1,0.3-0.1h0.5
				c0.1,0,0.2,0,0.3,0.1c0.1,0.1,0.1,0.2,0.1,0.2v10.3c0,0.1,0,0.2-0.1,0.3C0.7,0,0.6,0,0.5,0H0z"/>
		</g>
		<g transform="translate(147.945 -65.773)">
			<path class="st0" d="M0,0c-0.1,0-0.2,0-0.3-0.1c0-0.1-0.1-0.2-0.1-0.3v-0.8c0-0.1,0-0.2,0.1-0.3c0-0.1,0.1-0.2,0.1-0.3l3.6-8H0.1
				c-0.1,0-0.2,0-0.3-0.1c-0.1-0.1-0.1-0.2-0.1-0.3v-0.5c0-0.1,0-0.2,0.1-0.3c0.1-0.1,0.2-0.1,0.3-0.1h4.3c0.1,0,0.2,0,0.3,0.1
				c0.1,0.1,0.1,0.2,0.1,0.2v0.8c0,0.1,0,0.1,0,0.2c0,0.1,0,0.1-0.1,0.2L1-1.3h3.7c0.1,0,0.2,0,0.3,0.1C5-1.1,5-1,5-0.9v0.5
				c0,0.1,0,0.2-0.1,0.3C4.8,0,4.8,0,4.7,0H0z"/>
		</g>
		<g transform="translate(155.221 -70.242)">
			<path class="st0" d="M0,0c-0.1,0-0.2,0-0.2-0.1c-0.1-0.1-0.1-0.2-0.1-0.3v-0.5c0-0.1,0-0.2,0.1-0.3C-0.2-1.2-0.1-1.3,0-1.3h3.3
				c0.1,0,0.2,0,0.3,0.1C3.6-1.1,3.7-1,3.7-0.9v0.5c0,0.1,0,0.2-0.1,0.3C3.5,0,3.4,0,3.3,0H0z"/>
		</g>
		<g transform="translate(162.166 -65.773)">
			<path class="st0" d="M0,0c-0.1,0-0.2,0-0.3-0.1c-0.1-0.1-0.1-0.2-0.1-0.3v-10.3c0-0.1,0-0.2,0.1-0.2c0.1-0.1,0.2-0.1,0.3-0.1h0.5
				c0.1,0,0.2,0,0.3,0.1c0.1,0.1,0.1,0.2,0.1,0.2v10.3c0,0.1,0,0.2-0.1,0.3C0.7,0,0.6,0,0.5,0H0z"/>
		</g>
		<g transform="translate(167.153 -74.898)">
			<path class="st0" d="M0,0l0.2,3.3v5.4c0,0.1,0,0.2-0.1,0.3C0.1,9.1,0,9.1-0.1,9.1h-0.5c-0.1,0-0.2,0-0.3-0.1C-1,8.9-1,8.8-1,8.7
				V-1.6c0-0.1,0-0.2,0.1-0.3c0.1-0.1,0.2-0.1,0.3-0.1h0.9c0.1,0,0.2,0,0.2,0.1c0,0.1,0.1,0.2,0.1,0.2l2.9,8.8L3.4,4v-5.6
				c0-0.1,0-0.2,0.1-0.3C3.5-1.9,3.6-2,3.7-1.9h0.5c0.1,0,0.2,0,0.3,0.1c0.1,0.1,0.1,0.2,0.1,0.3V8.8c0,0.1,0,0.2-0.1,0.3
				C4.5,9.1,4.4,9.1,4.3,9.1H3.3c-0.1,0-0.2,0-0.3-0.1C3,8.9,3,8.9,3,8.8L0,0z"/>
		</g>
		<g transform="translate(178.976 -71.229)">
			<path class="st0" d="M0,0c0,0.1,0,0.2-0.1,0.3c-0.1,0.1-0.2,0.1-0.3,0.1h-2.7v4.7c0,0.1,0,0.2-0.1,0.3c-0.1,0.1-0.2,0.1-0.3,0.1
				H-4c-0.1,0-0.2,0-0.3-0.1c-0.1-0.1-0.1-0.2-0.1-0.3V-5.3c0-0.1,0-0.2,0.1-0.2C-4.1-5.6-4.1-5.6-4-5.6h4c0.1,0,0.2,0,0.3,0.1
				c0.1,0.1,0.1,0.2,0.1,0.3v0.5c0,0.1,0,0.2-0.1,0.3C0.2-4.4,0.2-4.4,0.1-4.4h-3.1v3.5h2.7c0.1,0,0.2,0,0.3,0.1C0-0.7,0-0.6,0-0.5
				V0z"/>
		</g>
		<g transform="translate(183.891 -65.616)">
			<path class="st0" d="M0,0c-0.5,0-1-0.1-1.4-0.3C-1.7-0.5-2-0.7-2.2-1c-0.2-0.3-0.3-0.6-0.4-0.9c-0.1-0.3-0.1-0.5-0.1-0.8
				c-0.1-1-0.1-2-0.1-3s0-1.9,0.1-3c0-0.3,0.1-0.5,0.1-0.8c0.1-0.3,0.2-0.6,0.4-0.9c0.2-0.3,0.5-0.5,0.8-0.7
				c0.4-0.2,0.9-0.3,1.4-0.3c0.5,0,1,0.1,1.4,0.3c0.3,0.2,0.6,0.4,0.8,0.7c0.2,0.3,0.3,0.6,0.4,0.9c0.1,0.3,0.1,0.5,0.1,0.8
				c0.1,1,0.1,2,0.1,3s0,1.9-0.1,3c0,0.3-0.1,0.5-0.1,0.8C2.5-1.6,2.4-1.3,2.2-1C2-0.7,1.7-0.5,1.4-0.3C1-0.1,0.5,0,0,0 M0-10.1
				c-0.3,0-0.5,0-0.7,0.2C-0.9-9.8-1-9.7-1.1-9.5c-0.1,0.2-0.2,0.4-0.2,0.6c0,0.2-0.1,0.5-0.1,0.7c-0.1,0.9-0.1,1.7-0.1,2.5
				s0,1.6,0.1,2.5c0,0.2,0,0.5,0.1,0.7c0,0.2,0.1,0.4,0.2,0.6c0.1,0.2,0.3,0.3,0.4,0.5C-0.5-1.3-0.3-1.2,0-1.3
				c0.3,0,0.5-0.1,0.7-0.2c0.2-0.1,0.3-0.3,0.4-0.5c0.1-0.2,0.2-0.4,0.2-0.6c0-0.2,0.1-0.5,0.1-0.7c0-0.9,0.1-1.7,0.1-2.5
				s0-1.6-0.1-2.5c0-0.2,0-0.5-0.1-0.7c0-0.2-0.1-0.4-0.2-0.6C1-9.7,0.9-9.8,0.7-10C0.5-10.1,0.3-10.1,0-10.1"/>
		</g>
		<g transform="translate(194.641 -66.133)">
			<path class="st0" d="M0,0c0,0.1,0,0.2,0,0.2c-0.1,0.1-0.2,0.1-0.3,0.1h-0.6c-0.1,0-0.2,0-0.2-0.1C-1.3,0.2-1.3,0.1-1.3,0
				l-1.5-4.8l-1.4,0V0c0,0.1,0,0.2-0.1,0.2c-0.1,0.1-0.2,0.1-0.3,0.1h-0.5c-0.1,0-0.2,0-0.3-0.1C-5.4,0.2-5.5,0.1-5.5,0v-10.3
				c0-0.1,0-0.2,0.1-0.3c0.1-0.1,0.2-0.1,0.2-0.1h1.9c0.5,0,1,0,1.6,0.2c0.4,0.1,0.8,0.3,1,0.7c0.2,0.3,0.3,0.6,0.4,0.9
				c0.1,0.4,0.1,0.8,0.1,1.2c0,0.6-0.1,1.2-0.3,1.7c-0.2,0.4-0.6,0.7-1.1,0.9L0,0z M-4.2-6.1h1c0.2,0,0.5,0,0.7,0
				c0.2,0,0.4-0.1,0.5-0.2c0.1-0.1,0.2-0.1,0.3-0.2c0.1-0.1,0.1-0.2,0.2-0.3c0-0.1,0.1-0.2,0.1-0.4c0-0.2,0-0.4,0-0.5
				c0-0.3,0-0.7-0.1-1C-1.6-9-1.8-9.1-1.9-9.3c-0.1,0-0.2-0.1-0.2-0.1c-0.1,0-0.2,0-0.4-0.1c-0.2,0-0.4,0-0.6,0h-1V-6.1z"/>
		</g>
		<g transform="translate(198.168 -75.055)">
			<path class="st0" d="M0,0L0,0l0.1,4.8v4.1c0,0.1,0,0.2-0.1,0.3C0,9.2-0.1,9.3-0.2,9.3h-0.5c-0.1,0-0.2,0-0.3-0.1
				C-1.1,9.1-1.1,9-1.1,8.9V-1.4c0-0.1,0-0.2,0.1-0.2C-1-1.7-0.9-1.8-0.8-1.8h1c0.1,0,0.2,0,0.3,0.1c0.1,0.1,0.1,0.2,0.1,0.3l1.2,5
				l0.3,1.7h0.1l0.3-1.7l1.2-5C3.7-1.7,3.8-1.8,4-1.8h1c0.1,0,0.2,0,0.3,0.1c0.1,0.1,0.1,0.2,0.1,0.2V8.9c0,0.1,0,0.2-0.1,0.3
				C5.2,9.2,5.1,9.3,5,9.3H4.5c-0.1,0-0.2,0-0.2-0.1C4.2,9.1,4.1,9,4.1,8.9V4.8L4.3,0H4.3L2.8,6.8c0,0.1-0.1,0.2-0.1,0.3
				C2.6,7.2,2.5,7.2,2.4,7.2H1.9c-0.1,0-0.2,0-0.2-0.1C1.6,7,1.5,6.9,1.5,6.8L0,0z"/>
		</g>
		<g transform="translate(209.002 -76.843)">
			<path class="st0" d="M0,0c0.2,0,0.3,0.1,0.4,0.4l2.1,10.3c0,0.1,0,0.2,0,0.3c-0.1,0.1-0.2,0.1-0.3,0.1H1.5
				c-0.2,0-0.3-0.1-0.4-0.4L0.8,8.9h-2.1l-0.4,1.8c0,0.2-0.2,0.4-0.4,0.4h-0.6c-0.1,0-0.2,0-0.3-0.1c-0.1-0.1-0.1-0.2,0-0.3L-1,0.4
				c0-0.1,0.1-0.2,0.1-0.3C-0.8,0-0.7,0-0.6,0H0z M0.5,7.6l-0.6-3.9l-0.2-2.1h-0.1l-0.2,2.1l-0.6,3.9L0.5,7.6z"/>
		</g>
		<g transform="translate(217.878 -75.949)">
			<path class="st0" d="M0,0c0,0.1,0,0.2-0.1,0.3c-0.1,0.1-0.2,0.1-0.3,0.1h-1.8v9.4c0,0.1,0,0.2-0.1,0.3c-0.1,0.1-0.2,0.1-0.3,0.1
				H-3c-0.1,0-0.2,0-0.3-0.1C-3.4,10-3.4,9.9-3.4,9.8V0.4h-1.8c-0.1,0-0.2,0-0.2-0.1C-5.5,0.2-5.6,0.1-5.6,0v-0.5
				c0-0.1,0-0.2,0.1-0.3c0.1-0.1,0.2-0.1,0.2-0.1h4.8c0.1,0,0.2,0,0.3,0.1C0-0.7,0-0.6,0-0.5V0z"/>
		</g>
		<g transform="translate(220.435 -65.773)">
			<path class="st0" d="M0,0c-0.1,0-0.2,0-0.3-0.1c-0.1-0.1-0.1-0.2-0.1-0.3v-10.3c0-0.1,0-0.2,0.1-0.2c0.1-0.1,0.2-0.1,0.3-0.1h0.5
				c0.1,0,0.2,0,0.3,0.1c0.1,0.1,0.1,0.2,0.1,0.2v10.3c0,0.1,0,0.2-0.1,0.3C0.7,0,0.6,0,0.5,0H0z"/>
		</g>
		<g transform="translate(226.824 -65.616)">
			<path class="st0" d="M0,0c-0.5,0-1-0.1-1.4-0.3C-1.7-0.5-2-0.7-2.2-1c-0.2-0.3-0.3-0.6-0.4-0.9c-0.1-0.3-0.1-0.5-0.1-0.8
				c-0.1-1-0.1-2-0.1-3s0-1.9,0.1-3c0-0.3,0.1-0.5,0.1-0.8c0.1-0.3,0.2-0.6,0.4-0.9c0.2-0.3,0.5-0.5,0.8-0.7
				c0.4-0.2,0.9-0.3,1.4-0.3c0.5,0,1,0.1,1.4,0.3c0.3,0.2,0.6,0.4,0.8,0.7c0.2,0.3,0.3,0.6,0.4,0.9c0.1,0.3,0.1,0.5,0.1,0.8
				c0.1,1,0.1,2,0.1,3s0,1.9-0.1,3c0,0.3-0.1,0.5-0.1,0.8C2.5-1.6,2.4-1.3,2.2-1C2-0.7,1.7-0.5,1.4-0.3C1-0.1,0.5,0,0,0 M0-10.1
				c-0.3,0-0.5,0-0.7,0.2C-0.9-9.8-1-9.7-1.1-9.5c-0.1,0.2-0.2,0.4-0.2,0.6c0,0.2-0.1,0.5-0.1,0.7c-0.1,0.9-0.1,1.7-0.1,2.5
				s0,1.6,0.1,2.5c0,0.2,0,0.5,0.1,0.7c0,0.2,0.1,0.4,0.2,0.6c0.1,0.2,0.3,0.3,0.4,0.5C-0.5-1.3-0.3-1.2,0-1.3
				c0.3,0,0.5-0.1,0.7-0.2c0.2-0.1,0.3-0.3,0.4-0.5c0.1-0.2,0.2-0.4,0.2-0.6c0-0.2,0.1-0.5,0.1-0.7c0-0.9,0.1-1.7,0.1-2.5
				c0-0.8,0-1.6-0.1-2.5c0-0.2,0-0.5-0.1-0.7c0-0.2-0.1-0.4-0.2-0.6C1-9.7,0.9-9.8,0.7-10C0.5-10.1,0.3-10.1,0-10.1"/>
		</g>
		<g transform="translate(233.104 -74.898)">
			<path class="st0" d="M0,0l0.3,3.3v5.4c0,0.1,0,0.2-0.1,0.3C0.1,9.1,0,9.1-0.1,9.1h-0.5c-0.1,0-0.2,0-0.3-0.1C-1,8.9-1,8.8-1,8.7
				V-1.6c0-0.1,0-0.2,0.1-0.3c0.1-0.1,0.2-0.1,0.3-0.1h0.9c0.1,0,0.2,0,0.2,0.1c0,0.1,0.1,0.2,0.1,0.2l2.9,8.8L3.4,4v-5.6
				c0-0.1,0-0.2,0.1-0.3C3.5-1.9,3.6-2,3.7-1.9h0.5c0.1,0,0.2,0,0.3,0.1c0.1,0.1,0.1,0.2,0.1,0.3V8.8c0,0.1,0,0.2-0.1,0.3
				C4.5,9.1,4.4,9.1,4.3,9.1H3.3c-0.1,0-0.2,0-0.3-0.1C3,8.9,3,8.9,3,8.8L0,0z"/>
		</g>
		<g transform="translate(245.554 -68.83)">
			<path class="st0" d="M0,0c0.1,0.9-0.2,1.7-0.7,2.4C-1.3,3-2,3.3-2.8,3.2c-0.5,0-0.9-0.1-1.4-0.3C-4.5,2.8-4.8,2.5-5,2.2
				c-0.2-0.3-0.4-0.7-0.4-1.1c-0.1-0.4-0.1-0.8-0.1-1.3v-0.2c0-0.1,0-0.2,0.1-0.3c0.1-0.1,0.2-0.1,0.3-0.1h0.5c0.1,0,0.2,0,0.2,0.1
				c0.1,0.1,0.1,0.2,0.1,0.3v0.2c0,0.3,0,0.7,0.1,1C-4.2,1.1-4,1.3-3.9,1.5c0.1,0.2,0.3,0.3,0.5,0.3C-3.2,1.9-3,2-2.8,2
				C-2.4,2-2,1.8-1.7,1.6c0.3-0.4,0.5-0.9,0.4-1.5c0-0.4-0.1-0.7-0.3-1C-1.8-1.2-2-1.5-2.3-1.7c-0.3-0.2-0.7-0.5-1-0.7
				c-0.4-0.2-0.7-0.5-1-0.8c-0.3-0.3-0.6-0.6-0.8-1c-0.2-0.4-0.3-0.9-0.3-1.4c0-0.3,0.1-0.7,0.2-1C-5.2-6.9-5-7.1-4.8-7.4
				C-4.6-7.6-4.3-7.8-4-8c0.4-0.1,0.7-0.2,1.1-0.2c0.4,0,0.8,0.1,1.1,0.2c0.3,0.1,0.6,0.3,0.8,0.6c0.2,0.2,0.4,0.5,0.5,0.8
				C-0.3-6.3-0.3-6-0.3-5.7v0.1c0,0.1,0,0.2-0.1,0.3c-0.1,0.1-0.2,0.1-0.3,0.1h-0.5c-0.1,0-0.2,0-0.3-0.1c-0.1-0.1-0.1-0.2-0.1-0.2
				v0c0-0.4-0.1-0.7-0.4-1c-0.2-0.3-0.6-0.4-0.9-0.4c-0.2,0-0.4,0-0.6,0.1c-0.2,0.1-0.3,0.2-0.4,0.3C-4-6.4-4.1-6.2-4.1-6.1
				c0,0.2-0.1,0.3-0.1,0.5c0,0.4,0.1,0.7,0.3,1C-3.6-4.3-3.4-4-3.1-3.8c0.3,0.3,0.6,0.5,1,0.7c0.4,0.2,0.7,0.5,1,0.8
				c0.3,0.3,0.6,0.6,0.8,1C-0.1-0.9,0-0.5,0,0"/>
		</g>
		<g transform="translate(247.325 -65.773)">
			<path class="st0" d="M0,0c-0.1,0-0.2,0-0.3-0.1c0-0.1-0.1-0.2-0.1-0.3v-0.8c0-0.1,0-0.2,0.1-0.3c0-0.1,0.1-0.2,0.1-0.3l3.6-8H0.1
				c-0.1,0-0.2,0-0.3-0.1c-0.1-0.1-0.1-0.2-0.1-0.3v-0.5c0-0.1,0-0.2,0.1-0.3c0.1-0.1,0.2-0.1,0.3-0.1h4.3c0.1,0,0.2,0,0.3,0.1
				c0.1,0.1,0.1,0.2,0.1,0.2v0.8c0,0.1,0,0.1,0,0.2c0,0.1,0,0.1-0.1,0.2L1-1.3h3.7c0.1,0,0.2,0,0.3,0.1C5-1.1,5-1,5-0.9v0.5
				c0,0.1,0,0.2-0.1,0.3C4.8,0,4.8,0,4.7,0H0z"/>
		</g>
		<g transform="translate(259.289 -66.133)">
			<path class="st0" d="M0,0c0,0.1,0,0.2-0.1,0.3c-0.1,0.1-0.2,0.1-0.3,0.1h-4.1c-0.1,0-0.2,0-0.3-0.1C-4.8,0.2-4.9,0.1-4.9,0v-10.3
				c0-0.1,0-0.2,0.1-0.2c0.1-0.1,0.2-0.1,0.3-0.1h4c0.1,0,0.2,0,0.3,0.1c0.1,0.1,0.1,0.2,0.1,0.3v0.5c0,0.1,0,0.2-0.1,0.3
				c-0.1,0.1-0.2,0.1-0.3,0.1h-3.1V-6h2.7c0.1,0,0.2,0,0.3,0.1c0.1,0.1,0.1,0.2,0.1,0.3v0.5c0,0.1,0,0.2-0.1,0.3
				c-0.1,0.1-0.2,0.1-0.3,0.1h-2.7v3.8h3.2c0.1,0,0.2,0,0.3,0.1C0-0.7,0-0.6,0-0.5V0z"/>
		</g>
		<g transform="translate(262.519 -74.898)">
			<path class="st0" d="M0,0l0.3,3.3v5.4c0,0.1,0,0.2-0.1,0.3C0.1,9.1,0,9.1-0.1,9.1h-0.5c-0.1,0-0.2,0-0.3-0.1C-1,8.9-1,8.8-1,8.7
				V-1.6c0-0.1,0-0.2,0.1-0.3c0.1-0.1,0.2-0.1,0.3-0.1h0.9c0.1,0,0.2,0,0.2,0.1c0,0.1,0.1,0.2,0.1,0.2l2.9,8.8L3.4,4v-5.6
				c0-0.1,0-0.2,0.1-0.3C3.5-1.9,3.6-2,3.7-1.9h0.5c0.1,0,0.2,0,0.3,0.1c0.1,0.1,0.1,0.2,0.1,0.3V8.8c0,0.1,0,0.2-0.1,0.3
				C4.5,9.1,4.4,9.1,4.3,9.1H3.3c-0.1,0-0.2,0-0.3-0.1C3,8.9,3,8.9,3,8.8L0,0z"/>
		</g>
		<g transform="translate(274.704 -75.949)">
			<path class="st0" d="M0,0c0,0.1,0,0.2-0.1,0.3c-0.1,0.1-0.2,0.1-0.3,0.1h-1.8v9.4c0,0.1,0,0.2-0.1,0.3c-0.1,0.1-0.2,0.1-0.3,0.1
				H-3c-0.1,0-0.2,0-0.3-0.1C-3.4,10-3.4,9.9-3.4,9.8V0.4h-1.8c-0.1,0-0.2,0-0.2-0.1C-5.5,0.2-5.6,0.1-5.6,0v-0.5
				c0-0.1,0-0.2,0.1-0.3c0.1-0.1,0.2-0.1,0.2-0.1h4.8c0.1,0,0.2,0,0.3,0.1C0-0.7,0-0.6,0-0.5V0z"/>
		</g>
		<g transform="translate(282.167 -66.133)">
			<path class="st0" d="M0,0c0,0.1,0,0.2,0,0.2c-0.1,0.1-0.2,0.1-0.3,0.1h-0.6c-0.1,0-0.2,0-0.3-0.1C-1.3,0.2-1.3,0.1-1.3,0
				l-1.5-4.8l-1.4,0V0c0,0.1,0,0.2-0.1,0.2c-0.1,0.1-0.2,0.1-0.3,0.1h-0.5c-0.1,0-0.2,0-0.3-0.1C-5.4,0.2-5.5,0.1-5.5,0v-10.3
				c0-0.1,0-0.2,0.1-0.3c0.1-0.1,0.2-0.1,0.2-0.1h1.9c0.5,0,1,0,1.6,0.2c0.4,0.1,0.8,0.3,1,0.7c0.2,0.3,0.3,0.6,0.4,0.9
				c0.1,0.4,0.1,0.8,0.1,1.2c0,0.6-0.1,1.2-0.3,1.7c-0.2,0.4-0.6,0.8-1.1,0.9L0,0z M-4.2-6.1h1c0.2,0,0.5,0,0.7,0
				c0.2,0,0.4-0.1,0.5-0.2c0.1-0.1,0.2-0.1,0.2-0.2c0.1-0.1,0.1-0.2,0.2-0.3c0-0.1,0.1-0.2,0.1-0.4c0-0.2,0-0.4,0-0.5
				c0-0.3,0-0.7-0.1-1C-1.6-9-1.8-9.1-1.9-9.3c-0.1,0-0.2-0.1-0.2-0.1c-0.1,0-0.2,0-0.4-0.1c-0.2,0-0.4,0-0.6,0h-1V-6.1z"/>
		</g>
		<g transform="translate(285.585 -68.736)">
			<path class="st0" d="M0,0c0,0.2,0,0.5,0.1,0.7c0,0.2,0.1,0.4,0.2,0.6c0.1,0.2,0.3,0.3,0.4,0.4c0.2,0.1,0.5,0.2,0.8,0.2
				c0.3,0,0.5,0,0.8-0.2c0.2-0.1,0.3-0.2,0.4-0.4c0.1-0.2,0.2-0.4,0.2-0.6c0-0.2,0-0.5,0-0.7v-7.7c0-0.1,0-0.2,0.1-0.3
				c0.1-0.1,0.2-0.1,0.3-0.1h0.5c0.1,0,0.2,0,0.3,0.1c0.1,0.1,0.1,0.2,0.1,0.3v8.2c0,0.3,0,0.5-0.1,0.8C4,1.6,3.9,1.9,3.7,2.1
				C3.5,2.4,3.2,2.7,2.9,2.8C2.4,3,1.9,3.1,1.4,3.1C0.9,3.1,0.4,3,0,2.8c-0.3-0.2-0.6-0.4-0.8-0.7C-1,1.9-1.1,1.6-1.2,1.3
				c-0.1-0.2-0.1-0.5-0.1-0.7v-8.4c0-0.1,0-0.2,0.1-0.3C-1.1-8.1-1-8.1-0.9-8.1h0.5c0.1,0,0.2,0,0.3,0.1C0-7.9,0-7.8,0-7.7V0z"/>
		</g>
		<g transform="translate(293.613 -75.055)">
			<path class="st0" d="M0,0L0,0l0.1,4.8v4.1c0,0.1,0,0.2-0.1,0.3C0,9.2-0.1,9.3-0.2,9.3h-0.5c-0.1,0-0.2,0-0.3-0.1
				C-1.1,9.1-1.1,9-1.1,8.9V-1.4c0-0.1,0-0.2,0.1-0.2C-1-1.7-0.9-1.8-0.8-1.8h1c0.1,0,0.2,0,0.2,0.1c0.1,0.1,0.1,0.2,0.1,0.3l1.2,5
				l0.3,1.7h0.1l0.3-1.7l1.2-5C3.7-1.7,3.8-1.8,4-1.8h1c0.1,0,0.2,0,0.3,0.1c0.1,0.1,0.1,0.2,0.1,0.2V8.9c0,0.1,0,0.2-0.1,0.3
				C5.2,9.2,5.1,9.3,5,9.3H4.5c-0.1,0-0.2,0-0.3-0.1C4.2,9.1,4.1,9,4.1,8.9V4.8L4.3,0H4.3L2.8,6.8c0,0.1,0,0.2-0.1,0.3
				C2.6,7.2,2.5,7.2,2.4,7.2H1.9c-0.1,0-0.2,0-0.2-0.1C1.6,7,1.5,6.9,1.5,6.8L0,0z"/>
		</g>
		<g transform="translate(113.888 -57.132)">
			<path class="st0" d="M0,0c0,0.1,0,0.2-0.1,0.3c-0.1,0.1-0.2,0.1-0.3,0.1h-1.8v9.4c0,0.1,0,0.2-0.1,0.3c-0.1,0.1-0.2,0.1-0.3,0.1
				H-3c-0.1,0-0.2,0-0.3-0.1C-3.4,10-3.4,9.9-3.4,9.8V0.4h-1.8c-0.1,0-0.2,0-0.2-0.1C-5.5,0.2-5.6,0.1-5.6,0v-0.5
				c0-0.1,0-0.2,0.1-0.3c0.1-0.1,0.2-0.1,0.2-0.1h4.8c0.1,0,0.2,0,0.3,0.1C0-0.7,0-0.6,0-0.5V0z"/>
		</g>
		<g transform="translate(120.741 -47.317)">
			<path class="st0" d="M0,0c0,0.1,0,0.2-0.1,0.3c-0.1,0.1-0.2,0.1-0.3,0.1h-4.1c-0.1,0-0.2,0-0.3-0.1C-4.8,0.2-4.9,0.1-4.9,0v-10.3
				c0-0.1,0-0.2,0.1-0.2c0.1-0.1,0.2-0.1,0.3-0.1h4c0.1,0,0.2,0,0.3,0.1c0.1,0.1,0.1,0.2,0.1,0.3v0.5c0,0.1,0,0.2-0.1,0.3
				c-0.1,0.1-0.2,0.1-0.3,0.1h-3.1V-6h2.7c0.1,0,0.2,0,0.3,0.1c0.1,0.1,0.1,0.2,0.1,0.3v0.5c0,0.1,0,0.2-0.1,0.3
				c-0.1,0.1-0.2,0.1-0.3,0.1h-2.7v3.8h3.2c0.1,0,0.2,0,0.3,0.1C0-0.7,0-0.6,0-0.5V0z"/>
		</g>
		<g transform="translate(127.969 -55.172)">
			<path class="st0" d="M0,0c0,0.1,0,0.2-0.1,0.3c-0.1,0.1-0.2,0.1-0.3,0.1h-0.5c-0.1,0-0.2,0-0.3-0.1C-1.2,0.2-1.3,0.1-1.3,0v-0.2
				c0-0.2,0-0.4-0.1-0.6c0-0.2-0.1-0.3-0.2-0.5c-0.1-0.1-0.2-0.3-0.4-0.4c-0.2-0.1-0.4-0.1-0.6-0.1c-0.3,0-0.5,0-0.7,0.2
				c-0.2,0.1-0.3,0.2-0.4,0.4C-3.8-1-3.9-0.8-3.9-0.6C-3.9-0.4-4-0.1-4,0.1C-4,0.6-4,1-4.1,1.4s0,0.8,0,1.2s0,0.8,0,1.2
				S-4,4.7-4,5.1c0,0.2,0,0.5,0.1,0.7c0,0.2,0.1,0.4,0.2,0.6c0.1,0.2,0.3,0.3,0.4,0.5C-3,7.1-2.8,7.1-2.5,7.1c0.2,0,0.5,0,0.7-0.2
				c0.2-0.1,0.3-0.2,0.4-0.4c0.1-0.2,0.2-0.4,0.2-0.6c0-0.2,0.1-0.5,0.1-0.7V4.7c0-0.1,0-0.2,0.1-0.3C-1,4.3-0.9,4.3-0.8,4.3h0.5
				c0.1,0,0.2,0,0.3,0.1c0.1,0.1,0.1,0.2,0.1,0.3v1.1c0,0.3,0,0.5-0.1,0.8c-0.1,0.3-0.2,0.6-0.4,0.9c-0.2,0.3-0.5,0.5-0.8,0.7
				c-0.4,0.2-0.9,0.3-1.4,0.3c-0.5,0-0.9-0.1-1.4-0.3c-0.3-0.2-0.6-0.4-0.8-0.7c-0.2-0.3-0.3-0.6-0.4-0.9C-5.2,6.2-5.2,6-5.2,5.7
				c0-0.5-0.1-1-0.1-1.5s0-1,0-1.5c0-0.5,0-1,0-1.5s0-1,0.1-1.5c0-0.3,0-0.5,0.1-0.8C-5.1-1.4-5-1.7-4.8-2c0.2-0.3,0.5-0.5,0.8-0.7
				C-3.5-2.9-3-3-2.5-3C-2-3-1.6-2.9-1.2-2.7c0.3,0.2,0.5,0.4,0.7,0.7c0.2,0.2,0.3,0.5,0.4,0.8C0-1,0-0.8,0-0.5V0z"/>
		</g>
		<g transform="translate(134.804 -46.956)">
			<path class="st0" d="M0,0c-0.1,0-0.2,0-0.3-0.1c-0.1-0.1-0.1-0.2-0.1-0.3v-4.7h-2.9v4.7c0,0.1,0,0.2-0.1,0.3C-3.4,0-3.5,0-3.6,0
				h-0.5c-0.1,0-0.2,0-0.3-0.1c-0.1-0.1-0.1-0.2-0.1-0.3v-10.3c0-0.1,0-0.2,0.1-0.2c0.1-0.1,0.2-0.1,0.3-0.1h0.5
				c0.1,0,0.2,0,0.3,0.1c0.1,0.1,0.1,0.2,0.1,0.2v4.4h2.9v-4.4c0-0.1,0-0.2,0.1-0.2c0.1-0.1,0.2-0.1,0.3-0.1h0.5
				c0.1,0,0.2,0,0.3,0.1c0.1,0.1,0.1,0.2,0.1,0.2v10.3c0,0.1,0,0.2-0.1,0.3C0.7,0,0.6,0,0.5,0H0z"/>
		</g>
		<g transform="translate(139.588 -56.082)">
			<path class="st0" d="M0,0l0.2,3.3v5.4c0,0.1,0,0.2-0.1,0.3C0.1,9.1,0,9.1-0.1,9.1h-0.5c-0.1,0-0.2,0-0.3-0.1C-1,8.9-1,8.8-1,8.8
				V-1.6c0-0.1,0-0.2,0.1-0.2c0.1-0.1,0.2-0.1,0.3-0.1h0.9c0.1,0,0.2,0,0.2,0.1c0,0.1,0.1,0.2,0.1,0.2l2.9,8.8L3.4,4v-5.6
				c0-0.1,0-0.2,0.1-0.3C3.5-1.9,3.6-2,3.7-1.9h0.5c0.1,0,0.2,0,0.3,0.1c0.1,0.1,0.1,0.2,0.1,0.3V8.8c0,0.1,0,0.2-0.1,0.3
				C4.5,9.1,4.4,9.1,4.3,9.1H3.3c-0.1,0-0.2,0-0.3-0.1C3,8.9,3,8.9,3,8.8L0,0z"/>
		</g>
		<g transform="translate(147.663 -46.956)">
			<path class="st0" d="M0,0c-0.1,0-0.2,0-0.3-0.1c-0.1-0.1-0.1-0.2-0.1-0.3v-10.3c0-0.1,0-0.2,0.1-0.2c0.1-0.1,0.2-0.1,0.3-0.1h0.5
				c0.1,0,0.2,0,0.3,0.1c0.1,0.1,0.1,0.2,0.1,0.2v10.3c0,0.1,0,0.2-0.1,0.3C0.7,0,0.6,0,0.5,0H0z"/>
		</g>
		<g transform="translate(157.165 -47.317)">
			<path class="st0" d="M0,0c0,0.1,0,0.2,0,0.3c0,0.1-0.1,0.1-0.2,0.1H-1c-0.1,0-0.2,0-0.3-0.1C-1.3,0.2-1.3,0.1-1.4,0l-2.1-5.1
				l-0.8,1.3V0c0,0.1,0,0.2-0.1,0.3c-0.1,0.1-0.2,0.1-0.3,0.1h-0.5c-0.1,0-0.2,0-0.3-0.1C-5.5,0.2-5.5,0.1-5.5,0v-10.3
				c0-0.1,0-0.2,0.1-0.2c0.1-0.1,0.2-0.1,0.3-0.1h0.5c0.1,0,0.2,0,0.3,0.1c0.1,0.1,0.1,0.2,0.1,0.2v4.5l2.7-4.6
				c0-0.1,0.1-0.1,0.2-0.2c0.1-0.1,0.2-0.1,0.2-0.1h0.8c0.1,0,0.1,0,0.1,0c0,0,0.1,0.1,0.1,0.1c0,0.1,0,0.1,0,0.2l-2.4,4.1L0,0z"/>
		</g>
		<g transform="translate(164.396 -49.919)">
			<path class="st0" d="M0,0c0,0.2,0,0.5,0.1,0.7c0,0.2,0.1,0.4,0.2,0.6c0.1,0.2,0.3,0.3,0.4,0.4c0.2,0.1,0.5,0.2,0.8,0.2
				c0.3,0,0.5,0,0.8-0.2c0.2-0.1,0.3-0.2,0.4-0.4c0.1-0.2,0.2-0.4,0.2-0.6c0-0.2,0-0.5,0-0.7v-7.7c0-0.1,0-0.2,0.1-0.3
				c0.1-0.1,0.2-0.1,0.3-0.1h0.5c0.1,0,0.2,0,0.3,0.1c0.1,0.1,0.1,0.2,0.1,0.3v8.2c0,0.3,0,0.5-0.1,0.8C4,1.6,3.9,1.9,3.7,2.1
				C3.5,2.4,3.2,2.7,2.9,2.8C2.4,3,1.9,3.1,1.4,3.1C0.9,3.1,0.4,3,0,2.8c-0.3-0.2-0.6-0.4-0.8-0.7C-1,1.9-1.1,1.6-1.2,1.3
				c-0.1-0.2-0.1-0.5-0.1-0.7v-8.4c0-0.1,0-0.2,0.1-0.3C-1.1-8.1-1-8.1-0.9-8.1h0.5c0.1,0,0.2,0,0.3,0.1C0-7.9,0-7.8,0-7.7L0,0z"/>
		</g>
		<g transform="translate(172.25 -56.082)">
			<path class="st0" d="M0,0l0.3,3.3v5.4c0,0.1,0,0.2-0.1,0.3C0.1,9.1,0,9.1-0.1,9.1h-0.5c-0.1,0-0.2,0-0.3-0.1C-1,8.9-1,8.8-1,8.8
				V-1.6c0-0.1,0-0.2,0.1-0.2c0.1-0.1,0.2-0.1,0.3-0.1h0.9c0.1,0,0.2,0,0.2,0.1c0,0.1,0.1,0.2,0.1,0.2l2.9,8.8L3.4,4v-5.6
				c0-0.1,0-0.2,0.1-0.3C3.5-1.9,3.6-2,3.7-1.9h0.5c0.1,0,0.2,0,0.3,0.1c0.1,0.1,0.1,0.2,0.1,0.3V8.8c0,0.1,0,0.2-0.1,0.3
				C4.5,9.1,4.4,9.1,4.3,9.1H3.3c-0.1,0-0.2,0-0.2-0.1C3,8.9,3,8.9,3,8.8L0,0z"/>
		</g>
		<g transform="translate(179.762 -57.666)">
			<path class="st0" d="M0,0c0-0.1,0-0.2,0.1-0.2c0.1-0.1,0.2-0.1,0.3-0.1h2.4c0.5,0,0.9,0.1,1.4,0.3C4.5,0,4.7,0.3,4.9,0.5
				C5.1,0.8,5.2,1,5.3,1.3C5.3,1.6,5.4,1.8,5.4,2c0.1,1,0.2,2.1,0.2,3.1c0,1-0.1,2.1-0.2,3.1c0,0.3-0.1,0.5-0.1,0.8
				C5.3,9.3,5.1,9.6,5,9.8c-0.2,0.3-0.5,0.5-0.8,0.6c-0.5,0.2-1,0.3-1.5,0.3H0.4c-0.1,0-0.2,0-0.3-0.1C0,10.5,0,10.4,0,10.3V0z
				 M1.3,9.5h1.5c0.3,0,0.5,0,0.7-0.1c0.2-0.1,0.3-0.2,0.4-0.4C4,8.7,4.1,8.6,4.1,8.4c0-0.2,0.1-0.4,0.1-0.7C4.3,6.8,4.4,6,4.3,5.1
				c0-0.8-0.1-1.6-0.2-2.5c0-0.2-0.1-0.5-0.1-0.7c0-0.2-0.1-0.4-0.2-0.6C3.8,1.3,3.6,1.1,3.5,1C3.2,0.9,3,0.9,2.7,0.9H1.3V9.5z"/>
		</g>
		<g transform="translate(192.84 -56.082)">
			<path class="st0" d="M0,0l0.3,3.3v5.4c0,0.1,0,0.2-0.1,0.3C0.1,9.1,0,9.1-0.1,9.1h-0.5c-0.1,0-0.2,0-0.3-0.1C-1,8.9-1,8.8-1,8.8
				V-1.6c0-0.1,0-0.2,0.1-0.2c0.1-0.1,0.2-0.1,0.3-0.1h0.9c0.1,0,0.2,0,0.2,0.1c0,0.1,0.1,0.2,0.1,0.2l2.9,8.8L3.4,4v-5.6
				c0-0.1,0-0.2,0.1-0.3C3.5-1.9,3.6-2,3.7-1.9h0.5c0.1,0,0.2,0,0.3,0.1c0.1,0.1,0.1,0.2,0.1,0.3V8.8c0,0.1,0,0.2-0.1,0.3
				C4.5,9.1,4.4,9.1,4.3,9.1H3.3c-0.1,0-0.2,0-0.3-0.1C3,8.9,3,8.9,3,8.8L0,0z"/>
		</g>
		<g transform="translate(202.859 -58.027)">
			<path class="st0" d="M0,0c0.2,0,0.3,0.1,0.4,0.4l2.1,10.3c0,0.1,0,0.2,0,0.3c-0.1,0.1-0.2,0.1-0.3,0.1H1.5
				c-0.2,0-0.3-0.1-0.4-0.4L0.8,8.9h-2.1l-0.4,1.8c0,0.2-0.2,0.4-0.4,0.4h-0.6c-0.1,0-0.2,0-0.3-0.1c-0.1-0.1-0.1-0.2,0-0.3L-1,0.4
				c0-0.1,0.1-0.2,0.1-0.3C-0.8,0-0.7,0-0.6,0H0z M0.5,7.6l-0.6-3.9l-0.2-2.1h-0.1l-0.2,2.1l-0.6,3.9L0.5,7.6z"/>
		</g>
		<g transform="translate(211.735 -57.132)">
			<path class="st0" d="M0,0c0,0.1,0,0.2-0.1,0.3c-0.1,0.1-0.2,0.1-0.3,0.1h-1.8v9.4c0,0.1,0,0.2-0.1,0.3c-0.1,0.1-0.2,0.1-0.3,0.1
				H-3c-0.1,0-0.2,0-0.3-0.1C-3.4,10-3.4,9.9-3.4,9.8V0.4h-1.8c-0.1,0-0.2,0-0.2-0.1C-5.5,0.2-5.6,0.1-5.6,0v-0.5
				c0-0.1,0-0.2,0.1-0.3c0.1-0.1,0.2-0.1,0.2-0.1h4.8c0.1,0,0.2,0,0.3,0.1C0-0.7,0-0.6,0-0.5V0z"/>
		</g>
		<g transform="translate(214.792 -49.919)">
			<path class="st0" d="M0,0c0,0.2,0,0.5,0.1,0.7c0,0.2,0.1,0.4,0.2,0.6c0.1,0.2,0.3,0.3,0.4,0.4c0.2,0.1,0.5,0.2,0.8,0.2
				c0.3,0,0.5,0,0.8-0.2c0.2-0.1,0.3-0.2,0.4-0.4c0.1-0.2,0.2-0.4,0.2-0.6c0-0.2,0-0.5,0-0.7v-7.7c0-0.1,0-0.2,0.1-0.3
				c0.1-0.1,0.2-0.1,0.3-0.1h0.5c0.1,0,0.2,0,0.3,0.1c0.1,0.1,0.1,0.2,0.1,0.3v8.2c0,0.3,0,0.5-0.1,0.8C4,1.6,3.9,1.9,3.7,2.1
				C3.5,2.4,3.2,2.7,2.9,2.8C2.4,3,1.9,3.1,1.4,3.1C0.9,3.1,0.4,3,0,2.8c-0.3-0.2-0.6-0.4-0.8-0.7C-1,1.9-1.1,1.6-1.2,1.3
				c-0.1-0.2-0.1-0.5-0.1-0.7v-8.4c0-0.1,0-0.2,0.1-0.3C-1.1-8.1-1-8.1-0.9-8.1h0.5c0.1,0,0.2,0,0.3,0.1C0-7.9,0-7.8,0-7.7L0,0z"/>
		</g>
		<g transform="translate(227.117 -47.317)">
			<path class="st0" d="M0,0c0,0.1,0,0.2,0,0.2c-0.1,0.1-0.2,0.1-0.3,0.1h-0.6c-0.1,0-0.2,0-0.2-0.1C-1.3,0.2-1.3,0.1-1.3,0
				l-1.5-4.8l-1.4,0V0c0,0.1,0,0.2-0.1,0.2c-0.1,0.1-0.2,0.1-0.3,0.1h-0.5c-0.1,0-0.2,0-0.3-0.1C-5.4,0.2-5.5,0.1-5.5,0v-10.3
				c0-0.1,0-0.2,0.1-0.3c0.1-0.1,0.2-0.1,0.2-0.1h1.9c0.5,0,1,0,1.6,0.2c0.4,0.1,0.8,0.3,1,0.7c0.2,0.3,0.3,0.6,0.4,0.9
				c0.1,0.4,0.1,0.8,0.1,1.2c0,0.6-0.1,1.2-0.3,1.7c-0.2,0.4-0.6,0.8-1.1,0.9L0,0z M-4.2-6.1h1c0.2,0,0.5,0,0.7,0
				c0.2,0,0.4-0.1,0.5-0.2c0.1-0.1,0.2-0.1,0.2-0.2c0.1-0.1,0.1-0.2,0.2-0.3c0-0.1,0.1-0.2,0.1-0.4c0-0.2,0-0.4,0-0.5
				c0-0.3,0-0.7-0.1-1c-0.1-0.2-0.2-0.4-0.4-0.5c-0.1,0-0.2-0.1-0.2-0.1c-0.1,0-0.2,0-0.4-0.1c-0.2,0-0.4,0-0.6,0h-1V-6.1z"/>
		</g>
		<g transform="translate(232.245 -52.366)">
			<path class="st0" d="M0,0l-0.2,1.5l-1,3.6c-0.1,0.2-0.2,0.4-0.3,0.4h-0.5c-0.1,0-0.2,0-0.3-0.1C-2.4,5.2-2.5,5.1-2.5,5l-1-10.3
				c0-0.1,0-0.2,0.1-0.3c0.1-0.1,0.2-0.1,0.3-0.1h0.5c0.1,0,0.2,0,0.3,0.1c0.1,0.1,0.1,0.2,0.1,0.3l0.4,4.4L-1.6,3h0.1l1-4.6
				c0-0.1,0-0.2,0.1-0.3C-0.4-1.9-0.3-2-0.2-2h0.5c0.1,0,0.2,0,0.3,0.1c0.1,0.1,0.1,0.2,0.1,0.3l1,4.6h0.1l0.2-3.9l0.4-4.4
				c0-0.1,0-0.2,0.1-0.3c0.1-0.1,0.2-0.1,0.3-0.1h0.5c0.1,0,0.2,0,0.3,0.1c0.1,0.1,0.1,0.2,0.1,0.3L2.5,5c0,0.1,0,0.2-0.1,0.3
				C2.4,5.4,2.3,5.4,2.2,5.4H1.6C1.4,5.4,1.3,5.3,1.3,5l-1-3.6L0,0L0,0z"/>
		</g>
		<g transform="translate(238.72 -46.956)">
			<path class="st0" d="M0,0c-0.1,0-0.2,0-0.3-0.1c-0.1-0.1-0.1-0.2-0.1-0.3v-10.3c0-0.1,0-0.2,0.1-0.2c0.1-0.1,0.2-0.1,0.3-0.1h0.5
				c0.1,0,0.2,0,0.3,0.1c0.1,0.1,0.1,0.2,0.1,0.2v10.3c0,0.1,0,0.2-0.1,0.3C0.7,0,0.6,0,0.5,0H0z"/>
		</g>
		<g transform="translate(247.643 -50.014)">
			<path class="st0" d="M0,0c0.1,0.9-0.2,1.7-0.7,2.4C-1.3,3-2,3.3-2.8,3.2c-0.5,0-0.9-0.1-1.4-0.3C-4.5,2.8-4.8,2.5-5,2.2
				c-0.2-0.3-0.4-0.7-0.4-1.1c-0.1-0.4-0.1-0.8-0.1-1.3v-0.2c0-0.1,0-0.2,0.1-0.3c0.1-0.1,0.2-0.1,0.3-0.1h0.5c0.1,0,0.2,0,0.2,0.1
				c0.1,0.1,0.1,0.2,0.1,0.3v0.2c0,0.3,0,0.7,0.1,1C-4.2,1.1-4,1.3-3.9,1.5c0.1,0.2,0.3,0.3,0.5,0.3C-3.2,1.9-3,2-2.8,2
				C-2.4,2-2,1.8-1.7,1.5c0.3-0.4,0.5-0.9,0.4-1.5c0-0.4-0.1-0.7-0.3-1C-1.8-1.2-2-1.5-2.3-1.7c-0.3-0.2-0.7-0.5-1-0.7
				c-0.4-0.2-0.7-0.5-1-0.8c-0.3-0.3-0.6-0.6-0.8-1c-0.2-0.4-0.3-0.9-0.3-1.4c0-0.3,0.1-0.7,0.2-1C-5.2-6.9-5-7.1-4.8-7.4
				C-4.6-7.6-4.3-7.8-4-8c0.4-0.1,0.7-0.2,1.1-0.2c0.4,0,0.8,0.1,1.1,0.2c0.3,0.1,0.6,0.3,0.8,0.6c0.2,0.2,0.4,0.5,0.5,0.8
				C-0.3-6.3-0.3-6-0.3-5.7v0.1c0,0.1,0,0.2-0.1,0.3c-0.1,0.1-0.2,0.1-0.3,0.1h-0.5c-0.1,0-0.2,0-0.3-0.1c-0.1-0.1-0.1-0.2-0.1-0.2
				v0c0-0.4-0.1-0.7-0.4-1c-0.2-0.3-0.6-0.4-0.9-0.4c-0.2,0-0.4,0-0.6,0.1c-0.2,0.1-0.3,0.2-0.4,0.3C-4-6.4-4.1-6.2-4.1-6.1
				c0,0.2-0.1,0.3-0.1,0.5c0,0.4,0.1,0.7,0.3,1C-3.6-4.3-3.4-4-3.1-3.8c0.3,0.3,0.6,0.5,1,0.7c0.4,0.2,0.7,0.5,1,0.8
				c0.3,0.3,0.6,0.6,0.8,1C-0.1-0.9,0-0.5,0,0"/>
		</g>
		<g transform="translate(254.808 -50.014)">
			<path class="st0" d="M0,0c0.1,0.9-0.2,1.7-0.7,2.4C-1.3,3-2,3.3-2.8,3.2c-0.5,0-0.9-0.1-1.4-0.3C-4.5,2.8-4.8,2.5-5,2.2
				c-0.2-0.3-0.4-0.7-0.4-1.1c-0.1-0.4-0.1-0.8-0.1-1.3v-0.2c0-0.1,0-0.2,0.1-0.3c0.1-0.1,0.2-0.1,0.3-0.1h0.5c0.1,0,0.2,0,0.3,0.1
				c0.1,0.1,0.1,0.2,0.1,0.3v0.2c0,0.3,0,0.7,0.1,1C-4.2,1.1-4,1.3-3.9,1.5c0.1,0.2,0.3,0.3,0.5,0.3C-3.2,1.9-3,2-2.8,2
				C-2.4,2-2,1.8-1.7,1.5c0.3-0.4,0.5-0.9,0.4-1.5c0-0.4-0.1-0.7-0.3-1C-1.8-1.2-2-1.5-2.3-1.7c-0.3-0.2-0.6-0.5-1-0.7
				c-0.4-0.2-0.7-0.5-1-0.8c-0.3-0.3-0.6-0.6-0.8-1c-0.2-0.4-0.3-0.9-0.3-1.4c0-0.3,0.1-0.7,0.2-1C-5.1-6.9-5-7.1-4.8-7.4
				C-4.5-7.6-4.3-7.8-4-8c0.4-0.1,0.7-0.2,1.1-0.2c0.4,0,0.8,0.1,1.1,0.2c0.3,0.1,0.6,0.3,0.8,0.6c0.2,0.2,0.4,0.5,0.5,0.8
				C-0.3-6.3-0.3-6-0.3-5.7v0.1c0,0.1,0,0.2-0.1,0.3c-0.1,0.1-0.2,0.1-0.3,0.1h-0.5c-0.1,0-0.2,0-0.3-0.1c-0.1-0.1-0.1-0.2-0.1-0.2
				v0c0-0.4-0.1-0.7-0.4-1c-0.2-0.3-0.6-0.4-0.9-0.4c-0.2,0-0.4,0-0.6,0.1c-0.2,0.1-0.3,0.2-0.4,0.3C-4-6.4-4.1-6.2-4.1-6.1
				c0,0.2-0.1,0.3-0.1,0.5c0,0.4,0.1,0.7,0.3,1C-3.6-4.3-3.4-4-3.1-3.8c0.3,0.3,0.6,0.5,1,0.7c0.4,0.2,0.7,0.5,1,0.8
				c0.3,0.3,0.6,0.6,0.8,1C-0.1-0.9,0-0.5,0,0"/>
		</g>
		<g transform="translate(261.896 -47.317)">
			<path class="st0" d="M0,0c0,0.1,0,0.2-0.1,0.3c-0.1,0.1-0.2,0.1-0.3,0.1h-4.1c-0.1,0-0.2,0-0.3-0.1C-4.8,0.2-4.9,0.1-4.9,0v-10.3
				c0-0.1,0-0.2,0.1-0.2c0.1-0.1,0.2-0.1,0.3-0.1h4c0.1,0,0.2,0,0.3,0.1c0.1,0.1,0.1,0.2,0.1,0.3v0.5c0,0.1,0,0.2-0.1,0.3
				c-0.1,0.1-0.2,0.1-0.3,0.1h-3.1V-6h2.7c0.1,0,0.2,0,0.3,0.1c0.1,0.1,0.1,0.2,0.1,0.3v0.5c0,0.1,0,0.2-0.1,0.3
				c-0.1,0.1-0.2,0.1-0.3,0.1h-2.7v3.8h3.2c0.1,0,0.2,0,0.3,0.1C0-0.7,0-0.6,0-0.5V0z"/>
		</g>
		<g transform="translate(265.126 -56.082)">
			<path class="st0" d="M0,0l0.2,3.3v5.4c0,0.1,0,0.2-0.1,0.3C0.1,9.1,0,9.1-0.1,9.1h-0.5c-0.1,0-0.2,0-0.3-0.1C-1,8.9-1,8.8-1,8.8
				V-1.6c0-0.1,0-0.2,0.1-0.2c0.1-0.1,0.2-0.1,0.3-0.1h0.9c0.1,0,0.2,0,0.2,0.1c0,0.1,0.1,0.2,0.1,0.2l2.9,8.8L3.4,4v-5.6
				c0-0.1,0-0.2,0.1-0.3C3.5-1.9,3.6-2,3.7-1.9h0.5c0.1,0,0.2,0,0.3,0.1c0.1,0.1,0.1,0.2,0.1,0.3V8.8c0,0.1,0,0.2-0.1,0.3
				C4.5,9.1,4.4,9.1,4.3,9.1H3.3c-0.1,0-0.2,0-0.3-0.1C3,8.9,3,8.9,3,8.8L0,0z"/>
		</g>
		<g transform="translate(277.575 -50.014)">
			<path class="st0" d="M0,0c0.1,0.9-0.2,1.7-0.7,2.4C-1.3,3-2,3.3-2.8,3.2c-0.5,0-0.9-0.1-1.4-0.3C-4.5,2.8-4.8,2.5-5,2.2
				c-0.2-0.3-0.4-0.7-0.4-1.1c-0.1-0.4-0.1-0.8-0.1-1.3v-0.2c0-0.1,0-0.2,0.1-0.3c0.1-0.1,0.2-0.1,0.3-0.1h0.5c0.1,0,0.2,0,0.3,0.1
				c0.1,0.1,0.1,0.2,0.1,0.3v0.2c0,0.3,0,0.7,0.1,1C-4.2,1.1-4,1.3-3.9,1.5c0.1,0.2,0.3,0.3,0.5,0.3C-3.2,1.9-3,2-2.8,2
				C-2.4,2-2,1.8-1.7,1.5c0.3-0.4,0.5-0.9,0.4-1.5c0-0.4-0.1-0.7-0.3-1C-1.8-1.2-2-1.5-2.3-1.7c-0.3-0.2-0.6-0.5-1-0.7
				c-0.4-0.2-0.7-0.5-1-0.8c-0.3-0.3-0.6-0.6-0.8-1c-0.2-0.4-0.3-0.9-0.3-1.4c0-0.3,0.1-0.7,0.2-1C-5.1-6.9-5-7.1-4.8-7.4
				C-4.5-7.6-4.3-7.8-4-8c0.4-0.1,0.7-0.2,1.1-0.2c0.4,0,0.8,0.1,1.1,0.2c0.3,0.1,0.6,0.3,0.8,0.6c0.2,0.2,0.4,0.5,0.5,0.8
				C-0.3-6.3-0.3-6-0.3-5.7v0.1c0,0.1,0,0.2-0.1,0.3c-0.1,0.1-0.2,0.1-0.3,0.1h-0.5c-0.1,0-0.2,0-0.3-0.1c-0.1-0.1-0.1-0.2-0.1-0.2
				v0c0-0.4-0.1-0.7-0.4-1c-0.2-0.3-0.6-0.4-0.9-0.4c-0.2,0-0.4,0-0.6,0.1c-0.2,0.1-0.3,0.2-0.4,0.3C-4-6.4-4.1-6.2-4.1-6.1
				c0,0.2-0.1,0.3-0.1,0.5c0,0.4,0.1,0.7,0.3,1C-3.6-4.3-3.4-4-3.1-3.8c0.3,0.3,0.6,0.5,1,0.7c0.4,0.2,0.7,0.5,1,0.8
				c0.3,0.3,0.6,0.6,0.8,1C-0.1-0.9,0-0.5,0,0"/>
		</g>
		<g transform="translate(284.803 -55.172)">
			<path class="st0" d="M0,0c0,0.1,0,0.2-0.1,0.3c-0.1,0.1-0.2,0.1-0.3,0.1h-0.5c-0.1,0-0.2,0-0.3-0.1C-1.2,0.2-1.3,0.1-1.3,0v-0.2
				c0-0.2,0-0.4-0.1-0.6c0-0.2-0.1-0.3-0.2-0.5c-0.1-0.1-0.2-0.3-0.4-0.4c-0.2-0.1-0.4-0.1-0.6-0.1c-0.3,0-0.5,0-0.7,0.2
				c-0.2,0.1-0.3,0.2-0.4,0.4C-3.8-1-3.9-0.8-3.9-0.6C-3.9-0.4-4-0.1-4,0.1C-4,0.6-4,1-4,1.4s0,0.8,0,1.2s0,0.8,0,1.2S-4,4.7-4,5.1
				c0,0.2,0,0.5,0.1,0.7c0,0.2,0.1,0.4,0.2,0.6c0.1,0.2,0.3,0.3,0.4,0.5C-3,7.1-2.8,7.1-2.5,7.1c0.2,0,0.5,0,0.7-0.2
				c0.2-0.1,0.3-0.2,0.4-0.4c0.1-0.2,0.2-0.4,0.2-0.6c0-0.2,0.1-0.5,0.1-0.7V4.7c0-0.1,0-0.2,0.1-0.3C-1,4.3-0.9,4.3-0.8,4.3h0.5
				c0.1,0,0.2,0,0.3,0.1c0.1,0.1,0.1,0.2,0.1,0.3v1.1c0,0.3,0,0.5-0.1,0.8c-0.1,0.3-0.2,0.6-0.4,0.9c-0.2,0.3-0.5,0.5-0.8,0.7
				c-0.4,0.2-0.9,0.3-1.4,0.3c-0.5,0-0.9-0.1-1.4-0.3c-0.3-0.2-0.6-0.4-0.8-0.7c-0.2-0.3-0.3-0.6-0.4-0.9C-5.2,6.2-5.2,6-5.2,5.7
				c0-0.5-0.1-1-0.1-1.5s0-1,0-1.5c0-0.5,0-1,0-1.5s0-1,0.1-1.5c0-0.3,0-0.5,0.1-0.8C-5.1-1.4-5-1.7-4.8-2c0.2-0.3,0.5-0.5,0.8-0.7
				C-3.5-2.9-3-3-2.4-3C-2-3-1.6-2.9-1.2-2.7c0.3,0.2,0.5,0.4,0.7,0.7c0.2,0.2,0.3,0.5,0.4,0.8C0-1,0-0.8,0-0.5V0z"/>
		</g>
		<g transform="translate(291.641 -46.956)">
			<path class="st0" d="M0,0c-0.1,0-0.2,0-0.3-0.1c-0.1-0.1-0.1-0.2-0.1-0.3v-4.7h-2.9v4.7c0,0.1,0,0.2-0.1,0.3C-3.4,0-3.5,0-3.6,0
				h-0.5c-0.1,0-0.2,0-0.3-0.1c-0.1-0.1-0.1-0.2-0.1-0.3v-10.3c0-0.1,0-0.2,0.1-0.2c0.1-0.1,0.2-0.1,0.3-0.1h0.5
				c0.1,0,0.2,0,0.3,0.1c0.1,0.1,0.1,0.2,0.1,0.2v4.4h2.9v-4.4c0-0.1,0-0.2,0.1-0.2c0.1-0.1,0.2-0.1,0.3-0.1h0.5
				c0.1,0,0.2,0,0.3,0.1c0.1,0.1,0.1,0.2,0.1,0.2v10.3c0,0.1,0,0.2-0.1,0.3C0.7,0,0.6,0,0.5,0H0z"/>
		</g>
		<g transform="translate(297.928 -58.027)">
			<path class="st0" d="M0,0c0.2,0,0.3,0.1,0.4,0.4l2.1,10.3c0,0.1,0,0.2,0,0.3c-0.1,0.1-0.2,0.1-0.3,0.1H1.5
				c-0.2,0-0.3-0.1-0.4-0.4L0.8,8.9h-2.1l-0.4,1.8c0,0.2-0.2,0.4-0.4,0.4h-0.6c-0.1,0-0.2,0-0.3-0.1c-0.1-0.1-0.1-0.2,0-0.3L-1,0.4
				c0-0.1,0.1-0.2,0.1-0.3C-0.8,0-0.7,0-0.6,0H0z M0.5,7.6l-0.6-3.9l-0.2-2.1h-0.1l-0.2,2.1l-0.6,3.9L0.5,7.6z"/>
		</g>
		<g transform="translate(307.008 -52.413)">
			<path class="st0" d="M0,0c0,0.1,0,0.2-0.1,0.3c-0.1,0.1-0.2,0.1-0.3,0.1h-2.7v4.7c0,0.1,0,0.2-0.1,0.3c-0.1,0.1-0.2,0.1-0.3,0.1
				H-4c-0.1,0-0.2,0-0.3-0.1c-0.1-0.1-0.1-0.2-0.1-0.3V-5.3c0-0.1,0-0.2,0.1-0.2C-4.1-5.6-4.1-5.6-4-5.6h4c0.1,0,0.2,0,0.3,0.1
				c0.1,0.1,0.1,0.2,0.1,0.3v0.5c0,0.1,0,0.2-0.1,0.3C0.2-4.4,0.2-4.4,0.1-4.4h-3.1v3.5h2.7c0.1,0,0.2,0,0.3,0.1C0-0.7,0-0.6,0-0.5
				V0z"/>
		</g>
		<g transform="translate(314.189 -57.132)">
			<path class="st0" d="M0,0c0,0.1,0,0.2-0.1,0.3c-0.1,0.1-0.2,0.1-0.3,0.1h-1.8v9.4c0,0.1,0,0.2-0.1,0.3c-0.1,0.1-0.2,0.1-0.3,0.1
				H-3c-0.1,0-0.2,0-0.3-0.1C-3.4,10-3.4,9.9-3.4,9.8V0.4h-1.8c-0.1,0-0.2,0-0.2-0.1C-5.5,0.2-5.6,0.1-5.6,0v-0.5
				c0-0.1,0-0.2,0.1-0.3c0.1-0.1,0.2-0.1,0.2-0.1h4.8c0.1,0,0.2,0,0.3,0.1C0-0.7,0-0.6,0-0.5V0z"/>
		</g>
		<g transform="translate(321.04 -47.317)">
			<path class="st0" d="M0,0c0,0.1,0,0.2-0.1,0.3c-0.1,0.1-0.2,0.1-0.3,0.1h-4.1c-0.1,0-0.2,0-0.3-0.1C-4.8,0.2-4.9,0.1-4.9,0v-10.3
				c0-0.1,0-0.2,0.1-0.2c0.1-0.1,0.2-0.1,0.3-0.1h4c0.1,0,0.2,0,0.3,0.1c0.1,0.1,0.1,0.2,0.1,0.3v0.5c0,0.1,0,0.2-0.1,0.3
				c-0.1,0.1-0.2,0.1-0.3,0.1h-3.1V-6h2.7c0.1,0,0.2,0,0.3,0.1c0.1,0.1,0.1,0.2,0.1,0.3v0.5c0,0.1,0,0.2-0.1,0.3
				c-0.1,0.1-0.2,0.1-0.3,0.1h-2.7v3.8h3.2c0.1,0,0.2,0,0.3,0.1C0-0.7,0-0.6,0-0.5V0z"/>
		</g>
		<g transform="translate(324.271 -56.082)">
			<path class="st0" d="M0,0l0.2,3.3v5.4c0,0.1,0,0.2-0.1,0.3C0.1,9.1,0,9.1-0.1,9.1h-0.5c-0.1,0-0.2,0-0.3-0.1C-1,8.9-1,8.8-1,8.8
				V-1.6c0-0.1,0-0.2,0.1-0.2c0.1-0.1,0.2-0.1,0.3-0.1h0.9c0.1,0,0.2,0,0.2,0.1c0,0.1,0.1,0.2,0.1,0.2l2.9,8.8L3.4,4v-5.6
				c0-0.1,0-0.2,0.1-0.3C3.5-1.9,3.6-2,3.7-1.9h0.5c0.1,0,0.2,0,0.3,0.1c0.1,0.1,0.1,0.2,0.1,0.3V8.8c0,0.1,0,0.2-0.1,0.3
				C4.5,9.1,4.4,9.1,4.3,9.1H3.3c-0.1,0-0.2,0-0.3-0.1C3,8.9,3,8.9,3,8.8L0,0z"/>
		</g>
		<g transform="translate(110.282 -31.103)">
			<path class="st0" d="M0,0c0,0.2,0,0.5,0.1,0.7c0,0.2,0.1,0.4,0.2,0.6c0.1,0.2,0.3,0.3,0.4,0.4c0.2,0.1,0.5,0.2,0.8,0.2
				c0.3,0,0.5,0,0.8-0.2c0.2-0.1,0.3-0.2,0.4-0.4c0.1-0.2,0.2-0.4,0.2-0.6c0-0.2,0-0.5,0-0.7v-7.7c0-0.1,0-0.2,0.1-0.3
				c0.1-0.1,0.2-0.1,0.3-0.1h0.5c0.1,0,0.2,0,0.3,0.1c0.1,0.1,0.1,0.2,0.1,0.3v8.2c0,0.3,0,0.5-0.1,0.8C4,1.6,3.9,1.9,3.7,2.1
				C3.5,2.4,3.2,2.7,2.9,2.8C2.4,3,1.9,3.1,1.4,3.1C0.9,3.1,0.4,3,0,2.8c-0.3-0.2-0.6-0.4-0.8-0.7C-1,1.9-1.1,1.6-1.2,1.3
				c-0.1-0.2-0.1-0.5-0.1-0.7v-8.4c0-0.1,0-0.2,0.1-0.3C-1.1-8.1-1-8.1-0.9-8.1h0.5c0.1,0,0.2,0,0.3,0.1C0-7.9,0-7.8,0-7.7L0,0z"/>
		</g>
		<g transform="translate(118.138 -37.266)">
			<path class="st0" d="M0,0l0.3,3.3v5.4c0,0.1,0,0.2-0.1,0.3C0.1,9.1,0,9.1-0.1,9.1h-0.5c-0.1,0-0.2,0-0.3-0.1C-1,8.9-1,8.8-1,8.8
				V-1.6c0-0.1,0-0.2,0.1-0.3c0.1-0.1,0.2-0.1,0.3-0.1h0.9c0.1,0,0.2,0,0.2,0.1c0,0.1,0.1,0.2,0.1,0.2l2.9,8.8L3.4,4v-5.6
				c0-0.1,0-0.2,0.1-0.3C3.5-1.9,3.6-2,3.7-1.9h0.5c0.1,0,0.2,0,0.3,0.1c0.1,0.1,0.1,0.2,0.1,0.3V8.8c0,0.1,0,0.2-0.1,0.3
				C4.5,9.1,4.4,9.1,4.3,9.1H3.3c-0.1,0-0.2,0-0.3-0.1C3,8.9,3,8.9,3,8.8L0,0z"/>
		</g>
		<g transform="translate(126.213 -28.14)">
			<path class="st0" d="M0,0c-0.1,0-0.2,0-0.3-0.1c-0.1-0.1-0.1-0.2-0.1-0.3v-10.3c0-0.1,0-0.2,0.1-0.2c0.1-0.1,0.2-0.1,0.3-0.1h0.5
				c0.1,0,0.2,0,0.3,0.1c0.1,0.1,0.1,0.2,0.1,0.2v10.3c0,0.1,0,0.2-0.1,0.3C0.7,0,0.6,0,0.5,0H0z"/>
		</g>
		<g transform="translate(131.656 -28.14)">
			<path class="st0" d="M0,0c-0.2,0-0.3-0.1-0.4-0.4l-2.1-10.3c0-0.1,0-0.2,0-0.3c0.1-0.1,0.2-0.1,0.2-0.1h0.6
				c0.2,0,0.3,0.1,0.4,0.4l0.7,3.4l0.8,5l0.8-5l0.7-3.4c0-0.2,0.2-0.4,0.4-0.4h0.6C2.9-11.1,3-11,3-11c0.1,0.1,0.1,0.2,0,0.3L1-0.4
				C0.9-0.1,0.8,0,0.6,0H0z"/>
		</g>
		<g transform="translate(141.83 -28.501)">
			<path class="st0" d="M0,0c0,0.1,0,0.2-0.1,0.3c-0.1,0.1-0.2,0.1-0.3,0.1h-4.1c-0.1,0-0.2,0-0.3-0.1C-4.8,0.2-4.9,0.1-4.9,0v-10.3
				c0-0.1,0-0.2,0.1-0.2c0.1-0.1,0.2-0.1,0.3-0.1h4c0.1,0,0.2,0,0.3,0.1c0.1,0.1,0.1,0.2,0.1,0.3v0.5c0,0.1,0,0.2-0.1,0.3
				c-0.1,0.1-0.2,0.1-0.3,0.1h-3.1V-6h2.7c0.1,0,0.2,0,0.3,0.1c0.1,0.1,0.1,0.2,0.1,0.3v0.5c0,0.1,0,0.2-0.1,0.3
				c-0.1,0.1-0.2,0.1-0.3,0.1h-2.7v3.8h3.2c0.1,0,0.2,0,0.3,0.1C0-0.7,0-0.6,0-0.5V0z"/>
		</g>
		<g transform="translate(149.529 -28.501)">
			<path class="st0" d="M0,0c0,0.1,0,0.2,0,0.2c-0.1,0.1-0.2,0.1-0.3,0.1h-0.6c-0.1,0-0.2,0-0.3-0.1C-1.3,0.2-1.3,0.1-1.3,0
				l-1.5-4.8l-1.4,0V0c0,0.1,0,0.2-0.1,0.2c-0.1,0.1-0.2,0.1-0.3,0.1h-0.5c-0.1,0-0.2,0-0.3-0.1C-5.4,0.2-5.5,0.1-5.5,0v-10.3
				c0-0.1,0-0.2,0.1-0.3c0.1-0.1,0.2-0.1,0.2-0.1h1.9c0.5,0,1,0,1.6,0.2c0.4,0.1,0.8,0.3,1,0.7c0.2,0.3,0.3,0.6,0.4,0.9
				c0.1,0.4,0.1,0.8,0.1,1.2c0,0.6-0.1,1.2-0.3,1.7c-0.2,0.4-0.6,0.8-1.1,0.9L0,0z M-4.2-6.1h1c0.2,0,0.5,0,0.7,0
				c0.2,0,0.4-0.1,0.5-0.2c0.1-0.1,0.2-0.1,0.2-0.2c0.1-0.1,0.1-0.2,0.2-0.3c0-0.1,0.1-0.2,0.1-0.4c0-0.2,0-0.4,0-0.5
				c0-0.3,0-0.7-0.1-1C-1.6-9-1.8-9.1-1.9-9.3c-0.1,0-0.2-0.1-0.2-0.1c-0.1,0-0.2,0-0.4-0.1c-0.2,0-0.4,0-0.6,0h-1V-6.1z"/>
		</g>
		<g transform="translate(156.821 -31.198)">
			<path class="st0" d="M0,0c0.1,0.9-0.2,1.7-0.7,2.4C-1.3,3-2,3.3-2.8,3.2c-0.5,0-0.9-0.1-1.4-0.3C-4.5,2.8-4.8,2.5-5,2.2
				c-0.2-0.3-0.4-0.7-0.4-1.1c-0.1-0.4-0.1-0.8-0.1-1.3v-0.2c0-0.1,0-0.2,0.1-0.3c0.1-0.1,0.2-0.1,0.3-0.1h0.5c0.1,0,0.2,0,0.2,0.1
				c0.1,0.1,0.1,0.2,0.1,0.3v0.2c0,0.3,0,0.7,0.1,1C-4.2,1.1-4,1.3-3.9,1.5c0.1,0.2,0.3,0.3,0.5,0.3C-3.2,1.9-3,2-2.8,2
				C-2.4,2-2,1.8-1.7,1.5c0.3-0.4,0.5-0.9,0.4-1.5c0-0.4-0.1-0.7-0.3-1C-1.8-1.2-2-1.5-2.3-1.7c-0.3-0.2-0.6-0.5-1-0.7
				c-0.4-0.2-0.7-0.5-1-0.8c-0.3-0.3-0.6-0.6-0.8-1c-0.2-0.4-0.3-0.9-0.3-1.4c0-0.3,0.1-0.7,0.2-1C-5.2-6.9-5-7.1-4.8-7.4
				C-4.6-7.6-4.3-7.8-4-8c0.4-0.1,0.7-0.2,1.1-0.2c0.4,0,0.8,0.1,1.1,0.2c0.3,0.1,0.6,0.3,0.8,0.6c0.2,0.2,0.4,0.5,0.5,0.8
				C-0.3-6.3-0.3-6-0.3-5.7v0.1c0,0.1,0,0.2-0.1,0.3c-0.1,0.1-0.2,0.1-0.3,0.1h-0.5c-0.1,0-0.2,0-0.3-0.1c-0.1-0.1-0.1-0.2-0.1-0.2
				v0c0-0.4-0.1-0.7-0.4-1c-0.2-0.3-0.6-0.4-0.9-0.4c-0.2,0-0.4,0-0.6,0.1c-0.2,0.1-0.3,0.2-0.4,0.3C-4-6.4-4.1-6.2-4.1-6.1
				c0,0.2-0.1,0.3-0.1,0.5c0,0.4,0.1,0.7,0.3,1C-3.6-4.3-3.4-4-3.1-3.8c0.3,0.3,0.6,0.5,1,0.7c0.4,0.2,0.7,0.5,1,0.8
				c0.3,0.3,0.6,0.6,0.8,1C-0.1-0.9,0-0.5,0,0"/>
		</g>
		<g transform="translate(159.611 -28.14)">
			<path class="st0" d="M0,0c-0.1,0-0.2,0-0.3-0.1c-0.1-0.1-0.1-0.2-0.1-0.3v-10.3c0-0.1,0-0.2,0.1-0.2c0.1-0.1,0.2-0.1,0.3-0.1h0.5
				c0.1,0,0.2,0,0.3,0.1c0.1,0.1,0.1,0.2,0.1,0.2v10.3c0,0.1,0,0.2-0.1,0.3C0.7,0,0.6,0,0.5,0H0z"/>
		</g>
		<g transform="translate(168.268 -38.316)">
			<path class="st0" d="M0,0c0,0.1,0,0.2-0.1,0.3c-0.1,0.1-0.2,0.1-0.3,0.1h-1.8v9.4c0,0.1,0,0.2-0.1,0.3c-0.1,0.1-0.2,0.1-0.3,0.1
				H-3c-0.1,0-0.2,0-0.3-0.1C-3.4,10-3.4,9.9-3.4,9.8V0.4h-1.8c-0.1,0-0.2,0-0.2-0.1C-5.5,0.2-5.6,0.1-5.6,0v-0.5
				c0-0.1,0-0.2,0.1-0.3c0.1-0.1,0.2-0.1,0.2-0.1h4.8c0.1,0,0.2,0,0.3,0.1C0-0.7,0-0.6,0-0.5V0z"/>
		</g>
		<g transform="translate(172.202 -39.21)">
			<path class="st0" d="M0,0c0.2,0,0.3,0.1,0.4,0.4l2.1,10.3c0,0.1,0,0.2,0,0.3c-0.1,0.1-0.2,0.1-0.3,0.1H1.5
				c-0.2,0-0.3-0.1-0.4-0.4L0.8,8.9h-2.1l-0.4,1.8c0,0.2-0.2,0.4-0.4,0.4h-0.6c-0.1,0-0.2,0-0.3-0.1c-0.1-0.1-0.1-0.2,0-0.3L-1,0.4
				c0-0.1,0.1-0.2,0.1-0.3C-0.8,0-0.7,0-0.6,0H0z M-2.6-1.4c0-0.2,0.1-0.4,0.2-0.6C-2.2-2.1-2-2.2-1.8-2.2c0.2,0,0.4,0.1,0.6,0.2
				C-1-1.8-0.9-1.6-0.9-1.4c0,0.2-0.1,0.4-0.2,0.6c-0.2,0.2-0.4,0.2-0.6,0.2c-0.2,0-0.4-0.1-0.6-0.2C-2.5-0.9-2.6-1.1-2.6-1.4
				 M0.5,7.6l-0.6-3.9l-0.2-2.1h-0.1l-0.2,2.1l-0.6,3.9L0.5,7.6z M0.3-1.4c0-0.2,0.1-0.4,0.2-0.6c0.1-0.2,0.4-0.2,0.6-0.2
				c0.2,0,0.4,0.1,0.6,0.2c0.2,0.2,0.2,0.4,0.2,0.6c0,0.2-0.1,0.4-0.2,0.6C1.5-0.6,1.3-0.5,1.1-0.5c-0.2,0-0.4-0.1-0.6-0.2
				C0.4-0.9,0.3-1.1,0.3-1.4"/>
		</g>
		<g transform="translate(181.076 -38.316)">
			<path class="st0" d="M0,0c0,0.1,0,0.2-0.1,0.3c-0.1,0.1-0.2,0.1-0.3,0.1h-1.8v9.4c0,0.1,0,0.2-0.1,0.3c-0.1,0.1-0.2,0.1-0.3,0.1
				H-3c-0.1,0-0.2,0-0.3-0.1C-3.4,10-3.4,9.9-3.4,9.8V0.4h-1.8c-0.1,0-0.2,0-0.2-0.1C-5.5,0.2-5.6,0.1-5.6,0v-0.5
				c0-0.1,0-0.2,0.1-0.3c0.1-0.1,0.2-0.1,0.2-0.1h4.8c0.1,0,0.2,0,0.3,0.1C0-0.7,0-0.6,0-0.5V0z"/>
		</g>
		<g transform="translate(188.009 -31.198)">
			<path class="st0" d="M0,0c0.1,0.9-0.2,1.7-0.7,2.4C-1.3,3-2,3.3-2.8,3.2c-0.5,0-0.9-0.1-1.4-0.3C-4.5,2.8-4.8,2.5-5,2.2
				c-0.2-0.3-0.4-0.7-0.4-1.1c-0.1-0.4-0.1-0.8-0.1-1.3v-0.2c0-0.1,0-0.2,0.1-0.3c0.1-0.1,0.2-0.1,0.3-0.1h0.5c0.1,0,0.2,0,0.2,0.1
				c0.1,0.1,0.1,0.2,0.1,0.3v0.2c0,0.3,0,0.7,0.1,1C-4.2,1.1-4,1.3-3.9,1.5c0.1,0.2,0.3,0.3,0.5,0.3C-3.2,1.9-3,2-2.8,2
				C-2.4,2-2,1.8-1.7,1.5c0.3-0.4,0.5-0.9,0.4-1.5c0-0.4-0.1-0.7-0.3-1C-1.8-1.2-2-1.5-2.3-1.7c-0.3-0.2-0.6-0.5-1-0.7
				c-0.4-0.2-0.7-0.5-1-0.8c-0.3-0.3-0.6-0.6-0.8-1c-0.2-0.4-0.3-0.9-0.3-1.4c0-0.3,0.1-0.7,0.2-1C-5.2-6.9-5-7.1-4.8-7.4
				C-4.6-7.6-4.3-7.8-4-8c0.4-0.1,0.7-0.2,1.1-0.2c0.4,0,0.8,0.1,1.1,0.2c0.3,0.1,0.6,0.3,0.8,0.6c0.2,0.2,0.4,0.5,0.5,0.8
				C-0.3-6.3-0.3-6-0.3-5.7v0.1c0,0.1,0,0.2-0.1,0.3c-0.1,0.1-0.2,0.1-0.3,0.1h-0.5c-0.1,0-0.2,0-0.3-0.1c-0.1-0.1-0.1-0.2-0.1-0.2
				v0c0-0.4-0.1-0.7-0.4-1c-0.2-0.3-0.6-0.4-0.9-0.4c-0.2,0-0.4,0-0.6,0.1c-0.2,0.1-0.3,0.2-0.4,0.3C-4-6.4-4.1-6.2-4.1-6.1
				c0,0.2-0.1,0.3-0.1,0.5c0,0.4,0.1,0.7,0.3,1C-3.6-4.3-3.4-4-3.1-3.8c0.3,0.3,0.6,0.5,1,0.7c0.4,0.2,0.7,0.5,1,0.8
				c0.3,0.3,0.6,0.6,0.8,1C-0.1-0.9,0-0.5,0,0"/>
		</g>
		<g transform="translate(192.367 -39.21)">
			<path class="st0" d="M0,0c0.4,0,0.8,0,1.1,0.1c0.3,0,0.6,0.1,0.8,0.3c0.4,0.2,0.7,0.5,0.8,0.9C3,1.7,3.1,2.2,3.1,2.7
				c0,0.6,0,1.2-0.3,1.8C2.7,4.6,2.6,4.8,2.5,4.9C2.3,5,2.2,5.1,2,5.2C2.5,5.3,2.8,5.6,3,6c0.2,0.5,0.3,1.1,0.3,1.7
				c0,0.4,0,0.8-0.1,1.2c0,0.4-0.2,0.8-0.4,1.1c-0.2,0.3-0.5,0.6-0.8,0.8c-0.5,0.2-1,0.3-1.5,0.3h-2.3C-1.9,11.1-2,11-2,11
				c-0.1-0.1-0.1-0.2-0.1-0.3V0.4c0-0.1,0-0.2,0.1-0.3C-1.9,0-1.9,0-1.8,0H0z M-0.9,4.6h1c0.2,0,0.5,0,0.7,0c0.2,0,0.4-0.1,0.6-0.2
				C1.5,4.2,1.7,4,1.7,3.8c0.1-0.4,0.1-0.7,0.1-1.1c0-0.3,0-0.6-0.1-0.8C1.6,1.7,1.5,1.6,1.3,1.5C1.1,1.4,0.9,1.3,0.7,1.3
				c-0.2,0-0.5,0-0.8,0h-0.9V4.6z M-0.9,5.9v3.9h1.3c0.2,0,0.5,0,0.7-0.1c0.2-0.1,0.4-0.2,0.5-0.3C1.8,9.2,1.9,9,1.9,8.8
				C2,8.4,2.1,8,2.1,7.6c0-0.3,0-0.6-0.1-0.9C1.9,6.5,1.7,6.3,1.6,6.2C1.4,6.1,1.2,6,0.9,6C0.7,5.9,0.4,5.9,0.1,5.9H-0.9z"/>
		</g>
		<g transform="translate(198.764 -28.14)">
			<path class="st0" d="M0,0c-0.1,0-0.2,0-0.3-0.1c-0.1-0.1-0.1-0.2-0.1-0.3v-10.3c0-0.1,0-0.2,0.1-0.2c0.1-0.1,0.2-0.1,0.3-0.1h0.5
				c0.1,0,0.2,0,0.3,0.1c0.1,0.1,0.1,0.2,0.1,0.2v10.3c0,0.1,0,0.2-0.1,0.3C0.7,0,0.6,0,0.5,0H0z"/>
		</g>
		<g transform="translate(204.879 -39.21)">
			<path class="st0" d="M0,0c0.4,0,0.8,0,1.1,0.1c0.3,0,0.6,0.1,0.8,0.3c0.4,0.2,0.7,0.5,0.8,0.9C3,1.7,3.1,2.2,3.1,2.7
				c0,0.6,0,1.2-0.3,1.8C2.7,4.6,2.6,4.8,2.5,4.9C2.3,5,2.2,5.1,2,5.2C2.5,5.3,2.8,5.6,3,6c0.2,0.5,0.3,1.1,0.3,1.7
				c0,0.4,0,0.8-0.1,1.2c0,0.4-0.2,0.8-0.4,1.1c-0.2,0.3-0.5,0.6-0.8,0.8c-0.5,0.2-1,0.3-1.5,0.3h-2.3C-1.9,11.1-2,11-2,11
				c-0.1-0.1-0.1-0.2-0.1-0.3V0.4c0-0.1,0-0.2,0.1-0.3C-1.9,0-1.9,0-1.8,0H0z M-0.9,4.6h1c0.2,0,0.5,0,0.7,0c0.2,0,0.4-0.1,0.6-0.2
				C1.5,4.2,1.7,4,1.7,3.8c0.1-0.4,0.1-0.7,0.1-1.1c0-0.3,0-0.6-0.1-0.8C1.6,1.7,1.5,1.6,1.3,1.5C1.1,1.4,0.9,1.3,0.7,1.3
				c-0.2,0-0.5,0-0.8,0h-0.9V4.6z M-0.9,5.9v3.9h1.3c0.2,0,0.5,0,0.7-0.1c0.2-0.1,0.4-0.2,0.5-0.3C1.8,9.2,1.9,9,1.9,8.8
				C2,8.4,2.1,8,2.1,7.6c0-0.3,0-0.6-0.1-0.9C1.9,6.5,1.7,6.3,1.6,6.2C1.4,6.1,1.2,6,0.9,6C0.7,5.9,0.4,5.9,0.1,5.9H-0.9z"/>
		</g>
		<g transform="translate(215.354 -28.501)">
			<path class="st0" d="M0,0c0,0.1,0,0.2-0.1,0.3c-0.1,0.1-0.2,0.1-0.3,0.1h-3.9c-0.1,0-0.2,0-0.3-0.1C-4.6,0.2-4.6,0.1-4.6,0v-10.3
				c0-0.1,0-0.2,0.1-0.2c0.1-0.1,0.2-0.1,0.3-0.1h0.5c0.1,0,0.2,0,0.3,0.1c0.1,0.1,0.1,0.2,0.1,0.2v9.5h3c0.1,0,0.2,0,0.3,0.1
				C0-0.7,0-0.6,0-0.5V0z"/>
		</g>
		<g transform="translate(217.799 -28.14)">
			<path class="st0" d="M0,0c-0.1,0-0.2,0-0.3-0.1c-0.1-0.1-0.1-0.2-0.1-0.3v-10.3c0-0.1,0-0.2,0.1-0.2c0.1-0.1,0.2-0.1,0.3-0.1h0.5
				c0.1,0,0.2,0,0.3,0.1c0.1,0.1,0.1,0.2,0.1,0.2v10.3c0,0.1,0,0.2-0.1,0.3C0.7,0,0.6,0,0.5,0H0z"/>
		</g>
		<g transform="translate(224.189 -27.983)">
			<path class="st0" d="M0,0c-0.5,0-1-0.1-1.4-0.3C-1.7-0.5-2-0.7-2.2-1c-0.2-0.3-0.3-0.6-0.4-0.9c-0.1-0.3-0.1-0.5-0.1-0.8
				c-0.1-1-0.1-2-0.1-3c0-0.9,0-1.9,0.1-3c0-0.3,0.1-0.5,0.1-0.8c0.1-0.3,0.2-0.6,0.4-0.9c0.2-0.3,0.5-0.5,0.8-0.7
				c0.4-0.2,0.9-0.3,1.4-0.3c0.5,0,1,0.1,1.4,0.3c0.3,0.2,0.6,0.4,0.8,0.7c0.2,0.3,0.3,0.6,0.4,0.9c0.1,0.3,0.1,0.5,0.1,0.8
				c0.1,1,0.1,2,0.1,3s0,1.9-0.1,3c0,0.3-0.1,0.5-0.1,0.8C2.5-1.6,2.4-1.3,2.2-1C2-0.7,1.7-0.5,1.4-0.3C1-0.1,0.5,0,0,0 M0-10.1
				c-0.3,0-0.5,0-0.7,0.2C-0.9-9.8-1-9.7-1.1-9.5c-0.1,0.2-0.2,0.4-0.2,0.6c0,0.2-0.1,0.5-0.1,0.7c-0.1,0.9-0.1,1.7-0.1,2.5
				s0,1.6,0.1,2.5c0,0.2,0,0.5,0.1,0.7c0,0.2,0.1,0.4,0.2,0.6c0.1,0.2,0.2,0.3,0.4,0.5C-0.5-1.3-0.3-1.2,0-1.3c0.3,0,0.5,0,0.7-0.2
				c0.2-0.1,0.3-0.3,0.4-0.5c0.1-0.2,0.2-0.4,0.2-0.6c0-0.2,0.1-0.5,0.1-0.7c0-0.9,0.1-1.7,0.1-2.5s0-1.6-0.1-2.5
				c0-0.2,0-0.5-0.1-0.7c0-0.2-0.1-0.4-0.2-0.6C1-9.7,0.9-9.8,0.7-10C0.5-10.1,0.3-10.1,0-10.1"/>
		</g>
		<g transform="translate(233.763 -38.316)">
			<path class="st0" d="M0,0c0,0.1,0,0.2-0.1,0.3c-0.1,0.1-0.2,0.1-0.3,0.1h-1.8v9.4c0,0.1,0,0.2-0.1,0.3c-0.1,0.1-0.2,0.1-0.3,0.1
				H-3c-0.1,0-0.2,0-0.3-0.1C-3.4,10-3.4,9.9-3.4,9.8V0.4h-1.8c-0.1,0-0.2,0-0.2-0.1C-5.5,0.2-5.6,0.1-5.6,0v-0.5
				c0-0.1,0-0.2,0.1-0.3c0.1-0.1,0.2-0.1,0.2-0.1h4.8c0.1,0,0.2,0,0.3,0.1C0-0.7,0-0.6,0-0.5V0z"/>
		</g>
		<g transform="translate(240.27 -28.14)">
			<path class="st0" d="M0,0c-0.1,0-0.2,0-0.3-0.1c-0.1-0.1-0.1-0.2-0.1-0.3v-4.7h-2.9v4.7c0,0.1,0,0.2-0.1,0.3C-3.4,0-3.5,0-3.6,0
				h-0.5c-0.1,0-0.2,0-0.3-0.1c-0.1-0.1-0.1-0.2-0.1-0.3v-10.3c0-0.1,0-0.2,0.1-0.2c0.1-0.1,0.2-0.1,0.3-0.1h0.5
				c0.1,0,0.2,0,0.3,0.1c0.1,0.1,0.1,0.2,0.1,0.2v4.4h2.9v-4.4c0-0.1,0-0.2,0.1-0.2c0.1-0.1,0.2-0.1,0.3-0.1h0.5
				c0.1,0,0.2,0,0.3,0.1c0.1,0.1,0.1,0.2,0.1,0.2v10.3c0,0.1,0,0.2-0.1,0.3C0.7,0,0.6,0,0.5,0H0z"/>
		</g>
		<g transform="translate(248.91 -28.501)">
			<path class="st0" d="M0,0c0,0.1,0,0.2-0.1,0.3c-0.1,0.1-0.2,0.1-0.3,0.1h-4.1c-0.1,0-0.2,0-0.3-0.1C-4.8,0.2-4.9,0.1-4.9,0v-10.3
				c0-0.1,0-0.2,0.1-0.2c0.1-0.1,0.2-0.1,0.3-0.1h4c0.1,0,0.2,0,0.3,0.1c0.1,0.1,0.1,0.2,0.1,0.3v0.5c0,0.1,0,0.2-0.1,0.3
				c-0.1,0.1-0.2,0.1-0.3,0.1h-3.1V-6h2.7c0.1,0,0.2,0,0.3,0.1c0.1,0.1,0.1,0.2,0.1,0.3v0.5c0,0.1,0,0.2-0.1,0.3
				c-0.1,0.1-0.2,0.1-0.3,0.1h-2.7v3.8h3.2c0.1,0,0.2,0,0.3,0.1C0-0.7,0-0.6,0-0.5V0z"/>
		</g>
		<g transform="translate(256.655 -28.501)">
			<path class="st0" d="M0,0c0,0.1,0,0.2,0,0.3c0,0.1-0.1,0.1-0.2,0.1H-1c-0.1,0-0.2,0-0.3-0.1C-1.3,0.2-1.3,0.1-1.4,0l-2.1-5.1
				l-0.8,1.3V0c0,0.1,0,0.2-0.1,0.3c-0.1,0.1-0.2,0.1-0.3,0.1h-0.5c-0.1,0-0.2,0-0.3-0.1C-5.5,0.2-5.5,0.1-5.5,0v-10.3
				c0-0.1,0-0.2,0.1-0.3c0.1-0.1,0.2-0.1,0.3-0.1h0.5c0.1,0,0.2,0,0.3,0.1c0.1,0.1,0.1,0.2,0.1,0.3v4.5l2.7-4.6
				c0-0.1,0.1-0.1,0.2-0.2c0.1-0.1,0.2-0.1,0.2-0.1h0.8c0.1,0,0.1,0,0.1,0c0,0,0.1,0.1,0.1,0.1c0,0.1,0,0.1,0,0.2l-2.4,4.1L0,0z"/>
		</g>
	</g>
</g>
<g id="Ebene_2" class="st1">
	<g id="Englisch" class="st2">
		<path class="st0" d="M33.6,49h-2.3c-0.7,0-1.4-0.3-1.9-0.9c-0.4-0.5-0.7-1.1-0.7-1.8V2.6c0-0.6,0.3-1.3,0.7-1.7
			C29.9,0.3,30.6,0,31.3,0h2.3c0.7,0,1.5,0.3,1.9,0.9c0.4,0.5,0.6,1.1,0.6,1.7v43.8c0,0.6-0.2,1.3-0.6,1.7
			C35.1,48.7,34.4,49,33.6,49z"/>
		<path class="st0" d="M14.1,49h-2.3c-0.7,0-1.4-0.3-1.9-0.9c-0.4-0.5-0.7-1.1-0.7-1.8V7.5H2.6C2,7.5,1.3,7.2,0.9,6.8
			C0.3,6.3,0,5.6,0,4.9V2.6c0-0.8,0.3-1.5,0.9-2C1.4,0.2,2,0,2.6,0h20.5c0.6,0,1.3,0.2,1.7,0.6c0.6,0.5,0.9,1.2,0.9,1.9v2.3
			c0,0.7-0.3,1.4-0.9,1.9c-0.5,0.4-1.1,0.7-1.8,0.6h-6.5v38.9c0,0.6-0.2,1.3-0.6,1.8C15.5,48.7,14.8,49,14.1,49z"/>
		<path class="st0" d="M54.1,49h-9.6c-0.7,0-1.4-0.3-1.9-0.9c-0.4-0.5-0.7-1.1-0.7-1.8V2.6c0-0.8,0.3-1.5,0.9-2
			C43.3,0.2,43.9,0,44.5,0h7.5c1.7,0,3.3,0.1,5,0.3c1.3,0.1,2.7,0.5,3.8,1.2c1.8,1,3.2,2.6,4,4.5c0.9,2,1.3,4.1,1.3,6.3
			c0,3.6-0.4,6.2-1.2,7.9c-0.4,0.9-1,1.7-1.7,2.4l-0.4,0.3c1.3,0.8,2.3,1.9,2.9,3.3c1,2.4,1.4,4.9,1.3,7.5c0,1.8-0.1,3.5-0.3,5.3
			c-0.2,1.8-0.8,3.5-1.8,5c-1,1.6-2.3,2.9-4,3.7C58.9,48.6,56.5,49.1,54.1,49z M49.4,41.6h4.4c0.9,0,1.8-0.1,2.7-0.3
			c0.7-0.2,1.2-0.6,1.7-1.1c0.6-0.7,0.9-1.5,1.1-2.3c0.3-1.5,0.5-3,0.4-4.4c0-1.2-0.1-2.3-0.5-3.4c-0.2-0.7-0.7-1.3-1.2-1.8
			c-0.6-0.5-1.4-0.8-2.2-0.9c-1.1-0.2-2.3-0.3-3.4-0.3h-3L49.4,41.6z M49.4,19.6h3.1c0.9,0,1.8-0.1,2.8-0.2c0.7-0.1,1.3-0.3,1.8-0.7
			c0.6-0.5,1-1.2,1.2-1.9c0.4-1.4,0.6-2.8,0.5-4.2c0.1-1-0.1-2-0.5-3c-0.3-0.6-0.7-1.1-1.2-1.4c-0.6-0.4-1.3-0.6-2-0.6
			c-0.9-0.1-2-0.1-3.1-0.1h-2.6V19.6z"/>
		<path class="st0" d="M85.1,10.8c0,0.1,0,0.2-0.1,0.3c-0.1,0.1-0.2,0.1-0.3,0.1h-3.8c-0.1,0-0.2,0-0.2-0.1
			c-0.1-0.1-0.1-0.2-0.1-0.3V0.5c0-0.1,0-0.2,0.1-0.2c0.1-0.1,0.2-0.1,0.2-0.1h0.5c0.1,0,0.2,0,0.3,0.1c0.1,0.1,0.1,0.1,0.1,0.2v9.4
			h3c0.1,0,0.2,0,0.2,0.1c0.1,0.1,0.1,0.2,0.1,0.3L85.1,10.8z"/>
		<path class="st0" d="M91.7,10.8c0,0.1,0,0.2-0.1,0.3c-0.1,0.1-0.2,0.1-0.2,0.1h-4.1c-0.1,0-0.2-0.1-0.2-0.1C87,11,87,10.9,87,10.8
			V0.5c0-0.1,0-0.2,0.1-0.2c0.1-0.1,0.2-0.1,0.3-0.1h4c0.1,0,0.2,0,0.3,0.1c0.1,0.1,0.1,0.2,0.1,0.3V1c0,0.1,0,0.2-0.1,0.3
			c-0.1,0.1-0.2,0.1-0.3,0.1h-3.2v3.5h2.6c0.1,0,0.2,0,0.3,0.1c0.1,0.1,0.1,0.2,0.1,0.3v0.5c0,0.1,0,0.2-0.1,0.3
			c-0.1,0.1-0.2,0.1-0.3,0.1h-2.6v3.8h3.2c0.1,0,0.2,0,0.2,0.1c0.1,0.1,0.1,0.2,0.1,0.3V10.8z"/>
		<path class="st0" d="M94.5,11.1c-0.1,0-0.2,0-0.3-0.1c-0.1-0.1-0.1-0.2-0.1-0.3V0.5c0-0.1,0-0.2,0.1-0.2c0.1-0.1,0.2-0.1,0.3-0.1
			h0.6c0.1,0,0.2,0,0.3,0.1c0.1,0.1,0.1,0.1,0.1,0.2v10.2c0,0.1,0,0.2-0.1,0.3c-0.1,0.1-0.2,0.1-0.3,0.1H94.5z"/>
		<path class="st0" d="M100.5,0.2c0.4,0,0.8,0,1.1,0.1c0.3,0,0.6,0.1,0.8,0.2c0.4,0.2,0.7,0.5,0.8,0.9c0.2,0.4,0.3,0.9,0.3,1.4
			c0,0.6,0,1.2-0.2,1.7c-0.1,0.2-0.2,0.3-0.3,0.5c-0.1,0.1-0.3,0.2-0.4,0.3c0.4,0.1,0.8,0.4,1,0.8c0.2,0.5,0.3,1.1,0.3,1.6
			c0,0.4,0,0.8-0.1,1.2c0,0.4-0.2,0.8-0.4,1.1c-0.2,0.3-0.5,0.6-0.8,0.8c-0.5,0.2-1,0.3-1.5,0.3h-2.3c-0.1,0-0.2,0-0.3-0.1
			c-0.1-0.1-0.1-0.2-0.1-0.3V0.5c0-0.1,0-0.2,0.1-0.3c0.1-0.1,0.2-0.1,0.2-0.1L100.5,0.2z M99.7,4.8h1c0.2,0,0.5,0,0.7,0
			c0.2,0,0.4-0.1,0.5-0.2c0.2-0.1,0.3-0.3,0.4-0.6c0.1-0.3,0.1-0.7,0.1-1.1c0-0.3,0-0.5-0.1-0.8c-0.1-0.2-0.2-0.3-0.4-0.4
			c-0.2-0.1-0.4-0.2-0.6-0.2c-0.2,0-0.5,0-0.7,0h-0.9L99.7,4.8z M99.7,6v3.9h1.3c0.2,0,0.5,0,0.7-0.1c0.2-0.1,0.4-0.2,0.5-0.3
			c0.2-0.2,0.3-0.4,0.3-0.6c0.1-0.4,0.1-0.7,0.1-1.1c0-0.3,0-0.6-0.1-0.9c-0.1-0.2-0.2-0.4-0.4-0.5c-0.2-0.1-0.4-0.2-0.6-0.3
			c-0.3,0-0.6-0.1-0.8-0.1L99.7,6z"/>
		<path class="st0" d="M107.3,2.1l0.2,3.3v5.4c0,0.1,0,0.2-0.1,0.3c-0.1,0.1-0.2,0.1-0.3,0.1h-0.5c-0.1,0-0.2,0-0.2-0.1
			c-0.1-0.1-0.1-0.2-0.1-0.3V0.5c0-0.1,0-0.2,0.1-0.2c0.1-0.1,0.2-0.1,0.2-0.1h0.9c0.1,0,0.2,0,0.2,0.1c0,0.1,0.1,0.1,0.1,0.2
			l2.9,8.7l-0.2-3.1V0.6c0-0.1,0-0.2,0.1-0.3c0.1-0.1,0.2-0.2,0.3-0.1h0.5c0.1,0,0.2,0,0.3,0.1c0.1,0.1,0.1,0.2,0.1,0.3v10.2
			c0,0.1,0,0.2-0.1,0.2c-0.1,0.1-0.2,0.1-0.3,0.1h-0.9c-0.1,0-0.2,0-0.2-0.1c0-0.1-0.1-0.2-0.1-0.2L107.3,2.1z"/>
		<path class="st0" d="M115.3,11.1c-0.1,0-0.2,0-0.2-0.1c-0.1-0.1-0.1-0.2-0.1-0.3V0.5c0-0.1,0-0.2,0.1-0.2c0.1-0.1,0.2-0.1,0.3-0.1
			h0.5c0.1,0,0.2,0,0.3,0.1c0.1,0.1,0.1,0.1,0.1,0.2v10.2c0,0.1,0,0.2-0.1,0.3c-0.1,0.1-0.2,0.1-0.3,0.1H115.3z"/>
		<path class="st0" d="M118.8,11.1c-0.1,0-0.2,0-0.3-0.1c0-0.1-0.1-0.2-0.1-0.3V10c0-0.1,0-0.2,0.1-0.3c0-0.1,0.1-0.2,0.1-0.3
			l3.5-7.9h-3.3c-0.1,0-0.2,0-0.2-0.1c-0.1-0.1-0.1-0.2-0.1-0.3V0.6c0-0.1,0-0.2,0.1-0.3c0.1-0.1,0.2-0.1,0.2-0.1h4.2
			c0.1,0,0.2,0,0.3,0.1c0.1,0.1,0.1,0.2,0.1,0.2v0.8c0,0.1,0,0.1,0,0.2l-0.1,0.1l-3.6,8.2h3.6c0.1,0,0.2,0,0.3,0.1
			c0.1,0.1,0.1,0.2,0.1,0.3v0.5c0,0.1,0,0.2-0.1,0.3c-0.1,0.1-0.2,0.1-0.3,0.1H118.8z"/>
		<path class="st0" d="M130.4,11.1c-0.1,0-0.2,0-0.3-0.1c-0.1-0.1-0.1-0.2-0.1-0.3V0.5c0-0.1,0-0.2,0.1-0.2c0.1-0.1,0.2-0.1,0.3-0.1
			h0.5c0.1,0,0.2,0,0.3,0.1c0.1,0.1,0.1,0.1,0.1,0.2v10.2c0,0.1,0,0.2-0.1,0.3c-0.1,0.1-0.2,0.1-0.3,0.1H130.4z"/>
		<path class="st0" d="M135.4,2.1l0.2,3.3v5.4c0,0.1,0,0.2-0.1,0.3c-0.1,0.1-0.2,0.1-0.3,0.1h-0.5c-0.1,0-0.2,0-0.3-0.1
			c-0.1-0.1-0.1-0.2-0.1-0.3V0.5c0-0.1,0-0.2,0.1-0.2c0.1-0.1,0.2-0.1,0.3-0.1h0.9c0.1,0,0.2,0,0.2,0.1c0,0.1,0.1,0.2,0.1,0.2
			l2.9,8.7l-0.2-3.1V0.6c0-0.1,0-0.2,0.1-0.3c0.1-0.1,0.2-0.1,0.3-0.1h0.5c0.1,0,0.2,0,0.3,0.1c0.1,0.1,0.1,0.2,0.1,0.3v10.2
			c0,0.1,0,0.2-0.1,0.2c-0.1,0.1-0.2,0.1-0.3,0.1h-0.9c-0.1,0-0.2,0-0.2-0.1c-0.1-0.1-0.1-0.2-0.1-0.2L135.4,2.1z"/>
		<path class="st0" d="M147.1,5.7c0,0.1,0,0.2-0.1,0.3c-0.1,0.1-0.2,0.1-0.2,0.1h-2.6v4.7c0,0.1,0,0.2-0.1,0.3
			c-0.1,0.1-0.2,0.1-0.3,0.1h-0.5c-0.1,0-0.2,0-0.2-0.1c-0.1-0.1-0.1-0.2-0.1-0.3V0.5c0-0.1,0-0.2,0.1-0.2c0.1-0.1,0.2-0.1,0.2-0.1
			h4c0.1,0,0.2,0,0.3,0.1c0.1,0.1,0.1,0.2,0.1,0.3V1c0,0.1,0,0.2-0.1,0.3c-0.1,0.1-0.2,0.1-0.3,0.1h-3.1v3.5h2.6
			c0.1,0,0.2,0,0.2,0.1c0.1,0.1,0.1,0.2,0.1,0.3L147.1,5.7z"/>
		<path class="st0" d="M151.9,11.3c-0.5,0-1-0.1-1.4-0.3c-0.3-0.2-0.6-0.4-0.8-0.7c-0.2-0.3-0.3-0.6-0.4-0.9
			c-0.1-0.3-0.1-0.5-0.1-0.8c-0.1-1-0.1-2-0.1-2.9s0-1.9,0.1-2.9c0-0.3,0-0.5,0.1-0.8c0.1-0.3,0.2-0.6,0.4-0.9
			c0.2-0.3,0.5-0.5,0.8-0.7c0.9-0.4,1.9-0.4,2.8,0c0.3,0.2,0.6,0.4,0.8,0.7c0.2,0.3,0.3,0.6,0.4,0.9c0.1,0.3,0.1,0.5,0.1,0.8
			c0.1,1,0.1,2,0.1,2.9s0,1.9-0.1,2.9c0,0.3,0,0.5-0.1,0.8c-0.1,0.3-0.2,0.6-0.4,0.9c-0.2,0.3-0.5,0.5-0.8,0.7
			C152.9,11.2,152.4,11.3,151.9,11.3z M151.9,1.3c-0.3,0-0.5,0-0.7,0.2c-0.2,0.1-0.3,0.3-0.4,0.4c-0.1,0.2-0.2,0.4-0.2,0.6
			c0,0.2-0.1,0.5-0.1,0.7c-0.1,0.9-0.1,1.7-0.1,2.4s0,1.6,0.1,2.4c0,0.2,0,0.5,0.1,0.7c0,0.2,0.1,0.4,0.2,0.6
			c0.1,0.2,0.3,0.3,0.4,0.4c0.2,0.1,0.5,0.2,0.7,0.2c0.2,0,0.5,0,0.7-0.2c0.2-0.1,0.3-0.3,0.4-0.4c0.1-0.2,0.2-0.4,0.2-0.6
			c0-0.2,0.1-0.5,0.1-0.7c0-0.9,0.1-1.7,0.1-2.4s0-1.6-0.1-2.4c0-0.2,0-0.5-0.1-0.7c0-0.2-0.1-0.4-0.2-0.6c-0.1-0.2-0.2-0.3-0.4-0.4
			C152.4,1.3,152.2,1.3,151.9,1.3L151.9,1.3z"/>
		<path class="st0" d="M162.5,10.8c0,0.1,0,0.2,0,0.2c-0.1,0.1-0.2,0.1-0.3,0.1h-0.6c-0.1,0-0.2,0-0.2-0.1c-0.1-0.1-0.1-0.2-0.2-0.3
			L159.8,6h-1.4v4.8c0,0.1,0,0.2-0.1,0.2c-0.1,0.1-0.2,0.1-0.3,0.1h-0.5c-0.1,0-0.2,0-0.3-0.1c-0.1-0.1-0.1-0.2-0.1-0.2V0.6
			c0-0.1,0-0.2,0.1-0.2c0.1-0.1,0.2-0.1,0.2-0.1h1.9c0.5,0,1,0,1.5,0.2c0.4,0.1,0.8,0.4,1,0.7c0.2,0.3,0.3,0.6,0.4,0.9
			c0.1,0.4,0.1,0.8,0.1,1.2c0,0.6-0.1,1.2-0.3,1.7c-0.2,0.4-0.6,0.7-1.1,0.9L162.5,10.8z M158.4,4.8h1c0.2,0,0.5,0,0.7,0
			c0.2,0,0.4-0.1,0.5-0.2c0.1-0.1,0.2-0.1,0.2-0.2c0.1-0.1,0.1-0.2,0.2-0.3c0-0.1,0.1-0.2,0.1-0.4c0-0.2,0-0.4,0-0.5
			c0-0.3,0-0.7-0.1-1c-0.1-0.2-0.2-0.4-0.4-0.5c-0.1,0-0.2-0.1-0.2-0.1c-0.1,0-0.2,0-0.4,0h-1.6L158.4,4.8z"/>
		<path class="st0" d="M166.1,2L166.1,2l0.1,4.8v4c0,0.1,0,0.2-0.1,0.3c-0.1,0.1-0.2,0.1-0.3,0.1h-0.5c-0.1,0-0.2,0-0.2-0.1
			c-0.1-0.1-0.1-0.2-0.1-0.3V0.5c0-0.1,0-0.2,0.1-0.2c0.1-0.1,0.2-0.1,0.3-0.1h1c0.1,0,0.2,0,0.2,0.1c0.1,0.1,0.1,0.2,0.1,0.3
			l1.2,4.9l0.3,1.7h0.1l0.3-1.7l1.1-4.9c0-0.2,0.2-0.3,0.4-0.3h1c0.1,0,0.2,0,0.3,0.1c0.1,0.1,0.1,0.1,0.1,0.2v10.2
			c0,0.1,0,0.2-0.1,0.3c-0.1,0.1-0.2,0.1-0.3,0.1h-0.5c-0.1,0-0.2,0-0.2-0.1c-0.1-0.1-0.1-0.2-0.1-0.3v-4l0.2-4.8h-0.1l-1.5,6.8
			c0,0.1,0,0.2-0.1,0.3c-0.1,0.1-0.2,0.1-0.2,0.1h-0.5c-0.1,0-0.2,0-0.2-0.1c-0.1-0.1-0.1-0.2-0.1-0.3L166.1,2z"/>
		<path class="st0" d="M176.8,0.2c0.2,0,0.3,0.1,0.4,0.4l2,10.2c0,0.1,0,0.2-0.1,0.2c-0.1,0.1-0.2,0.1-0.2,0.1h-0.6
			c-0.2,0-0.3-0.1-0.4-0.3L177.5,9h-2.1l-0.3,1.8c0,0.2-0.2,0.3-0.4,0.3h-0.6c-0.1,0-0.3-0.1-0.3-0.2c0,0,0-0.1,0-0.1l2.1-10.2
			c0-0.1,0-0.2,0.1-0.2c0.1-0.1,0.2-0.1,0.2-0.1L176.8,0.2z M177.3,7.7l-0.6-3.8l-0.2-2.1h-0.1l-0.2,2.1l-0.6,3.8H177.3z"/>
		<path class="st0" d="M185.6,1c0,0.1,0,0.2-0.1,0.3c-0.1,0.1-0.2,0.1-0.3,0.1h-1.7v9.3c0,0.1,0,0.2-0.1,0.3
			c-0.1,0.1-0.2,0.1-0.3,0.1h-0.5c-0.1,0-0.2,0-0.3-0.1c-0.1-0.1-0.1-0.2-0.1-0.3V1.4h-1.8c-0.1,0-0.2,0-0.2-0.1
			c-0.1-0.1-0.1-0.2-0.1-0.2V0.6c0-0.2,0.2-0.4,0.4-0.4c0,0,0,0,0,0h4.8c0.1,0,0.2,0,0.3,0.1c0.1,0.1,0.1,0.2,0.1,0.3V1z"/>
		<path class="st0" d="M188.1,11.1c-0.1,0-0.2,0-0.2-0.1c-0.1-0.1-0.1-0.2-0.1-0.3V0.5c0-0.1,0-0.2,0.1-0.2c0.1-0.1,0.2-0.1,0.2-0.1
			h0.5c0.1,0,0.2,0,0.3,0.1c0.1,0.1,0.1,0.1,0.1,0.2v10.2c0,0.1,0,0.2-0.1,0.3c-0.1,0.1-0.2,0.1-0.3,0.1H188.1z"/>
		<path class="st0" d="M194.4,11.3c-0.5,0-0.9-0.1-1.3-0.3c-0.3-0.2-0.6-0.4-0.8-0.7c-0.2-0.3-0.3-0.6-0.4-0.9
			c-0.1-0.3-0.1-0.5-0.1-0.8c-0.1-1-0.1-2-0.1-2.9s0-1.9,0.1-2.9c0-0.3,0-0.5,0.1-0.8c0.1-0.7,0.5-1.3,1.2-1.6
			c0.9-0.4,1.9-0.4,2.8,0c0.3,0.2,0.6,0.4,0.8,0.7c0.2,0.3,0.3,0.6,0.4,0.9c0.1,0.3,0.1,0.5,0.1,0.8c0.1,1,0.1,2,0.1,2.9
			s0,1.9-0.1,2.9c0,0.3,0,0.5-0.1,0.8c-0.1,0.3-0.2,0.6-0.4,0.9c-0.2,0.3-0.5,0.5-0.8,0.7C195.4,11.2,194.9,11.3,194.4,11.3z
			 M194.4,1.3c-0.2,0-0.5,0-0.7,0.2c-0.2,0.1-0.3,0.3-0.4,0.4c-0.1,0.2-0.2,0.4-0.2,0.6c0,0.2-0.1,0.5-0.1,0.7
			c0,0.9-0.1,1.7-0.1,2.4c0,0.8,0,1.6,0.1,2.4c0,0.2,0,0.5,0.1,0.7c0,0.2,0.1,0.4,0.2,0.6c0.2,0.4,0.7,0.7,1.1,0.6
			c0.2,0,0.5,0,0.7-0.2c0.2-0.1,0.3-0.3,0.4-0.4c0.1-0.2,0.2-0.4,0.2-0.6c0-0.2,0.1-0.5,0.1-0.7c0-0.9,0-1.7,0.1-2.4s0-1.6-0.1-2.4
			c0-0.2,0-0.5-0.1-0.7c0-0.2-0.1-0.4-0.2-0.6c-0.1-0.2-0.2-0.3-0.4-0.4C194.9,1.3,194.7,1.3,194.4,1.3L194.4,1.3z"/>
		<path class="st0" d="M200.6,2.1l0.2,3.3v5.4c0,0.1,0,0.2-0.1,0.3c-0.1,0.1-0.2,0.1-0.3,0.1h-0.5c-0.1,0-0.2,0-0.2-0.1
			c-0.1-0.1-0.1-0.2-0.1-0.3V0.5c0-0.1,0-0.2,0.1-0.2c0.1-0.1,0.2-0.1,0.2-0.1h0.9c0.1,0,0.2,0,0.2,0.1c0,0.1,0.1,0.1,0.1,0.2
			l2.9,8.7L204,6.1V0.6c0-0.1,0-0.2,0-0.3c0.1-0.1,0.2-0.1,0.3-0.1h0.5c0.1,0,0.2,0,0.3,0.1c0.1,0.1,0.1,0.2,0.1,0.3v10.2
			c0,0.1,0,0.2-0.1,0.2c-0.1,0.1-0.2,0.1-0.3,0.1h-0.9c-0.1,0-0.2,0-0.2-0.1c-0.1-0.1-0.1-0.2-0.1-0.2L200.6,2.1z"/>
		<path class="st0" d="M217.1,3c0,0.2-0.1,0.3-0.3,0.3h-0.6c-0.1,0-0.2,0-0.3-0.1c-0.1-0.1-0.1-0.2-0.1-0.2V2.8c0-0.2,0-0.4-0.1-0.5
			c0-0.2-0.1-0.3-0.2-0.5c-0.1-0.1-0.2-0.3-0.4-0.3c-0.2-0.1-0.4-0.1-0.6-0.1c-0.3,0-0.5,0-0.7,0.1c-0.2,0.1-0.3,0.2-0.4,0.4
			c-0.1,0.2-0.2,0.4-0.2,0.6c0,0.2-0.1,0.5-0.1,0.7c0,0.5-0.1,0.9-0.1,1.3c0,0.4,0,0.8,0,1.2v1.2c0,0.4,0,0.8,0.1,1.3
			c0,0.2,0,0.5,0.1,0.7c0,0.2,0.1,0.4,0.2,0.6c0.1,0.2,0.3,0.3,0.4,0.5c0.2,0.1,0.5,0.2,0.7,0.2c0.2,0,0.4-0.1,0.6-0.2
			c0.2-0.1,0.3-0.2,0.4-0.4c0.1-0.2,0.2-0.4,0.2-0.6c0-0.2,0.1-0.5,0.1-0.7V7.6c0-0.1,0-0.2,0.1-0.3c0.1-0.1,0.2-0.1,0.3-0.1h0.5
			c0.2,0,0.3,0.1,0.3,0.3c0,0,0,0,0,0v1.1c0,0.3,0,0.5-0.1,0.8c-0.1,0.3-0.2,0.6-0.4,0.8c-0.2,0.3-0.5,0.5-0.8,0.7
			c-0.4,0.2-0.9,0.3-1.4,0.3c-0.5,0.1-1,0-1.4-0.3c-0.3-0.2-0.6-0.4-0.8-0.7c-0.2-0.3-0.3-0.6-0.4-0.9c-0.1-0.2-0.1-0.5-0.1-0.7
			c0-0.5-0.1-1-0.1-1.5s0-1,0-1.5V4.2c0-0.5,0-1,0.1-1.5c0-0.3,0.1-0.5,0.1-0.8c0.1-0.3,0.2-0.6,0.4-0.9c0.2-0.3,0.5-0.5,0.8-0.7
			c0.5-0.2,1-0.3,1.5-0.3c0.8-0.1,1.5,0.3,2,0.9c0.2,0.2,0.3,0.5,0.4,0.8c0,0.2,0.1,0.5,0.1,0.7L217.1,3z"/>
		<path class="st0" d="M224.1,10.8c0,0.1,0,0.2-0.1,0.2c-0.1,0.1-0.2,0.1-0.3,0.1h-4.1c-0.1,0-0.2,0-0.3-0.1
			c-0.1-0.1-0.1-0.2-0.1-0.3V0.5c0-0.1,0-0.2,0.1-0.2c0.1-0.1,0.2-0.1,0.3-0.1h4c0.1,0,0.2,0,0.3,0.1c0.1,0.1,0.1,0.2,0.1,0.3V1
			c0,0.1,0,0.2-0.1,0.3c-0.1,0.1-0.2,0.1-0.3,0.1h-3.1v3.5h2.7c0.1,0,0.2,0,0.2,0.1c0.1,0.1,0.1,0.2,0.1,0.3v0.5
			c0,0.1,0,0.2-0.1,0.3c-0.1,0.1-0.2,0.1-0.2,0.1h-2.7v3.8h3.2c0.1,0,0.2,0,0.3,0.1c0.1,0.1,0.1,0.2,0.1,0.3L224.1,10.8z"/>
		<path class="st0" d="M227.3,2.1l0.2,3.3v5.4c0,0.1,0,0.2-0.1,0.3c-0.1,0.1-0.2,0.1-0.3,0.1h-0.5c-0.1,0-0.2,0-0.2-0.1
			c-0.1-0.1-0.1-0.2-0.1-0.3V0.5c0-0.1,0-0.2,0.1-0.2c0.1-0.1,0.2-0.1,0.2-0.1h0.9c0.1,0,0.2,0,0.2,0.1c0,0.1,0.1,0.1,0.1,0.2
			l2.9,8.7l-0.2-3.1V0.6c0-0.1,0-0.2,0.1-0.3c0.1-0.1,0.2-0.1,0.3-0.1h0.5c0.1,0,0.2,0,0.2,0.1c0.1,0.1,0.1,0.2,0.1,0.3v10.2
			c0,0.1,0,0.2-0.1,0.2c-0.1,0.1-0.2,0.1-0.2,0.1h-0.9c-0.1,0-0.2,0-0.2-0.1c-0.1-0.1-0.1-0.2-0.1-0.2L227.3,2.1z"/>
		<path class="st0" d="M239.4,1c0,0.1,0,0.2-0.1,0.3c-0.1,0.1-0.2,0.1-0.3,0.1h-1.7v9.3c0,0.1,0,0.2-0.1,0.3
			c-0.1,0.1-0.2,0.1-0.3,0.1h-0.5c-0.1,0-0.2,0-0.2-0.1c-0.1-0.1-0.1-0.2-0.1-0.3V1.4h-1.8c-0.1,0-0.2,0-0.2-0.1
			c-0.1-0.1-0.1-0.2-0.1-0.3V0.6c0-0.1,0-0.2,0.1-0.3c0.1-0.1,0.2-0.1,0.2-0.1h4.8c0.1,0,0.2,0,0.3,0.1c0.1,0.1,0.1,0.2,0.1,0.3
			L239.4,1z"/>
		<path class="st0" d="M246.8,10.8c0,0.1,0,0.2,0,0.2c0,0.1-0.1,0.1-0.3,0.1h-0.6c-0.1,0-0.2,0-0.2-0.1c-0.1-0.1-0.1-0.2-0.1-0.3
			L244,6h-1.4v4.8c0,0.1,0,0.2-0.1,0.2c-0.1,0.1-0.2,0.1-0.3,0.1h-0.5c-0.1,0-0.2,0-0.3-0.1c-0.1-0.1-0.1-0.2-0.1-0.2V0.6
			c0-0.1,0-0.2,0.1-0.2c0.1-0.1,0.1-0.1,0.2-0.1h1.9c0.5,0,1,0,1.5,0.2c0.4,0.1,0.8,0.3,1,0.7c0.2,0.3,0.3,0.6,0.4,0.9
			c0.1,0.4,0.1,0.8,0.1,1.2c0,0.6-0.1,1.2-0.3,1.7c-0.2,0.4-0.6,0.7-1.1,0.9L246.8,10.8z M242.6,4.8h1c0.2,0,0.5,0,0.7,0
			c0.2,0,0.4-0.1,0.5-0.2c0.1-0.1,0.2-0.1,0.2-0.2c0.1-0.1,0.1-0.2,0.1-0.3c0-0.1,0.1-0.2,0.1-0.4c0-0.2,0-0.4,0-0.5
			c0-0.3,0-0.7-0.1-1c-0.1-0.2-0.2-0.4-0.4-0.5c-0.1,0-0.2-0.1-0.2-0.1c-0.1,0-0.2,0-0.4,0h-1.7L242.6,4.8z"/>
		<path class="st0" d="M253.9,10.8c0,0.1,0,0.2-0.1,0.3c-0.1,0.1-0.2,0.1-0.2,0.1h-4.1c-0.1,0-0.2,0-0.2-0.1
			c-0.1-0.1-0.1-0.2-0.1-0.3V0.5c0-0.1,0-0.2,0.1-0.2c0.1-0.1,0.2-0.1,0.2-0.1h4c0.1,0,0.2,0,0.3,0.1c0.1,0.1,0.1,0.2,0.1,0.3V1
			c0,0.1,0,0.2-0.1,0.3c-0.1,0.1-0.2,0.1-0.3,0.1h-3.1v3.5h2.7c0.1,0,0.2,0,0.3,0.1c0.1,0.1,0.1,0.2,0.1,0.3v0.5
			c0,0.1,0,0.2-0.1,0.3c-0.1,0.1-0.2,0.1-0.3,0.1h-2.7v3.8h3.2c0.1,0,0.2,0,0.3,0.1c0.1,0.1,0.1,0.2,0.1,0.3L253.9,10.8z"/>
		<path class="st0" d="M84.7,24.5c0,0.1,0,0.2-0.1,0.3c-0.1,0.1-0.2,0.1-0.2,0.1h-2.7v4.7c0,0.1,0,0.2-0.1,0.3
			c-0.1,0.1-0.2,0.1-0.3,0.1h-0.5c-0.1,0-0.2,0-0.3-0.1c-0.1-0.1-0.1-0.2-0.1-0.3V19.3c0-0.1,0-0.2,0.1-0.2c0.1-0.1,0.2-0.1,0.3-0.1
			h4c0.1,0,0.2,0,0.2,0.1c0.1,0.1,0.1,0.2,0.1,0.3v0.5c0,0.1,0,0.2-0.1,0.2c-0.1,0.1-0.2,0.1-0.2,0.1h-3.1v3.4h2.6
			c0.1,0,0.2,0,0.3,0.1c0.1,0.1,0.1,0.2,0.1,0.3L84.7,24.5z"/>
		<path class="st0" d="M89.6,30.1c-0.5,0-1-0.1-1.4-0.3c-0.3-0.2-0.6-0.4-0.8-0.7c-0.2-0.3-0.3-0.6-0.4-0.9
			c-0.1-0.3-0.1-0.5-0.1-0.8c-0.1-1-0.1-2-0.1-2.9s0-1.9,0.1-2.9c0-0.3,0.1-0.5,0.1-0.8c0.1-0.3,0.2-0.6,0.4-0.9
			c0.2-0.3,0.5-0.5,0.8-0.7c0.9-0.4,1.9-0.4,2.8,0c0.3,0.2,0.6,0.4,0.8,0.7c0.2,0.3,0.3,0.6,0.4,0.9c0.1,0.3,0.1,0.5,0.1,0.8
			c0.1,1,0.1,2,0.1,2.9s0,1.9-0.1,2.9c0,0.3,0,0.5-0.1,0.8c-0.1,0.3-0.2,0.6-0.4,0.9c-0.2,0.3-0.5,0.5-0.8,0.7
			C90.6,30,90.1,30.1,89.6,30.1z M89.6,20.1c-0.2,0-0.5,0-0.7,0.2c-0.2,0.1-0.3,0.3-0.4,0.4c-0.1,0.2-0.2,0.4-0.2,0.6
			c0,0.2-0.1,0.5-0.1,0.7c0,0.8-0.1,1.7-0.1,2.4s0,1.6,0.1,2.4c0,0.2,0,0.5,0.1,0.7c0,0.2,0.1,0.4,0.2,0.6c0.1,0.2,0.2,0.3,0.4,0.4
			c0.4,0.2,1,0.2,1.4,0c0.2-0.1,0.3-0.3,0.4-0.4c0.1-0.2,0.2-0.4,0.2-0.6c0-0.2,0.1-0.5,0.1-0.7c0-0.8,0-1.7,0.1-2.4
			c0.1-0.8,0-1.6,0-2.5c0-0.2,0-0.5-0.1-0.7c0-0.2-0.1-0.4-0.2-0.6c-0.1-0.2-0.2-0.3-0.4-0.4C90.1,20.1,89.9,20,89.6,20.1L89.6,20.1
			z"/>
		<path class="st0" d="M100.2,29.6c0,0.1,0,0.2,0,0.2c-0.1,0.1-0.2,0.1-0.3,0.1h-0.6c-0.1,0-0.2,0-0.2-0.1c-0.1-0.1-0.1-0.2-0.2-0.3
			l-1.5-4.8h-1.4v4.8c0,0.1,0,0.2-0.1,0.2c-0.1,0.1-0.2,0.1-0.3,0.1h-0.5c-0.1,0-0.2,0-0.2-0.1c-0.1-0.1-0.1-0.2-0.1-0.2V19.3
			c0-0.1,0-0.2,0.1-0.3C95,19,95.1,19,95.2,19h1.9c0.5,0,1,0,1.5,0.1c0.4,0.1,0.8,0.3,1,0.7c0.2,0.3,0.3,0.6,0.4,0.9
			c0.1,0.4,0.1,0.8,0.1,1.2c0,0.6-0.1,1.2-0.3,1.7c-0.2,0.4-0.6,0.7-1.1,0.9L100.2,29.6z M96.1,23.6h1c0.2,0,0.5,0,0.7,0
			c0.2,0,0.4-0.1,0.5-0.2c0.1-0.1,0.2-0.1,0.2-0.2c0.1-0.1,0.1-0.2,0.1-0.3c0-0.1,0.1-0.2,0.1-0.4v-0.5c0-0.3,0-0.7-0.1-1
			c-0.1-0.2-0.2-0.4-0.4-0.5l-0.2-0.1c-0.1,0-0.2,0-0.4,0h-1.6V23.6z"/>
		<path class="st0" d="M111.5,26.9c0.1,0.9-0.2,1.7-0.7,2.4c-0.5,0.5-1.3,0.8-2,0.8c-0.5,0-0.9-0.1-1.3-0.3
			c-0.3-0.2-0.6-0.4-0.8-0.7c-0.2-0.3-0.4-0.7-0.5-1c-0.1-0.4-0.1-0.8-0.1-1.3v-0.2c0-0.1,0-0.2,0.1-0.2c0.1-0.1,0.2-0.1,0.3-0.1
			h0.5c0.1,0,0.2,0,0.2,0.1c0.1,0.1,0.1,0.2,0.1,0.2v0.2c0,0.3,0,0.7,0.1,1c0.1,0.2,0.2,0.5,0.3,0.6c0.1,0.2,0.3,0.3,0.5,0.3
			c0.2,0.1,0.4,0.1,0.6,0.1c0.4,0,0.8-0.1,1.1-0.4c0.3-0.4,0.5-0.9,0.4-1.4c0-0.4-0.1-0.7-0.3-1c-0.2-0.3-0.5-0.6-0.8-0.8
			c-0.3-0.2-0.6-0.5-1-0.7c-0.4-0.2-0.7-0.5-1-0.7c-0.3-0.3-0.6-0.6-0.8-1c-0.3-0.7-0.4-1.6-0.1-2.3c0.1-0.3,0.3-0.6,0.5-0.8
			c0.2-0.2,0.5-0.4,0.8-0.6c0.4-0.1,0.7-0.2,1.1-0.2c0.4,0,0.7,0.1,1.1,0.2c0.3,0.1,0.6,0.3,0.8,0.6c0.2,0.2,0.3,0.5,0.4,0.8
			c0.1,0.3,0.2,0.6,0.2,0.9v0.1c0,0.1,0,0.2-0.1,0.2c-0.1,0.1-0.2,0.1-0.3,0.1h-0.5c-0.1,0-0.2,0-0.2-0.1c-0.1-0.1-0.1-0.1-0.1-0.2
			l0,0c0-0.3-0.1-0.7-0.3-0.9c-0.2-0.3-0.6-0.4-0.9-0.4c-0.2,0-0.4,0-0.6,0.1c-0.3,0.1-0.6,0.4-0.6,0.7c0,0.2-0.1,0.3-0.1,0.5
			c0,0.4,0.1,0.7,0.3,1c0.2,0.3,0.5,0.6,0.8,0.8c0.3,0.2,0.6,0.5,1,0.7c0.4,0.2,0.7,0.5,1,0.7c0.3,0.3,0.6,0.6,0.8,1
			C111.3,26.1,111.5,26.5,111.5,26.9z"/>
		<path class="st0" d="M118.6,21.8c0,0.1,0,0.2-0.1,0.2c-0.1,0.1-0.2,0.1-0.3,0.1h-0.5c-0.2,0-0.3-0.1-0.3-0.3c0,0,0,0,0,0v-0.3
			c0-0.2,0-0.4-0.1-0.6c0-0.2-0.1-0.3-0.2-0.5c-0.1-0.2-0.2-0.3-0.4-0.3c-0.2-0.1-0.4-0.1-0.6-0.1c-0.3,0-0.5,0-0.7,0.1
			c-0.2,0.1-0.3,0.2-0.4,0.4c-0.1,0.2-0.2,0.4-0.2,0.6c0,0.2-0.1,0.5-0.1,0.7c0,0.5-0.1,0.9-0.1,1.3s0,0.8,0,1.2c0,0.4,0,0.8,0,1.2
			c0,0.4,0,0.8,0.1,1.3c0,0.2,0,0.5,0.1,0.7c0,0.2,0.1,0.4,0.2,0.6c0.1,0.2,0.3,0.4,0.4,0.5c0.4,0.2,0.9,0.2,1.4,0
			c0.2-0.1,0.3-0.2,0.4-0.4c0.1-0.2,0.2-0.4,0.2-0.6c0-0.2,0.1-0.5,0.1-0.7v-0.5c0-0.1,0-0.2,0.1-0.3c0.1-0.1,0.2-0.1,0.3-0.1h0.5
			c0.2,0,0.3,0.1,0.4,0.3c0,0,0,0,0,0v1.1c0,0.3,0,0.5-0.1,0.8c-0.1,0.3-0.2,0.6-0.4,0.8c-0.2,0.3-0.5,0.5-0.8,0.7
			c-0.4,0.2-0.9,0.3-1.4,0.3c-0.5,0-0.9-0.1-1.4-0.3c-0.3-0.2-0.6-0.4-0.8-0.7c-0.2-0.3-0.3-0.5-0.4-0.8c-0.1-0.2-0.1-0.5-0.1-0.7
			c0-0.5-0.1-1-0.1-1.5c0-0.5,0-1,0-1.5V23c0-0.5,0-1,0.1-1.5c0-0.3,0.1-0.5,0.1-0.8c0.1-0.7,0.6-1.3,1.2-1.6c0.5-0.2,1-0.3,1.5-0.3
			c0.4,0,0.8,0.1,1.2,0.3c0.3,0.2,0.5,0.4,0.7,0.6c0.2,0.2,0.3,0.5,0.4,0.8c0.1,0.2,0.1,0.5,0.1,0.7L118.6,21.8z"/>
		<path class="st0" d="M121.5,29.9c-0.1,0-0.2,0-0.2-0.1c-0.1-0.1-0.1-0.2-0.1-0.3V19.3c0-0.1,0-0.2,0.1-0.2
			c0.1-0.1,0.2-0.1,0.2-0.1h0.6c0.1,0,0.2,0,0.3,0.1c0.1,0.1,0.1,0.2,0.1,0.2v10.2c0,0.1,0,0.2-0.1,0.3c-0.1,0.1-0.2,0.1-0.3,0.1
			L121.5,29.9z"/>
		<path class="st0" d="M130.3,29.6c0,0.1,0,0.2-0.1,0.2c-0.1,0.1-0.2,0.1-0.2,0.1h-4.1c-0.1,0-0.2,0-0.3-0.1
			c-0.1-0.1-0.1-0.2-0.1-0.3V19.3c0-0.1,0-0.2,0.1-0.2c0.1-0.1,0.2-0.1,0.3-0.1h4c0.1,0,0.2,0,0.3,0.1c0.1,0.1,0.1,0.2,0.1,0.3v0.5
			c0,0.1,0,0.2-0.1,0.2c-0.1,0.1-0.2,0.1-0.3,0.1h-3.1v3.4h2.6c0.1,0,0.2,0,0.3,0.1c0.1,0.1,0.1,0.2,0.1,0.3v0.5
			c0,0.1,0,0.2-0.1,0.2c-0.1,0.1-0.2,0.1-0.3,0.1h-2.6v3.8h3.2c0.1,0,0.2,0,0.2,0.1c0.1,0.1,0.1,0.2,0.1,0.3L130.3,29.6z"/>
		<path class="st0" d="M133.5,20.9l0.2,3.3v5.4c0,0.1,0,0.2-0.1,0.3c-0.1,0.1-0.2,0.1-0.3,0.1h-0.5c-0.1,0-0.2,0-0.3-0.1
			c-0.1-0.1-0.1-0.2-0.1-0.3V19.3c0-0.1,0-0.2,0.1-0.2c0.1-0.1,0.2-0.1,0.3-0.1h0.9c0.1,0,0.2,0,0.2,0.1c0,0.1,0.1,0.2,0.1,0.2
			l3,8.7l-0.2-3.1v-5.5c0-0.1,0-0.2,0.1-0.3c0.1-0.1,0.2-0.1,0.3-0.1h0.5c0.1,0,0.2,0,0.3,0.1c0.1,0.1,0.1,0.2,0.1,0.3v10.2
			c0,0.1,0,0.2-0.1,0.2c-0.1,0.1-0.2,0.1-0.3,0.1h-0.9c-0.1,0-0.2,0-0.2-0.1c-0.1-0.1-0.1-0.2-0.1-0.2L133.5,20.9z"/>
		<path class="st0" d="M145.8,21.8c0,0.1,0,0.2-0.1,0.2c-0.1,0.1-0.2,0.1-0.3,0.1H145c-0.1,0-0.2,0-0.2-0.1
			c-0.1-0.1-0.1-0.2-0.1-0.2v-0.2c0-0.2,0-0.4-0.1-0.6c0-0.2-0.1-0.3-0.2-0.5c-0.1-0.1-0.2-0.3-0.4-0.3c-0.2-0.1-0.4-0.1-0.6-0.1
			c-0.3,0-0.5,0-0.7,0.1c-0.2,0.1-0.3,0.2-0.4,0.4c-0.1,0.2-0.2,0.4-0.2,0.6c0,0.2-0.1,0.5-0.1,0.7c0,0.5-0.1,0.9-0.1,1.3
			s0,0.8,0,1.2v1.2c0,0.4,0,0.8,0.1,1.3c0,0.2,0,0.5,0.1,0.7c0,0.2,0.1,0.4,0.2,0.6c0.1,0.2,0.2,0.3,0.4,0.5
			c0.2,0.1,0.5,0.2,0.7,0.2c0.2,0,0.4-0.1,0.6-0.2c0.2-0.1,0.3-0.2,0.4-0.4c0.1-0.2,0.2-0.4,0.2-0.6c0-0.2,0.1-0.5,0.1-0.7v-0.5
			c0-0.1,0-0.2,0.1-0.3c0.1-0.1,0.2-0.1,0.3-0.1h0.5c0.1,0,0.2,0,0.3,0.1c0.1,0.1,0.1,0.2,0.1,0.3v1c0,0.3,0,0.5-0.1,0.8
			c-0.1,0.3-0.2,0.6-0.4,0.8c-0.2,0.3-0.5,0.5-0.8,0.7c-0.4,0.2-0.9,0.3-1.4,0.3c-0.5,0-0.9-0.1-1.4-0.3c-0.3-0.2-0.6-0.4-0.8-0.7
			c-0.2-0.3-0.3-0.5-0.4-0.8c-0.1-0.2-0.1-0.5-0.1-0.7c0-0.5-0.1-1-0.1-1.5c0-0.5,0-1,0-1.5V23c0-0.5,0-1,0.1-1.5
			c0-0.3,0-0.5,0.1-0.8c0.1-0.3,0.2-0.6,0.4-0.9c0.2-0.3,0.5-0.5,0.8-0.7c0.5-0.2,1-0.3,1.5-0.3c0.4,0,0.8,0.1,1.2,0.3
			c0.6,0.3,1,0.8,1.1,1.5c0.1,0.2,0.1,0.5,0.1,0.7L145.8,21.8z"/>
		<path class="st0" d="M152.9,29.6c0,0.1,0,0.2-0.1,0.2c-0.1,0.1-0.2,0.1-0.3,0.1h-4.1c-0.1,0-0.2,0-0.2-0.1
			c-0.1-0.1-0.1-0.2-0.1-0.3V19.3c0-0.1,0-0.2,0.1-0.2c0.1-0.1,0.2-0.1,0.2-0.1h4c0.1,0,0.2,0,0.2,0.1c0.1,0.1,0.1,0.2,0.1,0.3v0.5
			c0,0.1,0,0.2-0.1,0.2c-0.1,0.1-0.2,0.1-0.2,0.1h-3.1v3.4h2.7c0.1,0,0.2,0,0.3,0.1c0.1,0.1,0.1,0.2,0.1,0.3v0.5
			c0,0.1,0,0.2-0.1,0.3c-0.1,0.1-0.2,0.1-0.3,0.1h-2.7v3.8h3.2c0.1,0,0.2,0,0.2,0.1c0.1,0.1,0.1,0.2,0.1,0.3L152.9,29.6z"/>
		<path class="st0" d="M161.3,19c0.2,0,0.3,0.1,0.4,0.4l2,10.2c0,0.1,0,0.2,0,0.3c-0.1,0.1-0.2,0.1-0.2,0.1h-0.6
			c-0.2,0-0.3-0.1-0.4-0.4l-0.4-1.8h-2.1l-0.4,1.8c0,0.2-0.2,0.4-0.4,0.4h-0.6c-0.1,0-0.2,0-0.2-0.1c-0.1-0.1-0.1-0.2-0.1-0.3
			l2.1-10.2c0-0.1,0-0.2,0.1-0.2c0.1-0.1,0.2-0.1,0.2-0.1L161.3,19z M161.9,26.6l-0.6-3.8l-0.2-2.1H161l-0.2,2.1l-0.6,3.8
			L161.9,26.6z"/>
		<path class="st0" d="M167.1,20.9l0.2,3.3v5.4c0,0.1,0,0.2-0.1,0.3c-0.1,0.1-0.2,0.1-0.3,0.1h-0.5c-0.1,0-0.2,0-0.3-0.1
			c-0.1-0.1-0.1-0.2-0.1-0.3V19.3c0-0.1,0-0.2,0.1-0.2c0.1-0.1,0.2-0.1,0.3-0.1h0.9c0.1,0,0.2,0,0.2,0.1c0,0.1,0.1,0.2,0.1,0.2
			l2.9,8.7l-0.2-3.1v-5.5c0-0.1,0-0.2,0.1-0.3c0.1-0.1,0.2-0.1,0.3-0.1h0.5c0.1,0,0.2,0,0.2,0.1c0.1,0.1,0.1,0.2,0.1,0.3v10.2
			c0,0.1,0,0.2-0.1,0.2c-0.1,0.1-0.2,0.1-0.2,0.1h-0.9c-0.1,0-0.2,0-0.2-0.1c-0.1-0.1-0.1-0.2-0.1-0.2L167.1,20.9z"/>
		<path class="st0" d="M174.5,19.3c0-0.1,0-0.2,0.1-0.2c0.1-0.1,0.2-0.1,0.3-0.1h2.4c0.5,0,0.9,0.1,1.4,0.2c0.3,0.2,0.6,0.4,0.8,0.6
			c0.2,0.2,0.3,0.5,0.4,0.8c0.1,0.3,0.1,0.5,0.1,0.7c0.1,1,0.2,2,0.2,3.1c0,1-0.1,2.1-0.2,3.1c0,0.3-0.1,0.5-0.1,0.8
			c-0.1,0.6-0.6,1.2-1.2,1.4c-0.5,0.2-1,0.3-1.5,0.3h-2.2c-0.1,0-0.2,0-0.3-0.1c-0.1-0.1-0.1-0.2-0.1-0.2L174.5,19.3z M175.7,28.7
			h1.5c0.3,0,0.5,0,0.7-0.1c0.2-0.1,0.3-0.2,0.4-0.4c0.1-0.2,0.2-0.4,0.2-0.6c0-0.2,0.1-0.4,0.1-0.7c0.1-0.8,0.1-1.7,0.1-2.5
			c0-0.8-0.1-1.6-0.2-2.4c0-0.2-0.1-0.4-0.1-0.6c0-0.2-0.1-0.4-0.2-0.6c-0.1-0.2-0.2-0.3-0.4-0.4c-0.2-0.1-0.5-0.2-0.7-0.1h-1.4
			L175.7,28.7z"/>
		<path class="st0" d="M190.1,19.9c0,0.1,0,0.2-0.1,0.3c-0.1,0.1-0.2,0.1-0.3,0.1h-1.7v9.3c0,0.1,0,0.2-0.1,0.3
			c-0.1,0.1-0.2,0.1-0.3,0.1h-0.5c-0.1,0-0.2,0-0.2-0.1c-0.1-0.1-0.1-0.2-0.1-0.3v-9.3h-1.8c-0.1,0-0.2,0-0.2-0.1
			c-0.1-0.1-0.1-0.2-0.1-0.3v-0.5c0-0.1,0-0.2,0.1-0.3c0.1-0.1,0.2-0.1,0.2-0.1h4.8c0.1,0,0.2,0,0.3,0.1c0.1,0.1,0.1,0.2,0.1,0.3
			L190.1,19.9z"/>
		<path class="st0" d="M196.8,29.6c0,0.1,0,0.2-0.1,0.2c-0.1,0.1-0.2,0.1-0.3,0.1h-4.1c-0.1,0-0.2,0-0.3-0.1
			c-0.1-0.1-0.1-0.2-0.1-0.3V19.3c0-0.1,0-0.2,0.1-0.2c0.1-0.1,0.2-0.1,0.3-0.1h4c0.1,0,0.2,0,0.3,0.1c0.1,0.1,0.1,0.2,0.1,0.3v0.5
			c0,0.1,0,0.2-0.1,0.2c-0.1,0.1-0.2,0.1-0.3,0.1h-3.1v3.4h2.7c0.1,0,0.2,0,0.2,0.1c0.1,0.1,0.1,0.2,0.1,0.3v0.5
			c0,0.1,0,0.2-0.1,0.3c-0.1,0.1-0.2,0.1-0.2,0.1h-2.7v3.8h3.2c0.1,0,0.2,0,0.3,0.1c0.1,0.1,0.1,0.2,0.1,0.3L196.8,29.6z"/>
		<path class="st0" d="M204,21.8c0,0.1,0,0.2-0.1,0.2c-0.1,0.1-0.2,0.1-0.3,0.1h-0.6c-0.1,0-0.2,0-0.3-0.1c-0.1-0.1-0.1-0.2-0.1-0.2
			v-0.2c0-0.2,0-0.4-0.1-0.6c0-0.2-0.1-0.3-0.2-0.5c-0.1-0.2-0.2-0.3-0.4-0.3c-0.2-0.1-0.4-0.1-0.6-0.1c-0.3,0-0.5,0-0.7,0.1
			c-0.2,0.1-0.3,0.2-0.4,0.4c-0.1,0.2-0.2,0.4-0.2,0.6c0,0.2-0.1,0.5-0.1,0.7c0,0.5,0,0.9-0.1,1.3s0,0.8,0,1.2s0,0.8,0,1.2
			c0,0.4,0,0.8,0.1,1.3c0,0.2,0,0.5,0.1,0.7c0,0.2,0.1,0.4,0.2,0.6c0.1,0.2,0.2,0.3,0.4,0.5c0.2,0.1,0.5,0.2,0.7,0.2
			c0.2,0,0.4-0.1,0.6-0.2c0.2-0.1,0.3-0.2,0.4-0.4c0.1-0.2,0.2-0.4,0.2-0.6c0-0.2,0.1-0.5,0.1-0.7v-0.5c0-0.1,0-0.2,0.1-0.3
			c0.1-0.1,0.2-0.1,0.3-0.1h0.5c0.1,0,0.2,0,0.2,0.1c0.1,0.1,0.1,0.2,0.1,0.3v1c0,0.3,0,0.5-0.1,0.8c-0.1,0.3-0.2,0.6-0.4,0.8
			c-0.2,0.3-0.5,0.5-0.8,0.7c-0.4,0.2-0.9,0.3-1.4,0.3c-0.5,0-0.9-0.1-1.4-0.3c-0.3-0.2-0.6-0.4-0.8-0.7c-0.2-0.3-0.3-0.5-0.4-0.8
			c-0.1-0.2-0.1-0.5-0.1-0.7c0-0.5-0.1-1-0.1-1.5s0-1,0-1.5V23c0-0.5,0-1,0.1-1.5c0-0.3,0-0.5,0.1-0.8c0.1-0.3,0.2-0.6,0.4-0.9
			c0.2-0.3,0.5-0.5,0.8-0.7c0.5-0.2,1-0.3,1.5-0.3c0.4,0,0.8,0.1,1.2,0.3c0.3,0.2,0.5,0.4,0.7,0.6c0.2,0.2,0.3,0.5,0.3,0.8
			c0.1,0.2,0.1,0.5,0.1,0.7L204,21.8z"/>
		<path class="st0" d="M210.7,29.9c-0.1,0-0.2,0-0.2-0.1c-0.1-0.1-0.1-0.2-0.1-0.3v-4.7h-2.9v4.7c0,0.1,0,0.2-0.1,0.3
			c-0.1,0.1-0.2,0.1-0.3,0.1h-0.5c-0.1,0-0.2,0-0.3-0.1c-0.1-0.1-0.1-0.2-0.1-0.3V19.3c0-0.1,0-0.2,0.1-0.2c0.1-0.1,0.2-0.1,0.3-0.1
			h0.5c0.1,0,0.2,0,0.3,0.1c0.1,0.1,0.1,0.2,0.1,0.2v4.3h2.9v-4.3c0-0.1,0-0.2,0.1-0.2c0.1-0.1,0.2-0.1,0.2-0.1h0.5
			c0.1,0,0.2,0,0.3,0.1c0.1,0.1,0.1,0.2,0.1,0.2v10.2c0,0.1,0,0.2-0.1,0.2c-0.1,0.1-0.2,0.1-0.3,0.1L210.7,29.9z"/>
		<path class="st0" d="M215.5,20.9l0.2,3.3v5.4c0,0.1,0,0.2-0.1,0.3c-0.1,0.1-0.2,0.1-0.3,0.1h-0.5c-0.1,0-0.2,0-0.3-0.1
			c-0.1-0.1-0.1-0.2-0.1-0.3V19.3c0-0.1,0-0.2,0.1-0.2c0.1-0.1,0.2-0.1,0.3-0.1h0.9c0.1,0,0.2,0,0.2,0.1c0,0.1,0.1,0.2,0.1,0.2
			l2.9,8.7l-0.2-3.1v-5.5c0-0.1,0-0.2,0.1-0.3c0.1-0.1,0.2-0.1,0.3-0.1h0.5c0.1,0,0.2,0,0.3,0.1c0.1,0.1,0.1,0.2,0.1,0.3v10.2
			c0,0.1,0,0.2-0.1,0.2c-0.1,0.1-0.2,0.1-0.3,0.1h-0.9c-0.1,0-0.2,0-0.2-0.1c-0.1-0.1-0.1-0.2-0.1-0.2L215.5,20.9z"/>
		<path class="st0" d="M225.3,30.1c-0.5,0-1-0.1-1.4-0.3c-0.3-0.2-0.6-0.4-0.8-0.7c-0.2-0.3-0.3-0.6-0.4-0.9
			c-0.1-0.3-0.1-0.5-0.1-0.8c0-1-0.1-2-0.1-2.9s0-1.9,0.1-2.9c0-0.3,0.1-0.5,0.1-0.8c0.1-0.3,0.2-0.6,0.4-0.9
			c0.2-0.3,0.5-0.5,0.8-0.7c0.9-0.4,1.9-0.4,2.8,0c0.3,0.2,0.6,0.4,0.8,0.7c0.2,0.3,0.3,0.6,0.4,0.9c0.1,0.3,0.1,0.5,0.1,0.8
			c0,1,0.1,2,0.1,2.9s0,1.9-0.1,2.9c0,0.3-0.1,0.5-0.1,0.8c-0.1,0.3-0.2,0.6-0.4,0.9c-0.2,0.3-0.5,0.5-0.8,0.7
			C226.3,30,225.8,30.1,225.3,30.1z M225.3,20.1c-0.3,0-0.5,0-0.7,0.2c-0.2,0.1-0.3,0.3-0.4,0.4c-0.1,0.2-0.2,0.4-0.2,0.6
			c0,0.2-0.1,0.5-0.1,0.7c0,0.8-0.1,1.7-0.1,2.4s0,1.6,0.1,2.4c0,0.2,0,0.5,0.1,0.7c0,0.2,0.1,0.4,0.2,0.6c0.1,0.2,0.2,0.3,0.4,0.4
			c0.2,0.1,0.5,0.2,0.7,0.2c0.2,0,0.5,0,0.7-0.2c0.2-0.1,0.3-0.3,0.4-0.4c0.1-0.2,0.2-0.4,0.2-0.6c0-0.2,0-0.5,0.1-0.7
			c0-0.8,0.1-1.7,0.1-2.4s0-1.6-0.1-2.4c0-0.2,0-0.5-0.1-0.7c0-0.2-0.1-0.4-0.2-0.6c-0.1-0.2-0.2-0.3-0.4-0.4
			C225.8,20.1,225.5,20.1,225.3,20.1L225.3,20.1z"/>
		<path class="st0" d="M235.1,29.6c0,0.1,0,0.2-0.1,0.2c-0.1,0.1-0.2,0.1-0.2,0.1h-3.8c-0.1,0-0.2,0-0.3-0.1
			c-0.1-0.1-0.1-0.2-0.1-0.3V19.3c0-0.1,0-0.2,0.1-0.2c0.1-0.1,0.2-0.1,0.3-0.1h0.5c0.1,0,0.2,0,0.3,0.1c0.1,0.1,0.1,0.2,0.1,0.2
			v9.4h3c0.1,0,0.2,0,0.3,0.1c0.1,0.1,0.1,0.2,0.1,0.3L235.1,29.6z"/>
		<path class="st0" d="M238.8,30.1c-0.5,0-1-0.1-1.4-0.3c-0.3-0.2-0.6-0.4-0.8-0.7c-0.2-0.3-0.3-0.6-0.4-0.9
			c-0.1-0.3-0.1-0.5-0.1-0.8c0-1-0.1-2-0.1-2.9s0-1.9,0.1-2.9c0-0.3,0.1-0.5,0.1-0.8c0.1-0.3,0.2-0.6,0.4-0.9
			c0.2-0.3,0.5-0.5,0.8-0.7c0.9-0.4,1.9-0.4,2.8,0c0.3,0.2,0.6,0.4,0.8,0.7c0.2,0.3,0.3,0.6,0.4,0.9c0.1,0.3,0.1,0.5,0.1,0.8
			c0.1,1,0.1,2,0.1,2.9s0,1.9-0.1,2.9c0,0.3,0,0.5-0.1,0.8c-0.1,0.3-0.2,0.6-0.4,0.9c-0.2,0.3-0.5,0.5-0.8,0.7
			C239.7,30,239.3,30.1,238.8,30.1z M238.8,20.1c-0.2,0-0.5,0-0.7,0.2c-0.2,0.1-0.3,0.3-0.4,0.4c-0.1,0.2-0.2,0.4-0.2,0.6
			c0,0.2-0.1,0.5-0.1,0.7c-0.1,0.8-0.1,1.7-0.1,2.4s0,1.6,0.1,2.4c0,0.2,0,0.5,0.1,0.7c0,0.2,0.1,0.4,0.2,0.6
			c0.1,0.2,0.2,0.3,0.4,0.4c0.4,0.2,1,0.2,1.4,0c0.2-0.1,0.3-0.3,0.4-0.4c0.1-0.2,0.2-0.4,0.2-0.6c0-0.2,0.1-0.5,0.1-0.7
			c0-0.8,0.1-1.7,0.1-2.4s0-1.6-0.1-2.4c0-0.2,0-0.5-0.1-0.7c0-0.2-0.1-0.4-0.2-0.6c-0.1-0.2-0.2-0.3-0.4-0.4
			C239.3,20.1,239,20.1,238.8,20.1L238.8,20.1z"/>
		<path class="st0" d="M249,24v5.6c0,0.1,0,0.2-0.1,0.2c-0.1,0.1-0.2,0.1-0.2,0.1h-0.5c-0.1,0-0.2,0-0.2-0.1c0-0.1-0.1-0.1-0.1-0.2
			v-0.1c-0.2,0.2-0.4,0.4-0.6,0.4c-0.7,0.2-1.4,0.1-2-0.2c-0.3-0.2-0.6-0.5-0.8-0.8c-0.2-0.3-0.3-0.6-0.4-0.9
			c-0.1-0.2-0.1-0.5-0.1-0.8c-0.1-0.9-0.1-1.9-0.1-2.8c0-0.9,0-1.9,0.1-2.8c0-0.3,0.1-0.6,0.1-0.9c0.1-0.3,0.2-0.6,0.4-0.9
			c0.2-0.3,0.5-0.5,0.8-0.7c0.4-0.2,0.9-0.3,1.3-0.3c0.5,0,1,0.1,1.4,0.3c0.6,0.3,1,0.9,1.1,1.6c0,0.2,0.1,0.5,0.1,0.7v0.2
			c0,0.1,0,0.2-0.1,0.2c-0.1,0.1-0.2,0.1-0.2,0.1h-0.5c-0.1,0-0.2,0-0.3-0.1c-0.1-0.1-0.1-0.2-0.1-0.2c0-0.2,0-0.3,0-0.5
			c0-0.2-0.1-0.3-0.1-0.5c-0.1-0.2-0.2-0.3-0.4-0.4c-0.2-0.1-0.5-0.2-0.7-0.1c-0.2,0-0.5,0-0.7,0.1c-0.2,0.1-0.3,0.2-0.4,0.4
			c-0.1,0.2-0.2,0.4-0.2,0.6c0,0.2-0.1,0.4-0.1,0.7c-0.1,0.9-0.1,1.8-0.1,2.6c0,0.9,0.1,1.7,0.1,2.6c0,0.5,0.2,1,0.4,1.4
			c0.2,0.3,0.6,0.5,0.9,0.4c0.3,0,0.5,0,0.7-0.2c0.2-0.1,0.3-0.3,0.4-0.5c0.1-0.2,0.1-0.4,0.2-0.6c0-0.2,0-0.5,0-0.7v-1.7h-1.3
			c-0.1,0-0.2,0-0.2-0.1c-0.1-0.1-0.1-0.2-0.1-0.3v-0.5c0-0.1,0-0.2,0.1-0.3c0.1-0.1,0.2-0.1,0.2-0.1L249,24z"/>
		<path class="st0" d="M253.2,29.9c-0.1,0-0.2,0-0.3-0.1c-0.1-0.1-0.1-0.2-0.1-0.3v-4.7l-2-5.6c0-0.1,0-0.2,0-0.2
			c0.1,0,0.1-0.1,0.2-0.1h0.6c0.1,0,0.2,0,0.2,0.1c0.1,0.1,0.1,0.2,0.1,0.3l1.3,4l1.4-4c0-0.1,0.1-0.2,0.1-0.3
			c0.1-0.1,0.2-0.1,0.2-0.1h0.7c0.1,0,0.2,0,0.3,0.1c0,0.1,0,0.2,0,0.2l-2.1,5.6v4.7c0,0.1,0,0.2-0.1,0.3c-0.1,0.1-0.2,0.1-0.3,0.1
			L253.2,29.9z"/>
		<path class="st0" d="M81.5,45.9c0,0.2,0,0.5,0.1,0.7c0,0.2,0.1,0.4,0.2,0.6c0.1,0.2,0.3,0.3,0.4,0.4c0.5,0.2,1,0.2,1.5,0
			c0.2-0.1,0.3-0.2,0.4-0.4c0.1-0.2,0.2-0.4,0.2-0.6c0-0.2,0-0.5,0-0.7v-7.7c0-0.1,0-0.2,0.1-0.2c0.1-0.1,0.2-0.1,0.3-0.1h0.5
			c0.2,0,0.3,0.1,0.4,0.3c0,0,0,0,0,0l0,0v8.2c0,0.3,0,0.5-0.1,0.8c-0.1,0.3-0.2,0.6-0.4,0.8c-0.2,0.3-0.5,0.5-0.8,0.7
			c-0.5,0.2-1,0.3-1.5,0.3c-0.5,0-0.9-0.1-1.4-0.3c-0.3-0.2-0.6-0.4-0.8-0.6c-0.2-0.2-0.3-0.5-0.4-0.8c0-0.2-0.1-0.5-0.1-0.7v-8.3
			c0-0.1,0-0.2,0.1-0.3c0.1-0.1,0.2-0.1,0.3-0.1h0.5c0.2,0,0.4,0.2,0.4,0.3l0,0L81.5,45.9z"/>
		<path class="st0" d="M89.3,39.8l0.2,3.3v5.4c0,0.1,0,0.2-0.1,0.2c-0.1,0.1-0.2,0.1-0.3,0.1h-0.5c-0.1,0-0.2,0-0.3-0.1
			c-0.1-0.1-0.1-0.2-0.1-0.3V38.2c0-0.1,0-0.2,0.1-0.2c0.1-0.1,0.2-0.1,0.3-0.1h0.9c0.1,0,0.2,0,0.2,0.1c0,0.1,0.1,0.2,0.1,0.2
			l2.9,8.7l-0.2-3.1v-5.5c0-0.1,0-0.2,0.1-0.3c0.1-0.1,0.2-0.1,0.3-0.1h0.5c0.1,0,0.2,0,0.3,0.1c0.1,0.1,0.1,0.2,0.1,0.3v10.2
			c0,0.2-0.2,0.4-0.4,0.3h-0.9c-0.1,0-0.2,0-0.2-0.1c0-0.1-0.1-0.2-0.1-0.2L89.3,39.8z"/>
		<path class="st0" d="M97.3,48.9c-0.1,0-0.2,0-0.2-0.1c-0.1-0.1-0.1-0.2-0.1-0.2V38.2c0-0.1,0.1-0.2,0.1-0.2
			c0.1-0.1,0.2-0.1,0.2-0.1h0.5c0.1,0,0.2,0,0.2,0.1c0.1,0.1,0.1,0.2,0.1,0.2v10.2c0,0.1,0,0.2-0.1,0.2c-0.1,0.1-0.2,0.1-0.3,0.1
			H97.3z"/>
		<path class="st0" d="M102.7,48.9c-0.2,0-0.3-0.1-0.4-0.3l-2.1-10.2c-0.1-0.1,0-0.3,0.2-0.3c0,0,0.1,0,0.1,0h0.6
			c0.2,0,0.3,0.1,0.4,0.4l0.6,3.3l0.8,4.9l0.8-4.9l0.6-3.3c0-0.2,0.2-0.4,0.4-0.4h0.6c0.1,0,0.2,0,0.2,0.1c0,0.1,0,0.2,0,0.3
			l-2.1,10.2c0,0.2-0.2,0.3-0.3,0.3L102.7,48.9z"/>
		<path class="st0" d="M112.7,48.5c0,0.1,0,0.2-0.1,0.2c-0.1,0.1-0.2,0.1-0.2,0.1h-4.1c-0.1,0-0.2,0-0.3-0.1
			c-0.1-0.1-0.1-0.2-0.1-0.2V38.2c0-0.1,0.1-0.2,0.1-0.2c0.1-0.1,0.2-0.1,0.3-0.1h4c0.1,0,0.2,0,0.3,0.1c0.1,0.1,0.1,0.2,0.1,0.3
			v0.6c0,0.1,0,0.2-0.1,0.3c-0.1,0.1-0.2,0.1-0.3,0.1h-3.1v3.4h2.6c0.1,0,0.2,0,0.3,0.1c0.1,0.1,0.1,0.2,0.1,0.3v0.5
			c0,0.1,0,0.2-0.1,0.2c-0.1,0.1-0.2,0.1-0.3,0.1h-2.6v3.8h3.2c0.1,0,0.2,0,0.2,0.1c0.1,0.1,0.1,0.2,0.1,0.3L112.7,48.5z"/>
		<path class="st0" d="M120.4,48.5c0,0.1,0,0.1,0,0.2c0,0.1-0.2,0.1-0.3,0.1h-0.6c-0.1,0-0.2,0-0.2-0.1c-0.1-0.1-0.1-0.2-0.1-0.3
			l-1.5-4.8h-1.4v4.8c0,0.1,0,0.2-0.1,0.2c-0.1,0.1-0.2,0.1-0.3,0.1h-0.5c-0.1,0-0.2,0-0.2-0.1c-0.1-0.1-0.1-0.1-0.1-0.2V38.2
			c0-0.2,0.2-0.3,0.3-0.4h1.9c0.5,0,1,0,1.5,0.2c0.4,0.1,0.8,0.3,1,0.7c0.2,0.3,0.3,0.6,0.4,0.9c0.1,0.4,0.1,0.8,0.1,1.2
			c0,0.6-0.1,1.2-0.3,1.7c-0.2,0.4-0.6,0.7-1.1,0.9L120.4,48.5z M116.2,42.5h1c0.2,0,0.5,0,0.7,0c0.2,0,0.4-0.1,0.5-0.2
			c0.1-0.1,0.2-0.1,0.2-0.2c0.1-0.1,0.1-0.2,0.2-0.3c0.1-0.1,0.1-0.2,0.1-0.4v-0.5c0-0.3,0-0.7-0.1-1c-0.1-0.2-0.2-0.4-0.4-0.5
			c-0.1,0-0.2-0.1-0.2-0.1c-0.1,0-0.2,0-0.3,0h-1.6L116.2,42.5z"/>
		<path class="st0" d="M127.6,45.9c0.1,0.9-0.2,1.7-0.7,2.4c-0.5,0.5-1.3,0.8-2,0.8c-0.5,0-0.9-0.1-1.3-0.3
			c-0.4-0.2-0.7-0.4-0.9-0.8c-0.2-0.3-0.4-0.7-0.4-1.1c-0.1-0.4-0.1-0.9-0.1-1.3v-0.2c0-0.1,0-0.2,0.1-0.2c0.1-0.1,0.2-0.1,0.3-0.1
			h0.5c0.1,0,0.2,0,0.2,0.1c0.1,0.1,0.1,0.2,0.1,0.2v0.2c0,0.3,0,0.7,0.1,1c0.1,0.2,0.2,0.5,0.3,0.6c0.1,0.1,0.3,0.3,0.5,0.3
			c0.2,0.1,0.4,0.1,0.6,0.1c0.4,0,0.8-0.1,1.1-0.4c0.3-0.4,0.5-0.9,0.4-1.4c0-0.4-0.1-0.7-0.3-1c-0.2-0.3-0.5-0.6-0.8-0.8
			c-0.3-0.2-0.6-0.5-1-0.7c-0.4-0.2-0.7-0.5-1-0.8c-0.3-0.3-0.6-0.6-0.8-1c-0.2-0.4-0.3-0.9-0.3-1.4c0-0.3,0.1-0.7,0.2-1
			c0.1-0.3,0.3-0.6,0.5-0.8c0.2-0.2,0.5-0.4,0.8-0.6c0.4-0.1,0.7-0.2,1.1-0.2c0.4,0,0.8,0.1,1.1,0.2c0.3,0.1,0.6,0.3,0.8,0.6
			c0.2,0.2,0.4,0.5,0.5,0.8c0.1,0.3,0.2,0.6,0.2,0.9v0.1c0,0.2-0.1,0.3-0.3,0.4c0,0,0,0,0,0h-0.5c-0.1,0-0.2,0-0.3-0.1
			c-0.1-0.1-0.1-0.2-0.1-0.2l0,0c0-0.4-0.1-0.7-0.3-1c-0.2-0.2-0.6-0.4-0.9-0.4c-0.2,0-0.4,0-0.6,0.1c-0.2,0.1-0.3,0.2-0.4,0.3
			c-0.1,0.1-0.2,0.3-0.2,0.4c0,0.2-0.1,0.3-0.1,0.5c0,0.4,0.1,0.7,0.3,1c0.2,0.3,0.5,0.6,0.8,0.8c0.3,0.2,0.6,0.5,1,0.7
			c0.4,0.2,0.7,0.5,1,0.8c0.3,0.3,0.6,0.6,0.8,1C127.5,44.9,127.6,45.4,127.6,45.9z"/>
		<path class="st0" d="M130.3,48.9c-0.1,0-0.2,0-0.3-0.1c-0.1-0.1-0.1-0.2-0.1-0.2V38.2c0-0.1,0-0.2,0.1-0.2
			c0.1-0.1,0.2-0.1,0.3-0.1h0.6c0.1,0,0.2,0,0.3,0.1c0.1,0.1,0.1,0.2,0.1,0.2v10.2c0,0.1,0,0.2-0.1,0.2c-0.1,0.1-0.2,0.1-0.3,0.1
			H130.3z"/>
		<path class="st0" d="M138.9,38.8c0,0.1,0,0.2-0.1,0.3c-0.1,0.1-0.2,0.1-0.2,0.1h-1.8v9.3c0,0.1,0,0.2-0.1,0.2
			c-0.1,0.1-0.2,0.1-0.3,0.1h-0.5c-0.1,0-0.2,0-0.2-0.1c-0.1-0.1-0.1-0.2-0.1-0.2v-9.3h-1.8c-0.1,0-0.2,0-0.2-0.1
			c-0.1-0.1-0.1-0.2-0.1-0.3v-0.5c0-0.1,0-0.2,0.1-0.3c0.1-0.1,0.2-0.1,0.2-0.1h4.8c0.1,0,0.2,0,0.2,0.1c0.1,0.1,0.1,0.2,0.1,0.3
			L138.9,38.8z"/>
		<path class="st0" d="M142.4,48.9c-0.1,0-0.2,0-0.3-0.1c-0.1-0.1-0.1-0.2-0.1-0.2v-4.7l-2-5.6c0-0.1,0-0.2,0-0.2
			c0.1-0.1,0.2-0.1,0.3-0.1h0.6c0.1,0,0.2,0,0.2,0.1c0.1,0.1,0.1,0.2,0.1,0.3l1.3,4l1.4-4c0-0.1,0.1-0.2,0.1-0.2
			c0.1-0.1,0.1-0.1,0.2-0.1h0.7c0.1,0,0.2,0,0.3,0.1c0,0.1,0,0.2,0,0.2l-2.1,5.6v4.7c0,0.1,0,0.2-0.1,0.2c-0.1,0.1-0.2,0.1-0.3,0.1
			L142.4,48.9z"/>
		<path class="st0" d="M156.2,48.5c0,0.1,0,0.2-0.1,0.2c-0.1,0.1-0.2,0.1-0.3,0.1h-3.8c-0.1,0-0.2,0-0.3-0.1
			c-0.1-0.1-0.1-0.2-0.1-0.2V38.2c0-0.1,0-0.2,0.1-0.2c0.1-0.1,0.2-0.1,0.3-0.1h0.5c0.1,0,0.2,0,0.3,0.1c0.1,0.1,0.1,0.2,0.1,0.2
			v9.4h3c0.1,0,0.2,0,0.2,0.1c0.1,0.1,0.1,0.2,0.1,0.3L156.2,48.5z"/>
		<path class="st0" d="M158.6,48.9c-0.1,0-0.2,0-0.3-0.1c-0.1-0.1-0.1-0.2-0.1-0.2V38.2c0-0.1,0-0.2,0.1-0.2
			c0.1-0.1,0.2-0.1,0.3-0.1h0.5c0.1,0,0.2,0,0.3,0.1c0.1,0.1,0.1,0.2,0.1,0.2v10.2c0,0.1,0,0.2-0.1,0.2c-0.1,0.1-0.2,0.1-0.3,0.1
			H158.6z"/>
		<path class="st0" d="M164.6,37.9c0.4,0,0.8,0,1.1,0.1c0.3,0,0.6,0.1,0.8,0.2c0.4,0.2,0.7,0.6,0.8,1c0.2,0.4,0.3,0.9,0.3,1.4
			c0,0.6,0,1.2-0.2,1.7c-0.1,0.2-0.2,0.3-0.3,0.5c-0.1,0.1-0.3,0.2-0.4,0.3c0.4,0.1,0.8,0.4,1,0.8c0.2,0.5,0.3,1.1,0.3,1.6
			c0,0.4,0,0.8-0.1,1.2c0,0.4-0.2,0.8-0.4,1.1c-0.2,0.3-0.5,0.6-0.8,0.8c-0.5,0.2-1,0.3-1.5,0.3h-2.2c-0.1,0-0.2,0-0.2-0.1
			c-0.1-0.1-0.1-0.2-0.1-0.2V38.2c0-0.1,0-0.2,0.1-0.3c0.1-0.1,0.1-0.1,0.2-0.1L164.6,37.9z M163.8,42.5h1c0.2,0,0.5,0,0.7,0
			c0.2,0,0.4-0.1,0.5-0.2c0.2-0.2,0.3-0.4,0.4-0.6c0.1-0.3,0.1-0.7,0.1-1.1c0-0.3,0-0.5-0.1-0.8c-0.1-0.2-0.2-0.3-0.4-0.4
			c-0.2-0.1-0.4-0.2-0.6-0.2h-1.6L163.8,42.5z M163.8,43.7v3.9h1.3c0.2,0,0.5,0,0.7-0.1c0.2-0.1,0.4-0.2,0.5-0.3
			c0.2-0.2,0.3-0.4,0.3-0.6c0.1-0.4,0.1-0.7,0.1-1.1c0-0.3,0-0.6-0.1-0.9c-0.1-0.2-0.2-0.4-0.4-0.5c-0.2-0.1-0.4-0.2-0.6-0.2
			c-0.3-0.1-0.6-0.1-0.9-0.1L163.8,43.7z"/>
		<path class="st0" d="M175.8,48.5c0,0.1,0,0.1,0,0.2c-0.1,0.1-0.2,0.1-0.3,0.1h-0.6c-0.1,0-0.2,0-0.2-0.1c-0.1-0.1-0.1-0.2-0.2-0.3
			l-1.5-4.8h-1.4v4.8c0,0.1,0,0.2-0.1,0.2c-0.1,0.1-0.2,0.1-0.3,0.1h-0.5c-0.1,0-0.2,0-0.3-0.1c-0.1-0.1-0.1-0.1-0.1-0.2V38.2
			c0-0.1,0-0.2,0.1-0.3c0.1-0.1,0.2-0.1,0.2-0.1h1.9c0.5,0,1,0,1.5,0.2c0.4,0.1,0.8,0.3,1,0.7c0.2,0.3,0.3,0.6,0.4,0.9
			c0.1,0.4,0.1,0.8,0.1,1.2c0,0.6-0.1,1.2-0.3,1.7c-0.2,0.4-0.6,0.8-1.1,0.9L175.8,48.5z M171.6,42.5h1c0.2,0,0.5,0,0.7,0
			c0.2,0,0.4-0.1,0.5-0.2c0.1-0.1,0.2-0.1,0.2-0.2c0.1-0.1,0.1-0.2,0.2-0.3c0.1-0.1,0.1-0.2,0.1-0.4v-0.5c0-0.3,0-0.7-0.1-1
			c-0.1-0.2-0.2-0.4-0.4-0.5c-0.1,0-0.2-0.1-0.2-0.1c-0.1,0-0.2,0-0.4,0h-1.7L171.6,42.5z"/>
		<path class="st0" d="M180.6,37.9c0.2,0,0.3,0.1,0.4,0.4l2,10.2c0,0.1,0,0.2,0,0.3c-0.1,0.1-0.2,0.1-0.2,0.1h-0.6
			c-0.2,0-0.3-0.1-0.4-0.3l-0.4-1.8h-2.1l-0.4,1.8c0,0.2-0.2,0.3-0.4,0.3h-0.6c-0.1,0-0.2,0-0.2-0.1c0-0.1,0-0.2,0-0.2l2-10.2
			c0-0.1,0.1-0.2,0.1-0.3c0.1-0.1,0.2-0.1,0.2-0.1L180.6,37.9z M181.2,45.4l-0.6-3.8l-0.2-2.1h-0.1l-0.2,2.1l-0.6,3.8H181.2z"/>
		<path class="st0" d="M190.8,48.5c0,0.1,0,0.1,0,0.2c0,0.1-0.2,0.1-0.3,0.1h-0.6c-0.1,0-0.2,0-0.2-0.1c-0.1-0.1-0.1-0.2-0.2-0.3
			l-1.5-4.8h-1.4v4.8c0,0.1,0,0.2-0.1,0.2c-0.1,0.1-0.2,0.1-0.3,0.1h-0.5c-0.2,0-0.3-0.2-0.3-0.3V38.2c0-0.1,0-0.2,0.1-0.3
			c0.1-0.1,0.2-0.1,0.2-0.1h1.9c0.5,0,1,0,1.5,0.2c0.4,0.1,0.8,0.3,1,0.7c0.2,0.3,0.3,0.6,0.4,0.9c0.1,0.4,0.1,0.8,0.1,1.2
			c0,0.6-0.1,1.2-0.3,1.7c-0.2,0.4-0.6,0.8-1.1,0.9L190.8,48.5z M186.6,42.5h1c0.2,0,0.5,0,0.7,0c0.2,0,0.4-0.1,0.5-0.2
			c0.1,0,0.2-0.1,0.3-0.2c0.1-0.1,0.1-0.2,0.2-0.3c0-0.1,0.1-0.2,0.1-0.4c0-0.2,0-0.3,0-0.5c0-0.3,0-0.7-0.1-1
			c-0.1-0.2-0.2-0.4-0.4-0.5c-0.1-0.1-0.2-0.1-0.2-0.1c-0.1,0-0.2,0-0.3,0h-1.7L186.6,42.5z"/>
		<path class="st0" d="M194.4,48.9c-0.1,0-0.2,0-0.3-0.1c-0.1-0.1-0.1-0.2-0.1-0.2v-4.7l-2-5.6c0-0.1,0-0.2,0-0.2
			c0.1-0.1,0.2-0.1,0.3-0.1h0.6c0.1,0,0.2,0,0.2,0.1c0.1,0.1,0.1,0.2,0.1,0.3l1.3,4l1.4-4c0-0.1,0.1-0.2,0.1-0.3
			c0.1-0.1,0.1-0.1,0.2-0.1h0.7c0.1,0,0.2,0,0.3,0.1c0,0.1,0,0.2,0,0.2l-2.1,5.6v4.7c0,0.1,0,0.2-0.1,0.2c-0.1,0.1-0.2,0.1-0.3,0.1
			H194.4z"/>
	</g>
</g>
</svg>
