<svg id="Ebene_1" data-name="Ebene 1" xmlns="http://www.w3.org/2000/svg" viewBox="0 0 283.46 141.73"><defs><style>.cls-1{fill:#009ee0;}</style></defs><title>Zeichenfläche 1</title><path class="cls-1" d="M11.34,77.62v-6.4L24.66,54.74h5.6L13.82,74.38l16.4,20.36H25.7Z"/><path class="cls-1" d="M33.74,74.62a18.89,18.89,0,0,1,1.74-8.06,20.67,20.67,0,0,1,4.66-6.46,22,22,0,0,1,6.76-4.28,21.71,21.71,0,0,1,16.16,0,22,22,0,0,1,6.76,4.28,20.46,20.46,0,0,1,4.64,6.46,19.74,19.74,0,0,1,0,16.12,20.23,20.23,0,0,1-4.64,6.46,21.84,21.84,0,0,1-6.76,4.28,21.71,21.71,0,0,1-16.16,0,21.84,21.84,0,0,1-6.76-4.28,20.44,20.44,0,0,1-4.66-6.46A18.86,18.86,0,0,1,33.74,74.62Zm4.8-.12a15.69,15.69,0,0,0,1.3,6.38,16.07,16.07,0,0,0,3.56,5.18,17,17,0,0,0,5.24,3.48,16.34,16.34,0,0,0,12.68,0,17,17,0,0,0,5.24-3.48,16.07,16.07,0,0,0,3.56-5.18,16.31,16.31,0,0,0,0-12.76,16.28,16.28,0,0,0-3.56-5.18,17.38,17.38,0,0,0-5.24-3.48,16.34,16.34,0,0,0-12.68,0,17.38,17.38,0,0,0-5.24,3.48,16.28,16.28,0,0,0-3.56,5.18A15.76,15.76,0,0,0,38.54,74.5Z"/><path class="cls-1" d="M107.54,63l-13,15.76h-.24l-.64-.64L74.9,55l.2-.2h5a.64.64,0,0,1,.38.14c.12.1.22.18.3.26l13,16.4a2.55,2.55,0,0,0,.32.36l.32.32h.24s0-.06.08-.12a1.33,1.33,0,0,0,.12-.12L107.9,54.78h4.8v40h-4.4V62.34Z"/><path class="cls-1" d="M124.44,72.86c.87,0,1.79,0,2.76,0l2.76,0,1.82,0a34.69,34.69,0,0,0,3.78-.28,10.92,10.92,0,0,0,3.44-1,6.17,6.17,0,0,0,2.5-2.14,6.52,6.52,0,0,0,1-3.76,5.77,5.77,0,0,0-.86-3.2,6.94,6.94,0,0,0-2.22-2.16,10.09,10.09,0,0,0-3-1.22,15,15,0,0,0-3.28-.38H122.42V54.54H137a10.12,10.12,0,0,1,4.16.86,10.5,10.5,0,0,1,3.32,2.34,10.89,10.89,0,0,1,2.18,3.44,11.05,11.05,0,0,1,.78,4.12,11.82,11.82,0,0,1-.74,4.12,10.86,10.86,0,0,1-2.1,3.54,10.56,10.56,0,0,1-3.22,2.48,9,9,0,0,1-4.14.94H127.1V94.74h-4.48V72.86Z"/><path class="cls-1" d="M169.58,54.82l26.2,39.88h-5.12L178.9,76.82H160.18L148.42,94.7H143.3Zm6.32,17.4-6.32-9.76-6.4,9.76Z"/><path class="cls-1" d="M197.78,77.62v-6.4L211.1,54.74h5.6L200.26,74.38l16.4,20.36h-4.52Z"/><path class="cls-1" d="M220.7,77.62v-6.4L234,54.74h5.6L223.18,74.38l16.4,20.36h-4.52Z"/><path class="cls-1" d="M242.7,58.78V54.54h34.36v4.24H262.58v36H258v-36Z"/></svg>