<?xml version="1.0" encoding="utf-8"?>
<!-- Generator: Adobe Illustrator 22.1.0, SVG Export Plug-In . SVG Version: 6.00 Build 0)  -->
<svg version="1.2" baseProfile="tiny" id="Ebene_1" xmlns="http://www.w3.org/2000/svg" xmlns:xlink="http://www.w3.org/1999/xlink"
	 x="0px" y="0px" viewBox="0 0 425.2 141.7" xml:space="preserve">
<g>
	<path fill="#009EE0" d="M151.3,81.6v-6.4l13.3-16.5h5.6l-16.4,19.6l16.4,20.4h-4.5L151.3,81.6z"/>
	<path fill="#009EE0" d="M173.7,78.6c0-2.9,0.6-5.6,1.7-8.1c1.2-2.5,2.7-4.6,4.7-6.5c1.9-1.8,4.2-3.2,6.8-4.3c2.6-1,5.3-1.6,8.1-1.6
		c2.8,0,5.5,0.5,8.1,1.6c2.6,1,4.8,2.5,6.8,4.3c1.9,1.8,3.5,4,4.6,6.5c1.1,2.5,1.7,5.2,1.7,8.1s-0.6,5.6-1.7,8.1
		c-1.1,2.5-2.7,4.6-4.6,6.5c-1.9,1.8-4.2,3.2-6.8,4.3c-2.6,1-5.3,1.6-8.1,1.6c-2.8,0-5.5-0.5-8.1-1.6c-2.6-1-4.8-2.5-6.8-4.3
		c-1.9-1.8-3.5-4-4.7-6.5C174.3,84.2,173.7,81.5,173.7,78.6z M178.5,78.5c0,2.3,0.4,4.4,1.3,6.4c0.9,2,2.1,3.7,3.6,5.2
		c1.5,1.5,3.3,2.6,5.2,3.5c2,0.9,4.1,1.3,6.3,1.3c2.2,0,4.4-0.4,6.3-1.3c2-0.9,3.7-2,5.2-3.5c1.5-1.5,2.7-3.2,3.6-5.2
		c0.9-2,1.3-4.1,1.3-6.4c0-2.3-0.4-4.4-1.3-6.4c-0.9-2-2.1-3.7-3.6-5.2c-1.5-1.5-3.3-2.6-5.2-3.5c-2-0.9-4.1-1.3-6.3-1.3
		c-2.2,0-4.4,0.4-6.3,1.3s-3.7,2-5.2,3.5c-1.5,1.5-2.7,3.2-3.6,5.2C179,74.1,178.5,76.2,178.5,78.5z"/>
	<path fill="#009EE0" d="M247.5,67l-13,15.8h-0.1h-0.1l-0.6-0.6L214.9,59l0.2-0.2h5c0.1,0,0.3,0,0.4,0.1c0.1,0.1,0.2,0.2,0.3,0.3
		l13,16.4c0.1,0.1,0.2,0.2,0.3,0.4c0.2,0.2,0.3,0.3,0.3,0.3h0.1h0.1c0,0,0-0.1,0.1-0.1c0.1-0.1,0.1-0.1,0.1-0.1l13.1-17.2h4.8v40
		h-4.4V66.3L247.5,67z"/>
	<path fill="#009EE0" d="M264.4,76.9c0.9,0,1.8,0,2.8,0c1,0,1.9,0,2.8,0c0.9,0,1.5,0,1.8,0c1.3,0,2.5-0.1,3.8-0.3
		c1.3-0.2,2.4-0.5,3.4-1c1-0.5,1.9-1.2,2.5-2.1c0.6-0.9,1-2.2,1-3.8c0-1.3-0.3-2.3-0.9-3.2c-0.6-0.9-1.3-1.6-2.2-2.2s-1.9-1-3-1.2
		c-1.1-0.3-2.2-0.4-3.3-0.4h-10.6v-4.1H277c1.5,0,2.9,0.3,4.2,0.9c1.3,0.6,2.4,1.4,3.3,2.3c0.9,1,1.7,2.1,2.2,3.4
		c0.5,1.3,0.8,2.7,0.8,4.1c0,1.4-0.2,2.8-0.7,4.1c-0.5,1.3-1.2,2.5-2.1,3.5c-0.9,1-2,1.9-3.2,2.5s-2.6,0.9-4.1,0.9h-10.1v18.4h-4.5
		V76.9C263,76.9,263.6,76.9,264.4,76.9z"/>
	<path fill="#009EE0" d="M309.6,58.8l26.2,39.9h-5.1l-11.8-17.9h-18.7l-11.8,17.9h-5.1L309.6,58.8z M315.9,76.2l-6.3-9.8l-6.4,9.8
		H315.9z"/>
	<path fill="#009EE0" d="M337.8,81.6v-6.4l13.3-16.5h5.6l-16.4,19.6l16.4,20.4h-4.5L337.8,81.6z"/>
	<path fill="#009EE0" d="M360.7,81.6v-6.4L374,58.7h5.6l-16.4,19.6l16.4,20.4h-4.5L360.7,81.6z"/>
	<path fill="#009EE0" d="M382.7,62.8v-4.2h34.4v4.2h-14.5v36H398v-36H382.7z"/>
</g>
<path fill="#009EE0" d="M106.9,100.5l16,8.8c5.9-9.5,9.3-20.7,9.3-32.7c0-33.3-26.1-60.4-58.9-62.2v18.8c0,1.3-1.1,2.4-2.5,2.2
	c-1.2-0.1-2-1.2-2-2.4V14.3C34.9,14.9,7.7,42.5,7.7,76.5c0,12.8,3.9,24.6,10.4,34.5l16.6-12.4c1.1-0.8,2.6-0.5,3.3,0.7
	c0.6,1,0.2,2.3-0.7,3l-16.6,12.4c11.4,14.7,29.2,24.1,49.2,24.1c20.7,0,39.1-10.2,50.4-25.7l-15.7-8.7c-1.2-0.6-1.5-2.1-0.8-3.3
	C104.5,100.1,105.9,99.9,106.9,100.5z"/>
<path fill="#FFFFFF" d="M99.7,60.1c-0.1-0.1-0.1-0.2-0.2-0.2c-0.1-0.1-0.3-0.2-0.4-0.3L72.2,43.1c-0.7-0.4-1.5-0.4-2.2-0.1l-17.7,9
	c-1.2,0.6-1.6,2.1-0.9,3.2c0.6,1,2,1.3,3,0.7l15.4-7.8c0.7-0.3,1.5-0.3,2.1,0.1l20.4,12.5c0.6,0.3,0.6,1.1,0,1.5l-22,13.3
	c-0.8,0.5-1.7,0.4-2.5-0.1L45.5,57.8c-0.8-0.7-2.1-0.6-2.9,0.1c-0.5,0.5-0.8,1.2-0.7,1.9l2,33.4c0,0.5,0.3,1.1,0.6,1.5l22.7,22.9
	c0.4,0.4,1,0.7,1.6,0.7c0.5,0,1-0.1,1.4-0.5l27.1-20.5c0.5-0.4,0.9-1,0.9-1.7l2-34.1c0,0,0,0,0,0c0,0,0,0,0,0
	C100.2,61,100.1,60.5,99.7,60.1z M93.8,93.3c0,0.6-0.3,1.2-0.8,1.6l-20.6,15.5c-0.5,0.4-1.3,0-1.3-0.7V90.9c0-1.2-0.8-2.2-2-2.4
	c-1.3-0.1-2.5,0.9-2.5,2.2v17.7c0,0.8-0.9,1.1-1.5,0.6L48.9,92.7c-0.4-0.4-0.6-0.9-0.6-1.4l-1.5-24.9c0-0.8,0.8-1.2,1.4-0.7
	l19.4,15.1c0.7,0.6,1.8,0.6,2.6,0.1l23.9-14.5c0.6-0.4,1.3,0.1,1.3,0.8L93.8,93.3z"/>
</svg>
