<?xml version="1.0" encoding="UTF-8"?><svg width="265.72" height="40.719" data-name="Ebene 1" version="1.1" viewBox="0 0 265.72 40.719" xmlns="http://www.w3.org/2000/svg" xmlns:cc="http://creativecommons.org/ns#" xmlns:dc="http://purl.org/dc/elements/1.1/" xmlns:rdf="http://www.w3.org/1999/02/22-rdf-syntax-ns#"><defs><style>.cls-1{fill:#009ee0;}</style></defs><title>Zeichenfläche 1</title><path class="cls-1" d="m0 23.36v-6.4l13.32-16.48h5.6l-16.44 19.64 16.4 20.36h-4.52z"/><path class="cls-1" d="m22.4 20.36a18.89 18.89 0 0 1 1.74-8.06 20.67 20.67 0 0 1 4.66-6.46 22 22 0 0 1 6.76-4.28 21.71 21.71 0 0 1 16.16 0 22 22 0 0 1 6.76 4.28 20.46 20.46 0 0 1 4.64 6.46 19.74 19.74 0 0 1 0 16.12 20.23 20.23 0 0 1-4.64 6.46 21.84 21.84 0 0 1-6.76 4.28 21.71 21.71 0 0 1-16.16 0 21.84 21.84 0 0 1-6.76-4.28 20.44 20.44 0 0 1-4.66-6.46 18.86 18.86 0 0 1-1.74-8.06zm4.8-0.12a15.69 15.69 0 0 0 1.3 6.38 16.07 16.07 0 0 0 3.56 5.18 17 17 0 0 0 5.24 3.48 16.34 16.34 0 0 0 12.68 0 17 17 0 0 0 5.24-3.48 16.07 16.07 0 0 0 3.56-5.18 16.31 16.31 0 0 0 0-12.76 16.28 16.28 0 0 0-3.56-5.18 17.38 17.38 0 0 0-5.24-3.48 16.34 16.34 0 0 0-12.68 0 17.38 17.38 0 0 0-5.24 3.48 16.28 16.28 0 0 0-3.56 5.18 15.76 15.76 0 0 0-1.3 6.38z"/><path class="cls-1" d="m96.2 8.7396-13 15.76h-0.24l-0.64-0.64-18.76-23.12 0.2-0.2h5a0.64 0.64 0 0 1 0.38 0.14c0.12 0.1 0.22 0.18 0.3 0.26l13 16.4a2.55 2.55 0 0 0 0.32 0.36l0.32 0.32h0.24s0-0.06 0.08-0.12a1.33 1.33 0 0 0 0.12-0.12l13.04-17.26h4.8v40h-4.4v-32.44z"/><path class="cls-1" d="m113.1 18.6h2.76 4.58a34.69 34.69 0 0 0 3.78-0.28 10.92 10.92 0 0 0 3.44-1 6.17 6.17 0 0 0 2.5-2.14 6.52 6.52 0 0 0 1-3.76 5.77 5.77 0 0 0-0.86-3.2 6.94 6.94 0 0 0-2.22-2.16 10.09 10.09 0 0 0-3-1.22 15 15 0 0 0-3.28-0.38h-10.72v-4.18h14.58a10.12 10.12 0 0 1 4.16 0.86 10.5 10.5 0 0 1 3.32 2.34 10.89 10.89 0 0 1 2.18 3.44 11.05 11.05 0 0 1 0.78 4.12 11.82 11.82 0 0 1-0.74 4.12 10.86 10.86 0 0 1-2.1 3.54 10.56 10.56 0 0 1-3.22 2.48 9 9 0 0 1-4.14 0.94h-10.14v18.36h-4.48v-21.88z"/><path class="cls-1" d="m158.24 0.55962 26.2 39.88h-5.12l-11.76-17.88h-18.72l-11.76 17.88h-5.12zm6.32 17.4-6.32-9.76-6.4 9.76z"/><path class="cls-1" d="m186.44 23.36v-6.4l13.32-16.48h5.6l-16.44 19.64 16.4 20.36h-4.52z"/><path class="cls-1" d="m209.36 23.36v-6.4l13.3-16.48h5.6l-16.42 19.64 16.4 20.36h-4.52z"/><path class="cls-1" d="m231.36 4.5196v-4.24h34.36v4.24h-14.48v36h-4.58v-36z"/><metadata><rdf:RDF><cc:Work rdf:about=""><dc:title>Zeichenfläche 1</dc:title></cc:Work></rdf:RDF></metadata></svg>
