<?xml version="1.0" encoding="UTF-8" standalone="no"?>
<!-- Generator: Adobe Illustrator 22.1.0, SVG Export Plug-In . SVG Version: 6.00 Build 0)  -->

<svg
   version="1.2"
   id="Ebene_1"
   x="0px"
   y="0px"
   viewBox="0 0 124.5 124.5"
   xml:space="preserve"
   sodipodi:docname="kompakkt-logo-icon.svg"
   width="124.5"
   height="124.5"
   inkscape:version="1.2.1 (9c6d41e410, 2022-07-14)"
   xmlns:inkscape="http://www.inkscape.org/namespaces/inkscape"
   xmlns:sodipodi="http://sodipodi.sourceforge.net/DTD/sodipodi-0.dtd"
   xmlns="http://www.w3.org/2000/svg"
   xmlns:svg="http://www.w3.org/2000/svg"><defs
   id="defs27" /><sodipodi:namedview
   id="namedview25"
   pagecolor="#ffffff"
   bordercolor="#666666"
   borderopacity="1.0"
   inkscape:showpageshadow="2"
   inkscape:pageopacity="0.0"
   inkscape:pagecheckerboard="0"
   inkscape:deskcolor="#d1d1d1"
   showgrid="false"
   inkscape:zoom="4.0404514"
   inkscape:cx="204.9276"
   inkscape:cy="56.429338"
   inkscape:window-width="1920"
   inkscape:window-height="1027"
   inkscape:window-x="0"
   inkscape:window-y="53"
   inkscape:window-maximized="1"
   inkscape:current-layer="Ebene_1" />

<path
   fill="#009ee0"
   d="m 99.2,86.2 16,8.8 c 5.9,-9.5 9.3,-20.7 9.3,-32.7 C 124.5,29 98.4,1.9 65.6,0.1 v 18.8 c 0,1.3 -1.1,2.4 -2.5,2.2 -1.2,-0.1 -2,-1.2 -2,-2.4 V 0 C 27.2,0.6 0,28.2 0,62.2 0,75 3.9,86.8 10.4,96.7 L 27,84.3 c 1.1,-0.8 2.6,-0.5 3.3,0.7 0.6,1 0.2,2.3 -0.7,3 L 13,100.4 c 11.4,14.7 29.2,24.1 49.2,24.1 20.7,0 39.1,-10.2 50.4,-25.7 L 96.9,90.1 c -1.2,-0.6 -1.5,-2.1 -0.8,-3.3 0.7,-1 2.1,-1.2 3.1,-0.6 z"
   id="path20" />
<path
   fill="#ffffff"
   d="M 92,45.8 C 91.9,45.7 91.9,45.6 91.8,45.6 91.7,45.5 91.5,45.4 91.4,45.3 L 64.5,28.8 C 63.8,28.4 63,28.4 62.3,28.7 l -17.7,9 c -1.2,0.6 -1.6,2.1 -0.9,3.2 0.6,1 2,1.3 3,0.7 l 15.4,-7.8 c 0.7,-0.3 1.5,-0.3 2.1,0.1 l 20.4,12.5 c 0.6,0.3 0.6,1.1 0,1.5 l -22,13.3 c -0.8,0.5 -1.7,0.4 -2.5,-0.1 L 37.8,43.5 c -0.8,-0.7 -2.1,-0.6 -2.9,0.1 -0.5,0.5 -0.8,1.2 -0.7,1.9 l 2,33.4 c 0,0.5 0.3,1.1 0.6,1.5 l 22.7,22.9 c 0.4,0.4 1,0.7 1.6,0.7 0.5,0 1,-0.1 1.4,-0.5 L 89.6,83 c 0.5,-0.4 0.9,-1 0.9,-1.7 l 2,-34.1 c 0,0 0,0 0,0 0,0 0,0 0,0 0,-0.5 -0.1,-1 -0.5,-1.4 z M 86.1,79 c 0,0.6 -0.3,1.2 -0.8,1.6 L 64.7,96.1 c -0.5,0.4 -1.3,0 -1.3,-0.7 V 76.6 c 0,-1.2 -0.8,-2.2 -2,-2.4 -1.3,-0.1 -2.5,0.9 -2.5,2.2 v 17.7 c 0,0.8 -0.9,1.1 -1.5,0.6 L 41.2,78.4 C 40.8,78 40.6,77.5 40.6,77 L 39.1,52.1 c 0,-0.8 0.8,-1.2 1.4,-0.7 l 19.4,15.1 c 0.7,0.6 1.8,0.6 2.6,0.1 L 86.4,52.1 c 0.6,-0.4 1.3,0.1 1.3,0.8 z"
   id="path22" />
</svg>
