<svg xmlns="http://www.w3.org/2000/svg" viewBox="0 0 128 128" width="128" height="128"><defs></defs><g>
<g>
	<g transform="matrix(1,0,0,1,204.5,62.5)">
		<g transform="matrix(1,0,0,1,2,-4)">
			<path d="M-105.700005,29.650002C-105.700005,29.650002 -89.700005,38.450005 -89.700005,38.450005 C-83.800003,28.950005 -80.400009,17.75 -80.400009,5.75 C-80.400009,-27.549999 -106.500008,-54.649998 -139.300003,-56.449999 C-139.300003,-56.449999 -139.300003,-37.649998 -139.300003,-37.649998 C-139.300003,-36.349998 -140.400009,-35.25 -141.800003,-35.449997 C-143.000008,-35.549999 -143.800003,-36.649998 -143.800003,-37.849998 C-143.800003,-37.849998 -143.800003,-56.549998 -143.800003,-56.549998 C-177.700005,-55.949999 -204.900006,-28.349998 -204.900006,5.650002 C-204.900006,18.450005 -201.000006,30.25 -194.500006,40.150002 C-194.500006,40.150002 -177.900005,27.75 -177.900005,27.75 C-176.800007,26.950005 -175.300007,27.25 -174.600006,28.450005 C-174.000008,29.450005 -174.400005,30.75 -175.300007,31.450005 C-175.300007,31.450005 -191.900005,43.849998 -191.900005,43.849998 C-180.500008,58.549995 -162.700005,67.950005 -142.700005,67.950005 C-122.000008,67.950005 -103.600006,57.750008 -92.300003,42.25 C-92.300003,42.25 -108.000008,33.550003 -108.000008,33.550003 C-109.200005,32.950005 -109.500008,31.450005 -108.800003,30.25 C-108.100006,29.25 -106.700005,29.050003 -105.700005,29.650002 C-105.700005,29.650002 -105.700005,29.650002 -105.700005,29.650002 Z" fill="#009ee0"/>
		</g>
		<g transform="matrix(1,0,0,1,2,-4)">
			<path d="M-112.900009,-10.75C-113.000008,-10.849998 -113.000008,-10.949997 -113.100006,-10.949997 C-113.200005,-11.049999 -113.400009,-11.149998 -113.500008,-11.25 C-113.500008,-11.25 -140.400009,-27.75 -140.400009,-27.75 C-141.100006,-28.149998 -141.900009,-28.149998 -142.600006,-27.849998 C-142.600006,-27.849998 -160.300007,-18.849998 -160.300007,-18.849998 C-161.500008,-18.25 -161.900005,-16.75 -161.200005,-15.649998 C-160.600006,-14.649998 -159.200005,-14.349998 -158.200005,-14.949997 C-158.200005,-14.949997 -142.800003,-22.75 -142.800003,-22.75 C-142.100006,-23.049999 -141.300003,-23.049999 -140.700005,-22.649998 C-140.700005,-22.649998 -120.300003,-10.149998 -120.300003,-10.149998 C-119.700005,-9.849998 -119.700005,-9.049999 -120.300003,-8.649998 C-120.300003,-8.649998 -142.300003,4.650002 -142.300003,4.650002 C-143.100006,5.150002 -144.000008,5.050003 -144.800003,4.550003 C-144.800003,4.550003 -167.100006,-13.049999 -167.100006,-13.049999 C-167.900005,-13.75 -169.200005,-13.649998 -170.000008,-12.949997 C-170.500008,-12.449997 -170.800007,-11.75 -170.700005,-11.049999 C-170.700005,-11.049999 -168.700005,22.349998 -168.700005,22.349998 C-168.700005,22.849998 -168.400005,23.450005 -168.100006,23.849998 C-168.100006,23.849998 -145.400009,46.75 -145.400009,46.75 C-145.000008,47.150002 -144.400009,47.450005 -143.800003,47.450005 C-143.300003,47.450005 -142.800003,47.349998 -142.400009,46.950005 C-142.400009,46.950005 -115.300003,26.450005 -115.300003,26.450005 C-114.800003,26.050003 -114.400009,25.450005 -114.400009,24.75 C-114.400009,24.75 -112.400009,-9.349998 -112.400009,-9.349998 C-112.400009,-9.349998 -112.400009,-9.349998 -112.400009,-9.349998 C-112.400009,-9.349998 -112.400009,-9.349998 -112.400009,-9.349998 C-112.400009,-9.849998 -112.500008,-10.349998 -112.900009,-10.75 C-112.900009,-10.75 -112.900009,-10.75 -112.900009,-10.75 ZM-118.800003,22.450005C-118.800003,23.050003 -119.100006,23.650002 -119.600006,24.050003 C-119.600006,24.050003 -140.200005,39.550003 -140.200005,39.550003 C-140.700005,39.950005 -141.500008,39.550003 -141.500008,38.849998 C-141.500008,38.849998 -141.500008,20.050003 -141.500008,20.050003 C-141.500008,18.849998 -142.300003,17.849998 -143.500008,17.650002 C-144.800003,17.550003 -146.000008,18.550003 -146.000008,19.849998 C-146.000008,19.849998 -146.000008,37.550003 -146.000008,37.550003 C-146.000008,38.349998 -146.900009,38.650002 -147.500008,38.150002 C-147.500008,38.150002 -163.700005,21.849998 -163.700005,21.849998 C-164.100006,21.450005 -164.300007,20.950005 -164.300007,20.450005 C-164.300007,20.450005 -165.800007,-4.449997 -165.800007,-4.449997 C-165.800007,-5.25 -165.000008,-5.650002 -164.400005,-5.150002 C-164.400005,-5.150002 -145.000008,9.950005 -145.000008,9.950005 C-144.300003,10.550003 -143.200005,10.550003 -142.400009,10.050003 C-142.400009,10.050003 -118.500008,-4.449997 -118.500008,-4.449997 C-117.900009,-4.849998 -117.200005,-4.349998 -117.200005,-3.650002 C-117.200005,-3.650002 -118.800003,22.450005 -118.800003,22.450005 C-118.800003,22.450005 -118.800003,22.450005 -118.800003,22.450005 Z" fill="#ffffff"/>
		</g>
	</g>
</g></g></svg>